<?xml version="1.0" encoding="utf-8"?>
<!-- Generator: Adobe Illustrator 19.1.0, SVG Export Plug-In . SVG Version: 6.00 Build 0)  -->
<svg version="1.1" id="Layer_1" xmlns="http://www.w3.org/2000/svg" xmlns:xlink="http://www.w3.org/1999/xlink" x="0px" y="0px"
	 width="60px" height="60px" viewBox="-338 638 60 60" style="enable-background:new -338 638 60 60;" xml:space="preserve">
<style type="text/css">
	.st0{fill:#517FA6;}
</style>
<path class="st0" d="M-296.7,660.6L-296.7,660.6c0.5,0,1,0,1.5,0c0.6,0,1.2-0.6,1.2-1.2c0-1,0-1.9,0-2.9c0-0.7-0.5-1.2-1.2-1.2
	c-1,0-1.9,0-2.9,0c-0.7,0-1.2,0.6-1.2,1.2c0,1,0,1.9,0,2.9c0,0.1,0,0.3,0.1,0.4c0.2,0.5,0.6,0.8,1.2,0.8
	C-297.7,660.6-297.2,660.6-296.7,660.6z M-306,661.8c-3.4,0-6.1,2.7-6.2,6.1c0,3.5,2.7,6.2,6,6.3c3.5,0.1,6.2-2.7,6.3-6
	C-299.7,664.7-302.5,661.8-306,661.8z M-318,665.1L-318,665.1c0,4.6,0,9.1,0,13.6c0,0.6,0.6,1.2,1.2,1.2c7.2,0,14.3,0,21.5,0
	c0.7,0,1.2-0.6,1.2-1.2c0-4.5,0-9,0-13.5v-0.1h-2.9c0.4,1.3,0.5,2.7,0.4,4c-0.2,1.4-0.6,2.6-1.3,3.8c-0.7,1.2-1.6,2.1-2.8,2.9
	c-2.9,2-6.8,2.2-9.9,0.4c-1.6-0.9-2.8-2.1-3.7-3.7c-1.3-2.4-1.5-4.9-0.7-7.5C-316,665.1-317,665.1-318,665.1z M-293.8,683.3
	c0.2,0,0.3,0,0.5-0.1c1.2-0.3,2.3-1.3,2.5-2.6c0-0.1,0-0.3,0.1-0.4v-24.4c0-0.1,0-0.3-0.1-0.4c-0.3-1.4-1.4-2.4-2.8-2.6
	c-0.1,0-0.1,0-0.2,0h-24.5c-0.1,0-0.3,0-0.4,0.1c-1.4,0.3-2.4,1.4-2.5,2.8c0,0.1,0,0.1,0,0.2v24.5c0,0.2,0,0.3,0.1,0.5
	c0.3,1.3,1.4,2.3,2.8,2.5c0.1,0,0.1,0,0.2,0L-293.8,683.3L-293.8,683.3z M-338,638h60v60h-60V638z"/>
</svg>
