<?xml version="1.0" encoding="utf-8"?>
<!-- Generator: Adobe Illustrator 19.1.0, SVG Export Plug-In . SVG Version: 6.00 Build 0)  -->
<svg version="1.1" id="Layer_1" xmlns="http://www.w3.org/2000/svg" xmlns:xlink="http://www.w3.org/1999/xlink" x="0px" y="0px"
	 width="60px" height="60px" viewBox="-338 638 60 60" style="enable-background:new -338 638 60 60;" xml:space="preserve">
<style type="text/css">
	.st0{fill:#CF3427;}
</style>
<g>
	<polygon class="st0" points="-320.1,672.6 -318.1,672.6 -318.1,682.9 -316.1,682.9 -316.1,672.6 -314,672.6 -314,670.9 
		-320.1,670.9 	"/>
	<path class="st0" d="M-310,680.8c-0.2,0.2-0.3,0.3-0.5,0.5c-0.2,0.1-0.4,0.2-0.5,0.2c-0.2,0-0.3,0-0.4-0.1
		c-0.1-0.1-0.1-0.2-0.1-0.5V674h-1.7v7.4c0,0.5,0.1,0.9,0.3,1.2c0.2,0.3,0.5,0.4,0.9,0.4c0.3,0,0.7-0.1,1-0.3c0.4-0.2,0.7-0.5,1-0.8
		v1h1.7V674h-1.7V680.8z"/>
	<path class="st0" d="M-308.6,661.8c0.3,0,0.5-0.1,0.6-0.2c0.2-0.2,0.2-0.4,0.2-0.6v-5.3c0-0.2-0.1-0.4-0.2-0.5
		c-0.2-0.1-0.4-0.2-0.6-0.2c-0.2,0-0.4,0.1-0.6,0.2c-0.1,0.1-0.2,0.3-0.2,0.5v5.3c0,0.3,0.1,0.5,0.2,0.6
		C-309,661.7-308.8,661.8-308.6,661.8z"/>
	<path class="st0" d="M-298.4,673.8c-0.8,0-1.4,0.2-1.9,0.7s-0.7,1.1-0.7,1.9v4c0,0.9,0.2,1.5,0.7,2c0.4,0.5,1.1,0.7,1.8,0.7
		c0.9,0,1.5-0.2,2-0.7c0.4-0.5,0.7-1.1,0.7-2.1v-0.5h-1.8v0.4c0,0.5-0.1,0.9-0.2,1c-0.1,0.2-0.3,0.2-0.6,0.2c-0.3,0-0.5-0.1-0.6-0.3
		c-0.1-0.2-0.2-0.5-0.2-1v-1.7h3.3v-2.3c0-0.8-0.2-1.5-0.6-1.9C-297,674-297.6,673.8-298.4,673.8z M-297.7,677.3h-1.5v-0.9
		c0-0.4,0.1-0.6,0.2-0.8c0.1-0.2,0.3-0.2,0.6-0.2c0.3,0,0.5,0.1,0.6,0.2c0.1,0.2,0.2,0.4,0.2,0.8V677.3z"/>
	<path class="st0" d="M-338,638v60h60v-60H-338z M-304.1,653.5h2v7.5c0,0.2,0,0.4,0.1,0.5c0.1,0.1,0.2,0.2,0.4,0.2
		c0.1,0,0.3-0.1,0.5-0.2c0.2-0.1,0.4-0.3,0.6-0.5v-7.4h2v9.8h-2v-1.1c-0.4,0.4-0.7,0.7-1.1,0.9c-0.4,0.2-0.8,0.3-1.1,0.3
		c-0.5,0-0.8-0.1-1-0.4c-0.2-0.3-0.3-0.7-0.3-1.3V653.5z M-311.4,655.7c0-0.8,0.3-1.4,0.8-1.8c0.5-0.4,1.2-0.7,2.1-0.7
		c0.8,0,1.5,0.2,2,0.7c0.5,0.5,0.8,1.1,0.8,1.8v5.1c0,0.8-0.3,1.5-0.8,2c-0.5,0.5-1.2,0.7-2.1,0.7c-0.9,0-1.5-0.2-2.1-0.7
		c-0.5-0.5-0.8-1.2-0.8-2V655.7z M-316.7,650l1.4,5.3h0.1l1.4-5.3h2.2l-2.6,7.8v5.5h-2.2V658l-2.6-8H-316.7z M-294.5,685.5
		c-1.4,1.4-13.5,1.5-13.5,1.5s-12.1,0-13.5-1.5c-1.4-1.4-1.4-8.5-1.4-8.6c0,0,0-7.1,1.4-8.6c1.4-1.4,13.5-1.5,13.5-1.4
		c0,0,12.1,0,13.5,1.5c1.4,1.4,1.5,8.5,1.5,8.6C-293,677-293,684.1-294.5,685.5z"/>
	<path class="st0" d="M-303.7,673.9c-0.3,0-0.5,0.1-0.8,0.2c-0.3,0.1-0.5,0.3-0.7,0.6v-3.9h-1.8v12h1.8v-0.7
		c0.2,0.3,0.5,0.5,0.7,0.6c0.3,0.1,0.6,0.2,0.9,0.2c0.5,0,0.9-0.2,1.2-0.5c0.3-0.3,0.4-0.8,0.4-1.4v-4.9c0-0.7-0.1-1.3-0.4-1.7
		C-302.7,674.1-303.1,673.9-303.7,673.9z M-303.8,680.8c0,0.3-0.1,0.5-0.2,0.6c-0.1,0.1-0.3,0.2-0.5,0.2c-0.1,0-0.3,0-0.4-0.1
		c-0.1-0.1-0.3-0.2-0.4-0.3v-5.5c0.1-0.1,0.2-0.2,0.4-0.3c0.1-0.1,0.2-0.1,0.4-0.1c0.2,0,0.4,0.1,0.5,0.2c0.1,0.2,0.2,0.4,0.2,0.7
		V680.8z"/>
</g>
</svg>
