<?xml version="1.0" encoding="utf-8"?>
<!-- Generator: Adobe Illustrator 19.1.0, SVG Export Plug-In . SVG Version: 6.00 Build 0)  -->
<svg version="1.1" id="Layer_1" xmlns="http://www.w3.org/2000/svg" xmlns:xlink="http://www.w3.org/1999/xlink" x="0px" y="0px"
	 width="382px" height="234.6px" viewBox="-55 550.4 382 234.6" style="enable-background:new -55 550.4 382 234.6;"
	 xml:space="preserve">
<style type="text/css">
	.st0{fill:#FFFFFF;}
</style>
<rect x="-299.7" y="-143.5" class="st0" width="696" height="90"/>
<polygon points="-40.2,-112.4 -40.4,-112.4 -46.4,-92.3 -34.1,-92.3 -40.1,-112.4 "/>
<polygon points="304.8,-112.3 304.7,-112.3 298.6,-92.2 311,-92.2 304.9,-112.3 "/>
<path d="M-196.4-118.5c-9.6,0-16.1,8-16.1,17.2c0,9.4,6.5,17.5,16.3,17.5c9.5,0,15.9-8.3,15.9-17.3
	C-180.4-110.2-186.8-118.5-196.4-118.5z"/>
<path d="M84.2-117.4h-6.5v32.5h6.5c10.3,0,14.4-6.6,14.4-16.2C98.5-110.5,94.2-117.4,84.2-117.4z"/>
<path d="M-332.3-171.8v138.2h760.8v-138.2H-332.3z M-252.8-70.6c-11.9,0-21.3-6.1-21.3-18.7v-1.9h15c0,3.8,1.8,8,6.1,8
	c3.1,0,5.7-2.5,5.7-5.7c0-3.8-3.2-5.1-6.3-6.5c-1.8-0.8-3.5-1.5-5.3-2.2c-7.6-3.2-14.4-7.6-14.4-16.9c0-11,10.6-17.4,20.6-17.4
	c5.7,0,12.2,2.2,15.9,6.7c3,3.7,3.7,7,3.9,11.6h-14.9c-0.5-3.3-1.6-5.7-5.4-5.7c-2.6,0-5.2,1.8-5.2,4.6c0,0.9,0.1,1.8,0.6,2.5
	c1.4,2.4,9.2,5.4,11.6,6.5c7.8,3.6,13.8,7.6,13.8,16.9C-232.2-76.3-241.1-70.6-252.8-70.6z M-196.6-70.6c-16.7,0-31-12.9-31-29.9
	c0-4.4,0.7-8.5,2.3-12.6c0.9-2.3,2.3-4.6,3.8-6.6c6.1-8,14.9-12.1,24.9-12.1c17.2,0,31.2,13.2,31.2,30.6
	C-165.4-83.7-179.3-70.6-196.6-70.6z M-128.7-83.8c6.6,0,11.6-4.1,14.2-10h15.8c-3.4,13.9-15.5,23.2-29.8,23.2
	c-17.1,0-31.1-13.4-31.1-30.7s13.8-30.5,30.9-30.5c10.7,0,20.1,4.9,26,13.9c1.9,2.9,3.4,6.2,4,9.6h-15.8
	c-2.3-6.1-7.6-10.3-14.3-10.3c-9.6,0-15.8,8.1-15.8,17.2S-138.4-83.8-128.7-83.8z M-75.9-71.7H-91v-59h15.1V-71.7z M-27.2-71.7
	l-2.9-8.5h-20.5l-3.1,8.5h-16.2l23.7-59h11.9l23.4,59H-27.2z M28.1-71.7H-4.4v-59h15.1V-85h17.4V-71.7z M83.2-71.7H62.6v-59h19.5
	c10.7,0,19.4,1.8,26.1,11c3.8,5.3,5.4,11.8,5.4,18.3C113.6-82,102.5-71.7,83.2-71.7z M136-71.7h-15.1v-59H136V-71.7z M177-70.5
	c-17.4,0-31.3-13.5-31.3-30.9c0-17.7,14.3-30.4,31.6-30.4c12.7,0,25.9,8.3,29.5,20.9h-16.9c-2.7-4.9-7.4-7.6-13-7.6
	c-9.6,0-16.1,7.8-16.1,17.1c0,9.6,6.1,17.7,16.2,17.7c6.5,0,12.3-2.9,14.1-9.5h-17.6v-12h35c0.1,1,0.1,2.1,0.1,3.1
	C208.5-84,195.1-70.5,177-70.5z M231.4-71.7h-15.1v-59h15.1V-71.7z M265.8-71.7h-15.1v-45.7h-11.6v-13.2h38.2v13.2h-11.6v45.7H265.8
	z M317.8-71.7l-2.9-8.5h-20.5l-3.1,8.5h-16.2l23.7-59h11.9l23.4,59H317.8z M371.5-71.7H339v-59h15.1V-85h17.4V-71.7z"/>
<rect x="-249.7" y="-241.5" class="st0" width="108" height="28"/>
<g>
	<path d="M-187.3-233.9h-1.2v4.8h1.1c0.6,0,1.4,0,1.8-0.4c0.5-0.4,0.7-1.1,0.7-2.4C-184.9-233.5-186.1-233.9-187.3-233.9z"/>
	<path d="M-202.2-234c-1.1,0-1.9,0.2-2.5,0.7c-0.7,0.7-1.1,3-1.1,4.7c0,3.2,1.4,5.1,4.1,5.1c1.1,0,1.9-0.2,2.5-0.7
		c0.7-0.7,1.1-3,1.1-4.7C-198.1-232.1-199.5-234-202.2-234z"/>
	<path d="M-257.2-248.7v39.1h44.9l16.5,8.2l16.5-8.2h44.9v-39.1H-257.2z M-229.4-227.1h-1.1v2.9c0,0.5,0.1,0.7,0.6,0.7l1.3,0.2v1.6
		h-5.9v-1.6l0.9-0.2c0.5-0.1,0.6-0.3,0.6-0.7v-9.2c0-0.5-0.1-0.6-0.6-0.7l-0.9-0.2v-1.6h5.4c2.9,0,4.9,0.7,4.9,3.7
		C-224.2-229-226.8-227.1-229.4-227.1z M-221.9-221.7v-1.6l0.9-0.2c0.5-0.1,0.6-0.3,0.6-0.7v-9.3c0-0.5-0.1-0.7-0.6-0.8l-0.9-0.1
		v-1.5h10.4l-0.1,3.9h-1.7l-0.1-1.3c-0.1-0.5-0.3-0.6-0.7-0.6h-3.7v3.7h4.1v2h-4.1v4.3h3.7c0.5,0,0.7-0.1,0.7-0.6l0.1-1.4h1.7l0.1,4
		h-10.4V-221.7z M-202.4-221.5c-4.4,0-6.1-3-6.1-7.3c0-3.7,1.9-7.3,7-7.3c4.4,0,6.1,3,6.1,7.3C-195.4-225.1-197.3-221.5-202.4-221.5
		z M-187.4-227.1h-1.1v2.9c0,0.5,0.1,0.7,0.6,0.7l1.3,0.2v1.6h-5.9v-1.6l0.9-0.2c0.5-0.1,0.6-0.3,0.6-0.7v-9.2
		c0-0.5-0.1-0.6-0.6-0.7l-0.9-0.2v-1.6h5.4c2.9,0,4.9,0.7,4.9,3.7C-182.2-229-184.8-227.1-187.4-227.1z M-179.9-221.7v-1.6l0.9-0.2
		c0.5-0.1,0.6-0.3,0.6-0.7v-9.2c0-0.5-0.1-0.6-0.6-0.7l-0.9-0.2v-1.6h5.7v1.6l-1.1,0.2c-0.5,0.1-0.6,0.3-0.6,0.7v9.6h3
		c0.5,0,0.7-0.1,0.7-0.6l0.1-1.4h1.7l0.1,4h-9.6V-221.7z M-167.8-221.7v-1.6l0.9-0.2c0.5-0.1,0.6-0.3,0.6-0.7v-9.3
		c0-0.5-0.1-0.7-0.6-0.8l-0.9-0.1v-1.5h10.4l-0.1,3.9h-1.7l-0.1-1.3c-0.1-0.5-0.3-0.6-0.7-0.6h-3.7v3.7h4.1v2h-4.1v4.3h3.7
		c0.5,0,0.7-0.1,0.7-0.6l0.1-1.4h1.7l0.1,4h-10.4V-221.7z"/>
	<path d="M-229.3-233.9h-1.2v4.8h1.1c0.6,0,1.4,0,1.8-0.4c0.5-0.4,0.7-1.1,0.7-2.4C-226.9-233.5-228.1-233.9-229.3-233.9z"/>
</g>
<path d="M-94.4-220v-7.1h-6.5v-4.1h6.5v-7h4.3v7h6.7v4.1h-6.7v7.1H-94.4z"/>
<path d="M113.1-220v-7.1h-6.5v-4.1h6.5v-7h4.3v7h6.7v4.1h-6.7v7.1H113.1z"/>
<rect x="-39.7" y="-241.5" class="st0" width="108" height="28"/>
<g>
	<path d="M-49.7-248.7v39.1h44.9l16.5,8.2l16.5-8.2H73v-39.1H-49.7z M-21.9-221.6h-6.2v-1.6l0.9-0.2c0.5-0.1,0.6-0.3,0.6-0.8v-9.2
		c0-0.5-0.1-0.7-0.6-0.8l-0.9-0.1v-1.5h6.2c4.6,0,6.4,2.6,6.4,6.9C-15.5-224.8-17.4-221.6-21.9-221.6z M-12.6-221.6v-1.6l0.9-0.2
		c0.5-0.1,0.6-0.3,0.6-0.7v-9.3c0-0.5-0.1-0.7-0.6-0.8l-0.9-0.1v-1.5h10.4l-0.1,3.9H-4l-0.1-1.3c-0.1-0.5-0.3-0.6-0.7-0.6h-3.7v3.7
		h4.1v2h-4.1v4.3h3.7c0.5,0,0.7-0.1,0.7-0.6l0.1-1.2h1.7l0.1,4H-12.6z M5.3-221.4c-2,0-3-0.4-4.4-0.9l0.2-3.4h2l0.3,1.8
		c0.6,0.4,1.2,0.6,2.4,0.6c1.3,0,2.4-0.6,2.4-1.9c0-1-0.4-1.5-2-2.1l-2.4-0.9c-1.6-0.6-2.7-1.9-2.7-4c0-2.2,1.6-3.7,4.8-3.7
		c1.5,0,2.9,0.2,4.3,0.5l-0.3,3.2H8l-0.3-1.6c-0.7-0.3-1.4-0.4-2.1-0.4c-1.2,0-1.9,0.5-1.9,1.7c0,1,0.5,1.7,1.8,2.2l1.7,0.6
		c1.9,0.7,3.6,1.5,3.6,4.1C10.7-223.2,8.8-221.4,5.3-221.4z M19.1-234.2l-0.9,0.2c-0.5,0.1-0.6,0.3-0.6,0.7v9.2
		c0,0.5,0.1,0.6,0.6,0.7l0.9,0.2v1.6h-5.5v-1.6l0.9-0.2c0.5-0.1,0.6-0.3,0.6-0.7v-9.2c0-0.5-0.1-0.6-0.6-0.7l-0.9-0.2v-1.6h5.5
		V-234.2z M34.5-226.7l-0.7,0.1c-0.5,0.1-0.5,0.2-0.5,0.7v3.2c-1.1,0.5-2.9,1.2-5.2,1.2c-4.4,0-6.2-2.6-6.2-7.1c0-4.1,2-7.4,6.7-7.4
		c1.3,0,2.8,0.1,4.8,1.1l-0.3,3.4h-1.9l-0.4-2c-0.9-0.3-1.5-0.5-2.8-0.5c-1.2,0-1.8,0.3-2.3,0.7c-0.7,0.6-1.1,3.2-1.1,4.6
		c0,2.9,1.1,5.2,3.8,5.2c0.9,0,1.6-0.1,2.4-0.4v-1.9c0-0.5-0.1-0.7-0.6-0.7l-1-0.2v-1.6h5.2L34.5-226.7L34.5-226.7z M51.7-234.2
		l-0.9,0.1c-0.5,0.1-0.6,0.3-0.6,0.8v11.7h-2.6l-6-9.7v7.2c0,0.5,0.1,0.7,0.6,0.7l0.9,0.2v1.6h-5.5v-1.6l0.9-0.2
		c0.5-0.1,0.6-0.3,0.6-0.7v-9.2c0-0.5-0.1-0.7-0.6-0.8l-0.9-0.1v-1.6h4.1l6,9.7v-7.2c0-0.5-0.1-0.7-0.6-0.8l-0.9-0.1v-1.6h5.5
		V-234.2z"/>
	<path d="M-22.1-233.8h-2v10.1h2c2.7,0,3.9-1.5,3.9-5.3C-18.2-232.7-19.5-233.8-22.1-233.8z"/>
</g>
<rect x="168.3" y="-241.5" class="st0" width="173" height="28"/>
<g>
	<path d="M262.9-223.5c1.1,0,1.9-0.2,2.5-0.7c0.7-0.7,1.1-3,1.1-4.7c0-3.2-1.4-5.1-4.1-5.1c-1.1,0-1.9,0.2-2.5,0.7
		c-0.7,0.7-1.1,3-1.1,4.7C258.8-225.4,260.2-223.5,262.9-223.5z"/>
	<path d="M350.6-248.7H157.8v39.1h79.9l16.5,8.2l16.5-8.2h79.9V-248.7z M263.1-236c4.4,0,6.1,3,6.1,7.3c0,3.7-1.9,7.3-7,7.3
		c-4.4,0-6.1-3-6.1-7.3C256.1-232.5,258-236,263.1-236z M239.3-223.2l0.9-0.2c0.5-0.1,0.6-0.3,0.6-0.7v-9.2c0-0.5-0.1-0.7-0.6-0.8
		l-0.9-0.1v-1.6h4.1l6,9.7v-7.2c0-0.5-0.1-0.7-0.6-0.8l-0.9-0.1v-1.6h5.5v1.6l-0.9,0.1c-0.5,0.1-0.6,0.3-0.6,0.8v11.7h-2.6l-6-9.7
		v7.2c0,0.5,0.1,0.7,0.6,0.7l0.9,0.2v1.6h-5.5V-223.2z M192.3-231.9h-1.7l-0.1-1.3c-0.1-0.5-0.3-0.6-0.7-0.6h-2v9.7
		c0,0.5,0.1,0.7,0.6,0.7l1,0.2v1.6h-5.7v-1.6l1-0.2c0.5-0.1,0.6-0.3,0.6-0.7v-9.7h-2c-0.5,0-0.7,0.1-0.7,0.6l-0.1,1.3h-1.7l-0.1-3.9
		h11.9L192.3-231.9z M194.7-221.6v-1.6l0.9-0.2c0.5-0.1,0.6-0.3,0.6-0.7v-9.3c0-0.5-0.1-0.7-0.6-0.8l-0.9-0.1v-1.5h10.4l-0.1,3.9
		h-1.7l-0.1-1.3c-0.1-0.5-0.3-0.6-0.7-0.6h-3.7v3.7h4.1v2h-4.1v4.3h3.7c0.5,0,0.7-0.1,0.7-0.6l0.1-1.4h1.7l0.1,4h-10.4V-221.6z
		 M214.4-221.4c-4.3,0-6.2-2.6-6.2-7.1c0-4.1,2-7.4,6.7-7.4c1.3,0,2.6,0.1,4.6,1.1l-0.3,3.4h-1.9l-0.4-2.1c-0.8-0.3-1.4-0.4-2.6-0.4
		s-1.8,0.3-2.3,0.7c-0.7,0.6-1.1,3.2-1.1,4.6c0,3.1,1.3,5.1,3.9,5.1c1.8,0,3.8-0.6,4.3-0.8l0.5,1.7
		C219.1-222.5,216.8-221.4,214.4-221.4z M226.6-228.1v3.9c0,0.5,0.1,0.7,0.6,0.7l1,0.2v1.6h-5.6v-1.6l0.9-0.2
		c0.5-0.1,0.6-0.3,0.6-0.7v-9.2c0-0.5-0.1-0.6-0.6-0.7l-0.9-0.2v-1.6h5.6v1.6l-1,0.2c-0.5,0.1-0.6,0.3-0.6,0.7v3.3h5.7v-3.3
		c0-0.5-0.1-0.7-0.6-0.7l-1-0.2v-1.6h5.6v1.6l-0.9,0.2c-0.5,0.1-0.6,0.3-0.6,0.7v9.2c0,0.5,0.1,0.6,0.6,0.7l0.9,0.2v1.6h-5.6v-1.6
		l1-0.2c0.5-0.1,0.6-0.3,0.6-0.7v-3.9H226.6z M272-221.6v-1.6l0.9-0.2c0.5-0.1,0.6-0.3,0.6-0.7v-9.2c0-0.5-0.1-0.6-0.6-0.7l-0.9-0.2
		v-1.6h5.7v1.6l-1.1,0.2c-0.5,0.1-0.6,0.3-0.6,0.7v9.6h3c0.5,0,0.7-0.1,0.7-0.6l0.1-1.4h1.7l0.1,4H272V-221.6z M290-221.4
		c-4.4,0-6.1-3-6.1-7.3c0-3.7,1.9-7.3,7-7.3c4.4,0,6.1,3,6.1,7.3C297-225,295.1-221.4,290-221.4z M312.3-226.7l-0.7,0.1
		c-0.5,0.1-0.5,0.2-0.5,0.7v3.2c-1.1,0.5-2.9,1.2-5.2,1.2c-4.4,0-6.2-2.6-6.2-7.1c0-4.1,2-7.4,6.7-7.4c1.3,0,2.8,0.1,4.8,1.1
		l-0.3,3.4H309l-0.4-2c-0.9-0.3-1.5-0.5-2.8-0.5c-1.2,0-1.8,0.3-2.3,0.7c-0.7,0.6-1.1,3.2-1.1,4.6c0,2.9,1.1,5.2,3.8,5.2
		c0.9,0,1.6-0.1,2.4-0.4v-1.9c0-0.5-0.1-0.7-0.6-0.7l-1-0.2v-1.6h5.2L312.3-226.7L312.3-226.7z M328-234.2l-0.9,0.1
		c-0.6,0.1-0.7,0.3-1,0.8l-3.8,7v2.2c0,0.5,0.1,0.7,0.6,0.7l1,0.2v1.6h-5.7v-1.6l1-0.2c0.5-0.1,0.6-0.3,0.6-0.7v-2.4l-3.7-6.8
		c-0.3-0.6-0.5-0.8-1-0.8l-0.9-0.1v-1.6h5.8v1.5l-0.7,0.1c-0.4,0.1-0.6,0.1-0.6,0.4c0,0.1,0.1,0.3,0.2,0.5l2.4,4.6l2.3-4.6
		c0.1-0.2,0.1-0.3,0.1-0.4c0-0.2-0.2-0.3-0.7-0.4l-0.7-0.1v-1.6h5.6v1.6H328z"/>
	<path d="M290.2-233.9c-1.1,0-1.9,0.2-2.5,0.7c-0.7,0.7-1.1,3-1.1,4.7c0,3.2,1.4,5.1,4.1,5.1c1.1,0,1.9-0.2,2.5-0.7
		c0.7-0.7,1.1-3,1.1-4.7C294.3-232,292.9-233.9,290.2-233.9z"/>
</g>
<rect x="-299.7" y="119.5" class="st0" width="696" height="90"/>
<polygon points="-41.1,151 -41.2,151 -47.3,171.2 -34.9,171.2 -41,151 "/>
<polygon points="303.9,151.1 303.8,151.1 297.7,171.3 310.1,171.3 304,151.1 "/>
<path d="M-197.3,144.9c-9.6,0-16.1,8-16.1,17.2c0,9.4,6.5,17.5,16.3,17.5c9.5,0,15.9-8.3,15.9-17.3
	C-181.3,153.2-187.7,144.9-197.3,144.9z"/>
<path d="M83.3,146h-6.5v32.5h6.5c10.3,0,14.4-6.6,14.4-16.2C97.6,152.9,93.3,146,83.3,146z"/>
<path d="M-333.2,91.6v138.2h760.8V91.6H-333.2z M-253.7,192.8c-11.9,0-21.3-6.1-21.3-18.7v-1.9h15c0,3.8,1.8,8,6.1,8
	c3.1,0,5.7-2.5,5.7-5.7c0-3.8-3.2-5.1-6.3-6.5c-1.8-0.8-3.5-1.5-5.3-2.2c-7.6-3.2-14.4-7.6-14.4-16.9c0-11,10.6-17.4,20.6-17.4
	c5.7,0,12.2,2.2,15.9,6.7c3,3.7,3.7,7,3.9,11.6h-14.9c-0.5-3.3-1.6-5.7-5.4-5.7c-2.6,0-5.2,1.8-5.2,4.6c0,0.9,0.1,1.8,0.6,2.5
	c1.4,2.4,9.2,5.4,11.6,6.5c7.8,3.6,13.8,7.6,13.8,16.9C-233.1,187.1-242,192.8-253.7,192.8z M-197.5,192.8c-16.7,0-31-12.9-31-29.9
	c0-4.4,0.7-8.5,2.3-12.6c0.9-2.3,2.3-4.6,3.8-6.6c6.1-8,14.9-12.1,24.9-12.1c17.2,0,31.2,13.2,31.2,30.6
	C-166.3,179.7-180.2,192.8-197.5,192.8z M-129.6,179.6c6.6,0,11.6-4.1,14.2-10h15.8c-3.4,13.9-15.5,23.2-29.8,23.2
	c-17.1,0-31.1-13.4-31.1-30.7s13.8-30.5,30.9-30.5c10.7,0,20.1,4.9,26,13.9c1.9,2.9,3.4,6.2,4,9.6h-15.8
	c-2.3-6.1-7.6-10.3-14.3-10.3c-9.6,0-15.8,8.1-15.8,17.2C-145.5,171.2-139.2,179.6-129.6,179.6z M-76.8,191.7h-15.1v-59h15.1
	C-76.8,132.7-76.8,191.7-76.8,191.7z M-28.1,191.7l-2.9-8.5h-20.4l-3.1,8.5h-16.2l23.7-59h11.9l23.4,59H-28.1z M27.2,191.7H-5.3v-59
	H9.8v45.7h17.4C27.2,178.4,27.2,191.7,27.2,191.7z M82.3,191.7H61.7v-59h19.5c10.7,0,19.4,1.8,26.1,11c3.8,5.3,5.4,11.8,5.4,18.3
	C112.7,181.5,101.6,191.7,82.3,191.7z M135.1,191.7H120v-59h15.1V191.7z M176.1,192.9c-17.4,0-31.3-13.5-31.3-30.9
	c0-17.7,14.3-30.4,31.6-30.4c12.7,0,25.9,8.3,29.5,20.9H189c-2.7-4.9-7.4-7.6-13-7.6c-9.6,0-16.1,7.8-16.1,17.1
	c0,9.6,6.1,17.7,16.2,17.7c6.5,0,12.3-2.9,14.1-9.5h-17.6v-12h35c0.1,1,0.1,2.1,0.1,3.1C207.6,179.4,194.2,192.9,176.1,192.9z
	 M230.5,191.7h-15.1v-59h15.1V191.7z M264.9,191.7h-15.1V146h-11.6v-13.2h38.2V146h-11.6v45.7H264.9z M316.9,191.7l-2.9-8.5h-20.5
	l-3.1,8.5h-16.2l23.7-59h11.9l23.4,59H316.9z M370.6,191.7h-32.5v-59h15.1v45.7h17.4V191.7z"/>
<polygon points="-39.9,413.8 -40.1,413.8 -46.1,434 -33.8,434 -39.8,413.8 "/>
<polygon points="305.1,413.9 304.9,413.9 298.9,434.1 311.2,434.1 305.2,413.9 "/>
<path d="M-196.2,407.7c-9.6,0-16.1,8-16.1,17.2c0,9.4,6.5,17.5,16.3,17.5c9.5,0,15.9-8.3,15.9-17.3
	C-180.1,416-186.5,407.7-196.2,407.7z"/>
<path d="M84.5,408.8H78v32.5h6.5c10.3,0,14.4-6.6,14.4-16.2C98.8,415.7,94.5,408.8,84.5,408.8z"/>
<path d="M-332,354.4v138.2h981.7V354.4H-332z"/>
<path d="M-363.1,573v212h212.4V573C-150.7,573-363.1,573-363.1,573z"/>
<g>
	<path class="st0" d="M-318,606.9c-0.4-2.7-1.1-7.9-7.4-7.9c-3.6,0-7.1,2.5-7.1,6.3c0,4.8,2.2,5.8,16.7,12.3
		c15.1,6.8,18.9,13.7,18.9,23.1c0,11.8-6.8,24.8-28.2,24.8c-23.4,0-29.1-15.3-29.1-25.6v-2.6h20.5c0,9.4,5.8,11,8.4,11
		c4.9,0,7.9-4,7.9-7.7c0-5.3-3.4-6.7-15.8-11.9c-5.7-2.3-19.8-8-19.8-23.1c0-15.1,14.7-23.8,28.3-23.8c8,0,16.6,2.9,21.8,9.2
		c4.8,5.9,5.1,11.3,5.3,15.9H-318z"/>
	<path class="st0" d="M-288.2,583.3h26.7c9.1,0,25.2,0,35.7,15.1c5.6,7.6,7.4,16.3,7.4,25.1c0,22-10.9,40.6-41.6,40.6h-28.3
		L-288.2,583.3L-288.2,583.3z M-267.6,646h8.8c15.4,0,19.8-10.7,19.8-22.2c0-4.6-1-10.4-3.9-14.9c-2.4-3.6-6.5-7.4-15.7-7.4h-8.9
		V646H-267.6z"/>
	<path class="st0" d="M-311.8,775.5h-20.6v-63.4h-13.2v-17.3h33.8L-311.8,775.5L-311.8,775.5z"/>
	<path class="st0" d="M-253.6,719.1l0.2,0.2c1-0.4,2.4-0.4,3.9-0.4c11.8,0,25.4,9.1,25.4,27.4c0,18.4-14.3,30.8-31.3,30.8
		c-10.1,0-19.5-3.7-25-10.9c-5.1-5.8-6.9-14.1-6.9-20.3c0-8.2,3.4-15.4,7.4-21.6l20.1-29.5h23.9L-253.6,719.1z M-256,758.9
		c6.1,0,11.3-4.5,11.3-10.9c0-5.2-3.9-11-11.3-11c-6.5,0-10.9,5-10.9,10.7C-266.9,755.2-261,758.9-256,758.9z"/>
</g>
<path d="M-362.7,836v212h212V836H-362.7z"/>
<path class="st0" d="M-328.9,858c-0.4-2.5-1-7.3-6.9-7.3c-3.4,0-6.6,2.3-6.6,5.9c0,4.5,2,5.4,15.6,11.5c14,6.3,17.6,12.8,17.6,21.6
	c0,11-6.3,23.1-26.2,23.1c-21.8,0-27.1-14.2-27.1-23.9v-2.5h19.1c0,8.7,5.4,10.3,7.8,10.3c4.6,0,7.3-3.8,7.3-7.2
	c0-5-3.2-6.2-14.7-11.1c-5.3-2.1-18.4-7.4-18.4-21.6c0-14.1,13.7-22.2,26.3-22.2c7.4,0,15.5,2.7,20.3,8.5c4.5,5.5,4.8,10.6,5,14.8
	h-19.1V858z"/>
<path class="st0" d="M-215.8,836.1h24.9c8.4,0,23.5,0,33.2,14c5.2,7.1,6.9,15.1,6.9,23.4c0,20.5-10.2,37.8-38.7,37.8h-26.3
	L-215.8,836.1L-215.8,836.1z M-196.5,894.4h8.2c14.3,0,18.4-10,18.4-20.6c0-4.3-0.9-9.7-3.7-13.9c-2.2-3.4-6.1-6.9-14.6-6.9h-8.3
	V894.4z"/>
<path class="st0" d="M-309.7,1047.6h-19.2v-59.1h-12.3v-16.1h31.5L-309.7,1047.6L-309.7,1047.6z"/>
<path class="st0" d="M-178.2,995l0.2,0.2c0.9-0.4,2.2-0.4,3.7-0.4c11,0,23.7,8.4,23.7,25.5c0,17.2-13.3,28.7-29.2,28.7
	c-9.5,0-18.2-3.5-23.3-10.2c-4.8-5.4-6.4-13.1-6.4-18.9c0-7.6,3.2-14.3,6.9-20.1l18.7-27.5h22.3L-178.2,995z M-180.5,1032.1
	c5.7,0,10.6-4.2,10.6-10.2c0-4.9-3.7-10.3-10.6-10.3c-6.1,0-10.2,4.7-10.2,10C-190.6,1028.7-185.2,1032.1-180.5,1032.1z"/>
<path d="M-362.7,1621v213h212v-213H-362.7z"/>
<g>
	<path class="st0" d="M-304,1667.8c-0.4-2.5-1-7.3-6.9-7.3c-3.4,0-6.6,2.3-6.6,5.9c0,4.5,2,5.4,15.6,11.5
		c14,6.3,17.6,12.8,17.6,21.6c0,11-6.3,23.1-26.2,23.1c-21.8,0-27.1-14.2-27.1-23.9v-2.4h19.1c0,8.7,5.4,10.3,7.8,10.3
		c4.6,0,7.3-3.8,7.3-7.2c0-5-3.2-6.2-14.7-11.1c-5.3-2.1-18.4-7.4-18.4-21.6c0-14.1,13.7-22.2,26.3-22.2c7.4,0,15.5,2.7,20.3,8.5
		c4.5,5.5,4.8,10.6,5,14.8L-304,1667.8L-304,1667.8z"/>
	<path class="st0" d="M-275.4,1645.8h24.9c8.4,0,23.5,0,33.2,14c5.2,7.1,6.9,15.1,6.9,23.4c0,20.5-10.2,37.8-38.7,37.8h-26.3
		L-275.4,1645.8L-275.4,1645.8z M-256.2,1704.2h8.2c14.3,0,18.4-10,18.4-20.6c0-4.3-0.9-9.7-3.7-13.9c-2.2-3.4-6.1-6.9-14.6-6.9
		h-8.3V1704.2L-256.2,1704.2z"/>
	<path class="st0" d="M-243.8,1810.2H-263v-59.1h-12.3v-16.2h31.5V1810.2z"/>
	<path class="st0" d="M-203.1,1757.6l0.2,0.2c0.9-0.4,2.2-0.4,3.7-0.4c11,0,23.7,8.4,23.7,25.5c0,17.2-13.3,28.7-29.2,28.7
		c-9.5,0-18.2-3.5-23.3-10.2c-4.8-5.4-6.4-13.1-6.4-18.9c0-7.6,3.2-14.3,6.9-20.1l18.7-27.5h22.3L-203.1,1757.6z M-205.3,1794.7
		c5.7,0,10.6-4.2,10.6-10.2c0-4.9-3.7-10.3-10.6-10.3c-6.1,0-10.2,4.7-10.2,10C-215.5,1791.3-210,1794.7-205.3,1794.7z"/>
</g>
<path d="M-344.2,1901.5v175h175v-175H-344.2z"/>
<g>
	<path class="st0" d="M-308.3,1925.5c-0.4-2.8-1.1-8-7.5-8c-3.7,0-7.2,2.6-7.2,6.4c0,4.9,2.2,5.9,17,12.5
		c15.3,6.9,19.2,14,19.2,23.5c0,12-6.9,25.2-28.6,25.2c-23.7,0-29.6-15.5-29.6-26.1v-2.7h20.9c0,9.5,5.9,11.2,8.5,11.2
		c5,0,8-4.1,8-7.9c0-5.4-3.4-6.8-16.1-12.1c-5.8-2.3-20.1-8.1-20.1-23.5s15-24.2,28.7-24.2c8.1,0,16.9,3,22.2,9.3
		c4.9,6,5.2,11.5,5.4,16.2h-20.8V1925.5z"/>
	<path class="st0" d="M-277.1,1901.6h27.2c9.2,0,25.6,0,36.3,15.3c5.7,7.8,7.5,16.5,7.5,25.5c0,22.4-11.1,41.3-42.3,41.3h-28.7
		V1901.6z M-256.1,1965.2h9c15.6,0,20.1-10.9,20.1-22.5c0-4.7-1-10.5-4-15.2c-2.4-3.7-6.7-7.5-16-7.5h-9.1V1965.2z"/>
	<path class="st0" d="M-242.7,2076.8h-21v-65.5h-13.4v-17.6h34.4L-242.7,2076.8L-242.7,2076.8z"/>
	<path class="st0" d="M-198.2,2018.7l0.2,0.2c1-0.4,2.4-0.4,4-0.4c12,0,25.8,9.2,25.8,27.8c0,18.7-14.5,31.3-31.8,31.3
		c-10.3,0-19.9-3.8-25.4-11.1c-5.2-5.9-7-14.3-7-20.6c0-8.3,3.4-15.6,7.5-22l20.4-30h24.3L-198.2,2018.7z M-200.7,2059.2
		c6.2,0,11.5-4.5,11.5-11.1c0-5.3-4-11.2-11.5-11.2c-6.7,0-11.1,5.1-11.1,10.9C-211.8,2055.5-205.8,2059.2-200.7,2059.2z"/>
</g>
<path d="M-362.7,1097v212h212v-212H-362.7z"/>
<g>
	<path class="st0" d="M-331.9,1183.7c-0.3-2.2-0.9-6.2-5.9-6.2c-2.8,0-5.6,2-5.6,5c0,3.8,1.7,4.6,13.2,9.7
		c11.9,5.3,14.9,10.9,14.9,18.3c0,9.3-5.3,19.6-22.2,19.6c-18.4,0-23-12.1-23-20.3v-2.1h16.2c0,7.4,4.6,8.7,6.6,8.7
		c3.9,0,6.2-3.2,6.2-6.1c0-4.2-2.7-5.3-12.5-9.4c-4.5-1.8-15.6-6.3-15.6-18.3s11.6-18.8,22.3-18.8c6.3,0,13.1,2.3,17.2,7.2
		c3.8,4.7,4.1,9,4.2,12.6L-331.9,1183.7L-331.9,1183.7z"/>
	<path class="st0" d="M-308.4,1165.1h21.1c7.2,0,19.9,0,28.2,11.9c4.4,6,5.9,12.8,5.9,19.8c0,17.4-8.6,32.1-32.8,32.1h-22.3v-63.8
		H-308.4z M-292.1,1214.5h7c12.2,0,15.6-8.4,15.6-17.5c0-3.6-0.8-8.2-3.1-11.8c-1.9-2.8-5.2-5.9-12.4-5.9h-7.1V1214.5z"/>
	<path class="st0" d="M-327,1308.9h-16.3v-50.1h-10.4v-13.7h26.7L-327,1308.9L-327,1308.9z"/>
	<path class="st0" d="M-281,1264.3l0.2,0.2c0.8-0.3,1.9-0.3,3.1-0.3c9.3,0,20.1,7.2,20.1,21.6c0,14.6-11.3,24.3-24.7,24.3
		c-8,0-15.4-2.9-19.7-8.6c-4.1-4.6-5.4-11.1-5.4-16c0-6.5,2.7-12.2,5.9-17.1l15.9-23.3h18.9L-281,1264.3z M-282.9,1295.7
		c4.8,0,9-3.5,9-8.6c0-4.1-3.1-8.7-9-8.7c-5.2,0-8.6,4-8.6,8.4C-291.5,1292.8-286.9,1295.7-282.9,1295.7z"/>
</g>
<path d="M-362.7,1359v212h212v-212H-362.7z"/>
<g>
	<path class="st0" d="M-322.7,1393.7c-0.3-2.2-0.9-6.2-5.9-6.2c-2.8,0-5.6,2-5.6,5c0,3.8,1.7,4.6,13.2,9.7
		c11.9,5.3,14.9,10.9,14.9,18.3c0,9.3-5.3,19.6-22.2,19.6c-18.4,0-23-12.1-23-20.3v-2.1h16.2c0,7.4,4.6,8.7,6.6,8.7
		c3.9,0,6.2-3.2,6.2-6.1c0-4.2-2.7-5.3-12.5-9.4c-4.5-1.8-15.6-6.3-15.6-18.3s11.6-18.8,22.3-18.8c6.3,0,13.1,2.3,17.2,7.2
		c3.8,4.7,4.1,9,4.2,12.6L-322.7,1393.7L-322.7,1393.7z"/>
	<path class="st0" d="M-299.2,1375.1h21.1c7.2,0,19.9,0,28.2,11.9c4.4,6,5.9,12.8,5.9,19.8c0,17.4-8.6,32.1-32.8,32.1h-22.3v-63.8
		H-299.2z M-282.9,1424.5h7c12.2,0,15.6-8.4,15.6-17.5c0-3.6-0.8-8.2-3.1-11.8c-1.9-2.8-5.2-5.9-12.4-5.9h-7.1V1424.5z"/>
	<path class="st0" d="M-317.8,1518.8h-16.3v-50.1h-10.4V1455h26.7L-317.8,1518.8L-317.8,1518.8z"/>
	<path class="st0" d="M-271.9,1474.3l0.2,0.2c0.8-0.3,1.9-0.3,3.1-0.3c9.3,0,20.1,7.2,20.1,21.6c0,14.6-11.3,24.3-24.7,24.3
		c-8,0-15.4-2.9-19.7-8.6c-4.1-4.6-5.4-11.1-5.4-16c0-6.5,2.7-12.2,5.9-17.1l15.9-23.3h18.9L-271.9,1474.3z M-273.8,1505.7
		c4.8,0,9-3.5,9-8.6c0-4.1-3.1-8.7-9-8.7c-5.2,0-8.6,4-8.6,8.4C-282.4,1502.8-277.7,1505.7-273.8,1505.7z"/>
</g>
<g>
	<path class="st0" d="M-247.3,412.8c-0.3-2-0.8-5.7-5.4-5.7c-2.6,0-5.2,1.8-5.2,4.6c0,3.5,1.6,4.2,12.2,9c11,4.9,13.8,10,13.8,16.9
		c0,8.6-4.9,18.1-20.6,18.1c-17.1,0-21.3-11.2-21.3-18.7v-1.9h15c0,6.9,4.2,8.1,6.1,8.1c3.6,0,5.7-3,5.7-5.7c0-3.9-2.5-4.9-11.6-8.7
		c-4.1-1.7-14.4-5.8-14.4-16.9c0-11.1,10.8-17.4,20.6-17.4c5.8,0,12.1,2.2,15.9,6.7c3.5,4.3,3.7,8.3,3.9,11.6L-247.3,412.8
		L-247.3,412.8z"/>
	<path class="st0" d="M-196,394.4c18.2,0,31.2,14.2,31.2,30.6s-12.9,30.6-31.3,30.6c-18.6,0-31-14.8-31-29.9c0-3.9,0.6-8.3,2.3-12.6
		C-221.7,405.5-212.5,394.4-196,394.4z M-195.8,442.4c10.7,0,15.9-9.7,15.9-17.3c0-7.7-5.2-17.5-16-17.5c-10.4,0-16.1,8.9-16.1,17.2
		C-212.1,434-205.9,442.4-195.8,442.4z"/>
	<path class="st0" d="M-98,432.5c-3.4,14-15.5,23.2-29.8,23.2c-18.5,0-31.1-14.8-31.1-30.7c0-15.1,11.6-30.5,30.9-30.5
		c18.5,0,28.4,14.3,30,23.5h-15.8c-1.7-4.4-6.1-10.3-14.3-10.3c-10.1,0-15.8,8.8-15.8,17.2c0,8.9,6.1,17.5,15.9,17.5
		c9.4,0,13.2-7.9,14.2-10H-98V432.5z"/>
	<path class="st0" d="M-90.1,395.6H-75v59h-15.1V395.6z"/>
	<path class="st0" d="M-49.5,446l-3.1,8.5h-16.2l23.7-59h11.9l23.4,59h-16.3L-29,446C-29,446-49.5,446-49.5,446z M-45.3,434.1H-33
		l-6-20.2h-0.1h-0.2L-45.3,434.1z"/>
	<path class="st0" d="M-3.2,395.6h15.1v45.8h17.5v13.2H-3.2V395.6z"/>
	<path class="st0" d="M59.4,395.6H79c6.6,0,18.4,0,26.1,11c4.1,5.6,5.4,11.9,5.4,18.3c0,16.1-8,29.7-30.4,29.7H59.5v-59H59.4z
		 M74.5,441.3H81c11.2,0,14.4-7.8,14.4-16.2c0-3.3-0.7-7.6-2.9-10.9c-1.8-2.6-4.8-5.4-11.5-5.4h-6.5V441.3z"/>
	<path class="st0" d="M119.5,395.6h15.1v59h-15.1V395.6z"/>
	<path class="st0" d="M205.7,421c0.1,1,0.1,1.9,0.1,3.1c0,19.8-15.1,31.7-31.5,31.7c-17.9,0-31.3-14-31.3-30.9
		c0-17.6,14.2-30.4,31.6-30.4c14.1,0,26.2,9.5,29.5,20.9h-16.9c-2.3-4.1-6.6-7.7-13-7.7c-7.4,0-16.1,5.5-16.1,17.1
		c0,12.4,8.8,17.7,16.2,17.7c7.5,0,12.5-3.7,14.1-9.5h-17.6v-12H205.7z"/>
	<path class="st0" d="M213.7,395.6h15.1v59h-15.1V395.6z"/>
	<path class="st0" d="M246.7,408.8h-11.6v-13.2h38.3v13.2h-11.6v45.8h-15.1L246.7,408.8L246.7,408.8z"/>
	<path class="st0" d="M292.2,446l-3.1,8.5h-16.2l23.7-59h11.9l23.4,59h-16.3l-2.9-8.5C312.7,446,292.2,446,292.2,446z M296.4,434.1
		h12.4l-6.1-20.2h-0.1h-0.2L296.4,434.1z"/>
	<path class="st0" d="M338.6,395.6h15.1v45.8h17.5v13.2h-32.5v-59H338.6z"/>
	<path class="st0" d="M442.3,441.9v12.7h-41.6v-11.7c7.4-4.9,12.4-8.1,18-14.4c1.8-2.1,8.1-9.1,8.1-15.1c0-2.4-1.4-5.7-5.6-5.7
		c-5.9,0-6.5,5.9-6.8,9.3H400c0.2-3.8,0.3-8.7,3.5-13.6c5-7.8,13.9-9,18.2-9c13.2,0,20.1,8.8,20.1,17.1c0,12.5-10.3,22.1-19.6,30.3
		L442.3,441.9L442.3,441.9z"/>
	<path class="st0" d="M448.7,416.8c0-17.1,13.8-22.4,22.2-22.4c7.6,0,21.8,4.9,21.8,22.4v16.4c0,16.4-12.5,22.4-21.8,22.4
		c-8.7,0-22.2-5.7-22.2-22.4V416.8z M463.7,433.7c0,3.5,1.1,8.8,6.9,8.8c6.9,0,6.9-7,6.9-8.8v-17.3c0-1.8,0-8.8-6.9-8.8
		c-6,0-6.9,5.6-6.9,8.8V433.7z"/>
	<path class="st0" d="M522.9,454.6h-15.1v-46.3h-9.6v-12.7h24.7L522.9,454.6L522.9,454.6z"/>
	<path class="st0" d="M556,413.3l0.2,0.2c0.7-0.3,1.8-0.3,2.9-0.3c8.6,0,18.6,6.6,18.6,20c0,13.5-10.4,22.5-22.9,22.5
		c-7.4,0-14.3-2.7-18.3-8c-3.7-4.2-5-10.3-5-14.8c0-6,2.5-11.2,5.4-15.8l14.7-21.5H569L556,413.3z M554.2,442.4c4.5,0,8.3-3.3,8.3-8
		c0-3.8-2.9-8.1-8.3-8.1c-4.8,0-8,3.7-8,7.8C546.3,439.7,550.6,442.4,554.2,442.4z"/>
</g>
<polygon points="237.1,609.8 236.9,609.8 230.9,630 243.2,630 237.2,609.8 "/>
<path d="M80.8,603.7c-9.6,0-16.1,8-16.1,17.2c0,9.4,6.5,17.5,16.3,17.5c9.5,0,15.9-8.3,15.9-17.3C96.9,612,90.5,603.7,80.8,603.7z"
	/>
<path d="M-55,550.4V785h382V550.4H-55z"/>
<g>
	<path class="st0" d="M5.3,608.8c-0.3-2-0.8-5.7-5.4-5.7c-2.6,0-5.2,1.8-5.2,4.6c0,3.5,1.6,4.2,12.2,9c11,4.9,13.8,10,13.8,16.9
		c0,8.6-4.9,18.1-20.6,18.1c-17.1,0-21.3-11.2-21.3-18.7v-1.9h15c0,6.9,4.2,8.1,6.1,8.1c3.6,0,5.7-3,5.7-5.7c0-3.9-2.5-4.9-11.6-8.7
		c-4.1-1.7-14.4-5.8-14.4-16.9s10.9-17.5,20.8-17.5c5.8,0,12.1,2.2,15.9,6.7c3.5,4.3,3.7,8.3,3.9,11.6H5.3V608.8z"/>
	<path class="st0" d="M56.7,590.4c18.2,0,31.2,14.2,31.2,30.6c0,16.4-12.9,30.6-31.3,30.6c-18.6,0-31-14.8-31-29.9
		c0-3.9,0.6-8.3,2.3-12.6C31,601.5,40.2,590.4,56.7,590.4z M56.8,638.4c10.7,0,15.9-9.7,15.9-17.3c0-7.7-5.2-17.5-16-17.5
		c-10.4,0-16.1,8.9-16.1,17.2C40.6,630,46.8,638.4,56.8,638.4z"/>
	<path class="st0" d="M154.6,628.5c-3.4,14-15.5,23.2-29.8,23.2c-18.5,0-31.1-14.8-31.1-30.7c-0.1-15.1,11.6-30.6,30.9-30.6
		c18.5,0,28.4,14.3,30,23.5h-15.8c-1.7-4.4-6.1-10.3-14.3-10.3c-10.1,0-15.8,8.8-15.8,17.2c0,8.9,6.1,17.5,15.9,17.5
		c9.4,0,13.2-7.9,14.2-10h15.8V628.5z"/>
	<path class="st0" d="M162.5,591.6h15.1v59h-15.1V591.6z"/>
	<path class="st0" d="M203.1,642l-3.1,8.5h-16.2l23.7-59h11.9l23.4,59h-16.3l-2.9-8.5H203.1z M207.4,630.1h12.3l-6-20.2h-0.1h-0.2
		L207.4,630.1z"/>
	<path class="st0" d="M249.4,591.6h15.1v45.8H282v13.2h-32.5v-59H249.4z"/>
	<path class="st0" d="M-18.6,687.2H1c6.6,0,18.4,0,26.1,11c4.1,5.6,5.4,11.9,5.4,18.3c0,16.1-8,29.7-30.4,29.7h-20.6V687.2z
		 M-3.4,733h6.5c11.2,0,14.4-7.8,14.4-16.2c0-3.3-0.7-7.6-2.9-10.9c-1.8-2.6-4.8-5.4-11.5-5.4h-6.5V733z"/>
	<path class="st0" d="M41.6,687.2h15.1v59H41.6V687.2z"/>
	<path class="st0" d="M127.7,712.7c0.1,1,0.1,1.9,0.1,3.1c0,19.8-15.1,31.7-31.5,31.7c-17.9,0-31.3-14-31.3-30.9
		c0-17.6,14.2-30.4,31.6-30.4c14.1,0,26.2,9.5,29.5,20.9h-16.9c-2.3-4.1-6.6-7.7-13-7.7c-7.4,0-16.1,5.5-16.1,17.1
		c0,12.4,8.8,17.7,16.2,17.7c7.5,0,12.5-3.7,14.1-9.5H92.7v-12L127.7,712.7L127.7,712.7z"/>
	<path class="st0" d="M135.8,687.2h15.1v59h-15.1V687.2z"/>
	<path class="st0" d="M168.8,700.5h-11.6v-13.2h38.3v13.2h-11.6v45.8h-15.1L168.8,700.5L168.8,700.5z"/>
	<path class="st0" d="M214.2,737.7l-3.1,8.5h-16.2l23.7-59h11.9l23.4,59h-16.3l-2.9-8.5H214.2z M218.4,725.7h12.4l-6.1-20.2l0,0
		h-0.2L218.4,725.7z"/>
	<path class="st0" d="M260.5,687.2h15.1V733h17.5v13.2h-32.5v-59H260.5z"/>
</g>
<g>
	<path d="M778.3,411.9c-0.3-2-0.8-5.7-5.4-5.7c-2.6,0-5.2,1.8-5.2,4.6c0,3.5,1.6,4.2,12.2,9c11,4.9,13.8,10,13.8,16.9
		c0,8.6-4.9,18.1-20.6,18.1c-17.1,0-21.3-11.2-21.3-18.7v-1.9h15c0,6.9,4.2,8.1,6.1,8.1c3.6,0,5.7-3,5.7-5.7c0-3.9-2.5-4.9-11.6-8.7
		c-4.1-1.7-14.4-5.8-14.4-16.9c0-11.1,10.8-17.4,20.6-17.4c5.8,0,12.1,2.2,15.9,6.7c3.5,4.3,3.7,8.3,3.9,11.6L778.3,411.9
		L778.3,411.9z"/>
	<path d="M829.6,393.5c18.2,0,31.2,14.2,31.2,30.6c0,16.4-12.9,30.6-31.3,30.6c-18.6,0-31-14.8-31-29.9c0-3.9,0.6-8.3,2.3-12.6
		C803.9,404.6,813.1,393.5,829.6,393.5z M829.8,441.5c10.7,0,15.9-9.7,15.9-17.3c0-7.7-5.2-17.5-16-17.5c-10.4,0-16.1,8.9-16.1,17.2
		C813.6,433.1,819.7,441.5,829.8,441.5z"/>
	<path d="M927.6,431.6c-3.4,14-15.5,23.2-29.8,23.2c-18.5,0-31.1-14.8-31.1-30.7c0-15.1,11.6-30.5,30.9-30.5
		c18.5,0,28.4,14.3,30,23.5h-15.8c-1.7-4.4-6.1-10.3-14.3-10.3c-10.1,0-15.8,8.8-15.8,17.2c0,8.9,6.1,17.5,15.9,17.5
		c9.4,0,13.2-7.9,14.2-10h15.8V431.6z"/>
	<path d="M935.6,394.6h15.1v59h-15.1V394.6z"/>
	<path d="M976.1,445.1l-3.1,8.5h-16.2l23.7-59h11.9l23.4,59h-16.3l-2.9-8.5H976.1z M980.3,433.2h12.4l-6.1-20.2h-0.1h-0.2
		L980.3,433.2z"/>
	<path d="M1022.5,394.6h15.1v45.8h17.5v13.2h-32.5L1022.5,394.6L1022.5,394.6z"/>
	<path d="M1085.1,394.6h19.5c6.6,0,18.4,0,26.1,11c4.1,5.6,5.4,11.9,5.4,18.3c0,16.1-8,29.7-30.4,29.7h-20.6V394.6z M1100.1,440.4
		h6.5c11.2,0,14.4-7.8,14.4-16.2c0-3.3-0.7-7.6-2.9-10.9c-1.8-2.6-4.8-5.4-11.5-5.4h-6.5V440.4z"/>
	<path d="M1145.2,394.6h15.1v59h-15.1V394.6z"/>
	<path d="M1231.3,420.1c0.1,1,0.1,1.9,0.1,3.1c0,19.8-15.1,31.7-31.5,31.7c-17.9,0-31.3-14-31.3-30.9c0-17.6,14.2-30.4,31.6-30.4
		c14.1,0,26.2,9.5,29.5,20.9h-16.9c-2.3-4.1-6.6-7.7-13-7.7c-7.4,0-16.1,5.5-16.1,17.1c0,12.4,8.8,17.7,16.2,17.7
		c7.5,0,12.5-3.7,14.1-9.5h-17.6v-12H1231.3z"/>
	<path d="M1239.3,394.6h15.1v59h-15.1V394.6z"/>
	<path d="M1272.3,407.9h-11.6v-13.2h38.3v13.2h-11.6v45.8h-15.1L1272.3,407.9L1272.3,407.9z"/>
	<path d="M1317.9,445.1l-3.1,8.5h-16.2l23.7-59h11.9l23.4,59h-16.3l-2.9-8.5H1317.9z M1322,433.2h12.4l-6.1-20.2h-0.1h-0.2
		L1322,433.2z"/>
	<path d="M1364.2,394.6h15.1v45.8h17.5v13.2h-32.5L1364.2,394.6L1364.2,394.6z"/>
	<path d="M1467.9,441v12.7h-41.6V442c7.4-4.9,12.4-8.1,18-14.4c1.8-2.1,8.1-9.1,8.1-15.1c0-2.4-1.4-5.7-5.6-5.7
		c-5.9,0-6.5,5.9-6.8,9.3h-14.4c0.2-3.8,0.3-8.7,3.5-13.6c5-7.8,13.9-9,18.2-9c13.2,0,20.1,8.8,20.1,17.1
		c0,12.5-10.3,22.1-19.6,30.3h20.1V441z"/>
	<path d="M1474.3,415.9c0-17.1,13.8-22.4,22.2-22.4c7.6,0,21.8,4.9,21.8,22.4v16.4c0,16.4-12.5,22.4-21.8,22.4
		c-8.7,0-22.2-5.7-22.2-22.4V415.9z M1489.4,432.8c0,3.5,1.1,8.8,6.9,8.8c6.9,0,6.9-7,6.9-8.8v-17.2c0-1.8,0-8.8-6.9-8.8
		c-6,0-6.9,5.6-6.9,8.8V432.8z"/>
	<path d="M1548.5,453.6h-15.1v-46.3h-9.6v-12.7h24.7V453.6z"/>
	<path d="M1581.6,412.4l0.2,0.2c0.7-0.3,1.8-0.3,2.9-0.3c8.6,0,18.6,6.6,18.6,20c0,13.5-10.4,22.5-22.9,22.5c-7.4,0-14.3-2.7-18.3-8
		c-3.7-4.2-5-10.3-5-14.8c0-6,2.5-11.2,5.4-15.8l14.7-21.5h17.5L1581.6,412.4z M1579.9,441.5c4.5,0,8.3-3.3,8.3-8
		c0-3.8-2.9-8.1-8.3-8.1c-4.8,0-8,3.7-8,7.8C1571.9,438.8,1576.2,441.5,1579.9,441.5z"/>
</g>
</svg>
