<?xml version="1.0" encoding="utf-8"?>
<!-- Generator: Adobe Illustrator 19.1.0, SVG Export Plug-In . SVG Version: 6.00 Build 0)  -->
<svg version="1.1" id="Layer_1" xmlns="http://www.w3.org/2000/svg" xmlns:xlink="http://www.w3.org/1999/xlink" x="0px" y="0px"
	 width="760.8px" height="138.2px" viewBox="115.6 337.8 760.8 138.2" style="enable-background:new 115.6 337.8 760.8 138.2;"
	 xml:space="preserve">
<style type="text/css">
	.st0{fill:#FFFFFF;}
</style>
<rect x="149.1" y="102.7" class="st0" width="696" height="90"/>
<polygon points="408.5,133.8 408.4,133.8 402.3,154 414.7,154 408.6,133.8 "/>
<polygon points="753.6,133.9 753.4,133.9 747.3,154.1 759.7,154.1 "/>
<path d="M252.3,127.7c-9.6,0-16.1,8-16.1,17.2c0,9.4,6.5,17.5,16.3,17.5c9.5,0,15.9-8.3,15.9-17.3
	C268.3,136,261.9,127.7,252.3,127.7z"/>
<path d="M532.9,128.8h-6.5v32.5h6.5c10.3,0,14.4-6.6,14.4-16.2C547.3,135.7,543,128.8,532.9,128.8z"/>
<path d="M116.4,74.4v138.2h760.8V74.4H116.4z M196,175.7c-11.9,0-21.3-6.1-21.3-18.7v-1.9h15c0,3.8,1.8,8,6.1,8
	c3.1,0,5.7-2.5,5.7-5.7c0-3.8-3.2-5.1-6.3-6.5c-1.8-0.8-3.5-1.5-5.3-2.2c-7.6-3.2-14.4-7.6-14.4-16.9c0-11,10.6-17.4,20.6-17.4
	c5.7,0,12.2,2.2,15.9,6.7c3,3.7,3.7,7,3.9,11.6h-14.8c-0.5-3.3-1.6-5.7-5.4-5.7c-2.6,0-5.2,1.8-5.2,4.6c0,0.9,0.1,1.8,0.6,2.5
	c1.4,2.4,9.2,5.4,11.6,6.5c7.8,3.6,13.8,7.6,13.8,16.9C216.5,169.9,207.6,175.7,196,175.7z M252.1,175.7c-16.7,0-31-12.9-31-29.9
	c0-4.4,0.7-8.5,2.3-12.6c0.9-2.3,2.3-4.6,3.8-6.6c6.1-8,14.9-12.1,24.9-12.1c17.2,0,31.2,13.2,31.2,30.6
	C283.4,162.5,269.4,175.7,252.1,175.7z M320,162.4c6.6,0,11.6-4.1,14.2-10H350c-3.4,13.9-15.5,23.2-29.8,23.2
	c-17.1,0-31.1-13.4-31.1-30.7c0-17.3,13.8-30.5,30.9-30.5c10.7,0,20.1,4.9,26,13.9c1.9,2.9,3.4,6.2,4,9.6h-15.8
	c-2.3-6.1-7.6-10.3-14.3-10.3c-9.6,0-15.8,8.1-15.8,17.2C304.2,154,310.4,162.4,320,162.4z M372.8,174.5h-15.1v-59h15.1V174.5z
	 M421.5,174.5l-2.9-8.5h-20.5l-3.1,8.5h-16.2l23.7-59h11.9l23.4,59H421.5z M476.8,174.5h-32.5v-59h15.1v45.7h17.4V174.5z M532,174.5
	h-20.6v-59h19.5c10.7,0,19.4,1.8,26.1,11c3.8,5.3,5.4,11.8,5.4,18.3C562.3,164.3,551.2,174.5,532,174.5z M584.7,174.5h-15.1v-59
	h15.1V174.5z M625.7,175.7c-17.4,0-31.3-13.5-31.3-30.9c0-17.7,14.3-30.4,31.6-30.4c12.7,0,25.9,8.3,29.5,20.9h-16.9
	c-2.7-4.9-7.4-7.6-13-7.6c-9.6,0-16.1,7.8-16.1,17.1c0,9.6,6.1,17.7,16.2,17.7c6.5,0,12.3-2.9,14.1-9.5h-17.6v-12h35
	c0.1,1,0.1,2.1,0.1,3.1C657.2,162.2,643.8,175.7,625.7,175.7z M680.1,174.5H665v-59h15.1V174.5z M714.5,174.5h-15.1v-45.7h-11.6
	v-13.2H726v13.2h-11.6L714.5,174.5L714.5,174.5z M766.5,174.5l-2.9-8.5h-20.5l-3.1,8.5h-16.2l23.7-59h11.9l23.4,59H766.5z
	 M820.2,174.5h-32.5v-59h15.1v45.7h17.4V174.5z"/>
<rect x="199.1" y="4.7" class="st0" width="108" height="28"/>
<g>
	<path d="M261.4,12.3h-1.2v4.8h1.1c0.6,0,1.4,0,1.8-0.4c0.5-0.4,0.7-1.1,0.7-2.4C263.8,12.7,262.7,12.3,261.4,12.3z"/>
	<path d="M246.6,12.2c-1.1,0-1.9,0.2-2.5,0.7c-0.7,0.7-1.1,3-1.1,4.7c0,3.2,1.4,5.1,4.1,5.1c1.1,0,1.9-0.2,2.5-0.7
		c0.7-0.7,1.1-3,1.1-4.7C250.6,14.1,249.2,12.2,246.6,12.2z"/>
	<path d="M191.5-2.5v39.1h44.9l16.5,8.2l16.5-8.2h44.9V-2.5H191.5z M219.4,19.1h-1.1V22c0,0.5,0.1,0.7,0.6,0.7l1.3,0.2v1.6h-5.9
		v-1.6l0.9-0.2c0.5-0.1,0.6-0.3,0.6-0.7v-9.2c0-0.5-0.1-0.6-0.6-0.7l-0.9-0.2v-1.6h5.4c2.9,0,4.9,0.7,4.9,3.7
		C224.5,17.2,221.9,19.1,219.4,19.1z M226.9,24.5v-1.6l0.9-0.2c0.5-0.1,0.6-0.3,0.6-0.7v-9.3c0-0.5-0.1-0.7-0.6-0.8l-0.9-0.1v-1.5
		h10.4l-0.1,3.9h-1.7l-0.1-1.3c-0.1-0.5-0.3-0.6-0.7-0.6H231V16h4.1v2H231v4.3h3.7c0.5,0,0.7-0.1,0.7-0.6l0.1-1.4h1.7l0.1,4h-10.4
		V24.5z M246.4,24.7c-4.4,0-6.1-3-6.1-7.3c0-3.7,1.9-7.3,7-7.3c4.4,0,6.1,3,6.1,7.3C253.3,21.1,251.4,24.7,246.4,24.7z M261.4,19.1
		h-1.1V22c0,0.5,0.1,0.7,0.6,0.7l1.3,0.2v1.6h-5.9v-1.6l0.9-0.2c0.5-0.1,0.6-0.3,0.6-0.7v-9.2c0-0.5-0.1-0.6-0.6-0.7l-0.9-0.2v-1.6
		h5.4c2.9,0,4.9,0.7,4.9,3.7C266.5,17.2,263.9,19.1,261.4,19.1z M268.8,24.5v-1.6l0.9-0.2c0.5-0.1,0.6-0.3,0.6-0.7v-9.2
		c0-0.5-0.1-0.6-0.6-0.7l-0.9-0.2v-1.6h5.7v1.6l-1.1,0.2c-0.5,0.1-0.6,0.3-0.6,0.7v9.6h3c0.5,0,0.7-0.1,0.7-0.6l0.1-1.4h1.7l0.1,4
		h-9.6V24.5z M281,24.5v-1.6l0.9-0.2c0.5-0.1,0.6-0.3,0.6-0.7v-9.3c0-0.5-0.1-0.7-0.6-0.8l-0.9-0.1v-1.5h10.4l-0.1,3.9h-1.7
		l-0.1-1.3c-0.1-0.5-0.3-0.6-0.7-0.6H285V16h4.1v2H285v4.3h3.7c0.5,0,0.7-0.1,0.7-0.6l0.1-1.4h1.7l0.1,4H281V24.5z"/>
	<path d="M219.4,12.3h-1.2v4.8h1.1c0.6,0,1.4,0,1.8-0.4c0.5-0.4,0.7-1.1,0.7-2.4C221.8,12.7,220.7,12.3,219.4,12.3z"/>
</g>
<path d="M354.4,26.2v-7.1h-6.5V15h6.5V8h4.3v7h6.7v4.1h-6.7v7.1H354.4z"/>
<path d="M561.9,26.2v-7.1h-6.5V15h6.5V8h4.3v7h6.7v4.1h-6.7v7.1H561.9z"/>
<rect x="409.1" y="4.7" class="st0" width="108" height="28"/>
<g>
	<path d="M399-2.5v39.1h44.9l16.5,8.2l16.5-8.2h44.9V-2.5H399z M426.8,24.6h-6.2V23l0.9-0.2c0.5-0.1,0.6-0.3,0.6-0.8v-9.2
		c0-0.5-0.1-0.7-0.6-0.8l-0.9-0.1v-1.5h6.2c4.6,0,6.4,2.6,6.4,6.9C433.2,21.4,431.3,24.6,426.8,24.6z M436.1,24.6V23l0.9-0.2
		c0.5-0.1,0.6-0.3,0.6-0.7v-9.3c0-0.5-0.1-0.7-0.6-0.8l-0.9-0.1v-1.5h10.4l-0.1,3.9h-1.7l-0.1-1.3c-0.1-0.5-0.3-0.6-0.7-0.6h-3.7
		v3.7h4.1v2h-4.1v4.3h3.7c0.5,0,0.7-0.1,0.7-0.6l0.1-1.4h1.7l0.1,4h-10.4V24.6z M454,24.8c-2,0-3-0.4-4.4-0.9l0.2-3.4h2l0.3,1.8
		c0.6,0.4,1.2,0.6,2.4,0.6c1.3,0,2.4-0.6,2.4-1.9c0-1-0.4-1.5-2-2.1l-2.4-0.9c-1.6-0.6-2.7-1.9-2.7-4c0-2.2,1.6-3.7,4.8-3.7
		c1.5,0,2.9,0.2,4.3,0.5l-0.3,3.2h-1.9l-0.3-1.6c-0.7-0.3-1.4-0.4-2.1-0.4c-1.2,0-1.9,0.5-1.9,1.7c0,1,0.5,1.7,1.8,2.2l1.7,0.6
		c1.9,0.7,3.6,1.5,3.6,4.1C459.4,23,457.5,24.8,454,24.8z M467.8,12l-0.9,0.2c-0.5,0.1-0.6,0.3-0.6,0.7v9.2c0,0.5,0.1,0.6,0.6,0.7
		l0.9,0.2v1.6h-5.5V23l0.9-0.2c0.5-0.1,0.6-0.3,0.6-0.7v-9.2c0-0.5-0.1-0.6-0.6-0.7l-0.9-0.2v-1.6h5.5V12z M483.3,19.5l-0.7,0.1
		c-0.5,0.1-0.5,0.2-0.5,0.7v3.2c-1.1,0.5-2.9,1.2-5.2,1.2c-4.4,0-6.2-2.6-6.2-7.1c0-4.1,2-7.4,6.7-7.4c1.3,0,2.8,0.1,4.8,1.1
		l-0.3,3.4H480l-0.4-2c-0.9-0.3-1.5-0.5-2.8-0.5c-1.2,0-1.8,0.3-2.3,0.7c-0.7,0.6-1.1,3.2-1.1,4.6c0,2.9,1.1,5.2,3.8,5.2
		c0.9,0,1.6-0.1,2.4-0.4v-1.9c0-0.5-0.1-0.7-0.6-0.7l-1-0.2v-1.6h5.2L483.3,19.5L483.3,19.5z M500.4,12l-0.9,0.1
		c-0.5,0.1-0.6,0.3-0.6,0.8v11.7h-2.6l-6-9.7v7.2c0,0.5,0.1,0.7,0.6,0.7l0.9,0.2v1.6h-5.5V23l0.9-0.2c0.5-0.1,0.6-0.3,0.6-0.7v-9.2
		c0-0.5-0.1-0.7-0.6-0.8l-0.9-0.1v-1.6h4.1l6,9.7v-7.2c0-0.5-0.1-0.7-0.6-0.8l-0.9-0.1v-1.6h5.5V12z"/>
	<path d="M426.6,12.4h-2v10.1h2c2.7,0,3.9-1.5,3.9-5.3C430.5,13.6,429.3,12.4,426.6,12.4z"/>
</g>
<rect x="617.1" y="4.7" class="st0" width="173" height="28"/>
<g>
	<path d="M711.6,22.7c1.1,0,1.9-0.2,2.5-0.7c0.7-0.7,1.1-3,1.1-4.7c0-3.2-1.4-5.1-4.1-5.1c-1.1,0-1.9,0.2-2.5,0.7
		c-0.7,0.7-1.1,3-1.1,4.7C707.5,20.8,708.9,22.7,711.6,22.7z"/>
	<path d="M799.3-2.5H606.5v39.1h79.9l16.5,8.2l16.5-8.2h79.9L799.3-2.5L799.3-2.5z M711.8,10.2c4.4,0,6.1,3,6.1,7.3
		c0,3.7-1.9,7.3-7,7.3c-4.4,0-6.1-3-6.1-7.3C704.8,13.8,706.8,10.2,711.8,10.2z M688.1,23l0.9-0.2c0.5-0.1,0.6-0.3,0.6-0.7v-9.2
		c0-0.5-0.1-0.7-0.6-0.8l-0.9-0.1v-1.6h4.1l6,9.7v-7.2c0-0.5-0.1-0.7-0.6-0.8l-0.9-0.1v-1.6h5.5V12l-0.9,0.1
		c-0.5,0.1-0.6,0.3-0.6,0.8v11.7h-2.6l-6-9.7v7.2c0,0.5,0.1,0.7,0.6,0.7l0.9,0.2v1.6h-5.5V23z M641,14.3h-1.7l-0.1-1.3
		c-0.1-0.5-0.3-0.6-0.7-0.6h-2v9.7c0,0.5,0.1,0.7,0.6,0.7l1,0.2v1.6h-5.7V23l1-0.2c0.5-0.1,0.6-0.3,0.6-0.7v-9.7h-2
		c-0.5,0-0.7,0.1-0.7,0.6l-0.1,1.3h-1.7l-0.1-3.9h11.9L641,14.3z M643.5,24.6V23l0.9-0.2c0.5-0.1,0.6-0.3,0.6-0.7v-9.3
		c0-0.5-0.1-0.7-0.6-0.8l-0.9-0.1v-1.5h10.4l-0.1,3.9h-1.7L652,13c-0.1-0.5-0.3-0.6-0.7-0.6h-3.7v3.7h4.1v2h-4.1v4.3h3.7
		c0.5,0,0.7-0.1,0.7-0.6l0.1-1.4h1.7l0.1,4h-10.4V24.6z M663.1,24.8c-4.3,0-6.2-2.6-6.2-7.1c0-4.1,2-7.4,6.7-7.4
		c1.3,0,2.6,0.1,4.6,1.1l-0.3,3.4H666l-0.4-2.1c-0.8-0.3-1.4-0.4-2.6-0.4c-1.2,0-1.8,0.3-2.3,0.7c-0.7,0.6-1.1,3.2-1.1,4.6
		c0,3.1,1.3,5.1,3.9,5.1c1.8,0,3.8-0.6,4.3-0.8l0.5,1.7C667.8,23.8,665.5,24.8,663.1,24.8z M675.3,18.2v3.9c0,0.5,0.1,0.7,0.6,0.7
		l1,0.2v1.6h-5.6V23l0.9-0.2c0.5-0.1,0.6-0.3,0.6-0.7v-9.2c0-0.5-0.1-0.6-0.6-0.7l-0.9-0.2v-1.6h5.6V12l-1,0.2
		c-0.5,0.1-0.6,0.3-0.6,0.7v3.3h5.7v-3.3c0-0.5-0.1-0.7-0.6-0.7l-1-0.2v-1.6h5.6V12l-0.9,0.2c-0.5,0.1-0.6,0.3-0.6,0.7v9.2
		c0,0.5,0.1,0.6,0.6,0.7L685,23v1.6h-5.6V23l1-0.2c0.5-0.1,0.6-0.3,0.6-0.7v-3.9H675.3z M720.8,24.6V23l0.9-0.2
		c0.5-0.1,0.6-0.3,0.6-0.7v-9.2c0-0.5-0.1-0.6-0.6-0.7l-0.9-0.2v-1.6h5.7V12l-1.1,0.2c-0.5,0.1-0.6,0.3-0.6,0.7v9.6h3
		c0.5,0,0.7-0.1,0.7-0.6l0.1-1.4h1.7l0.1,4h-9.6V24.6z M738.8,24.8c-4.4,0-6.1-3-6.1-7.3c0-3.7,1.9-7.3,7-7.3c4.4,0,6.1,3,6.1,7.3
		C745.7,21.2,743.8,24.8,738.8,24.8z M761,19.5l-0.7,0.1c-0.5,0.1-0.5,0.2-0.5,0.7v3.2c-1.1,0.5-2.9,1.2-5.2,1.2
		c-4.4,0-6.2-2.6-6.2-7.1c0-4.1,2-7.4,6.7-7.4c1.3,0,2.8,0.1,4.8,1.1l-0.3,3.4h-1.9l-0.4-2c-0.9-0.3-1.5-0.5-2.8-0.5
		c-1.2,0-1.8,0.3-2.3,0.7c-0.7,0.6-1.1,3.2-1.1,4.6c0,2.9,1.1,5.2,3.8,5.2c0.9,0,1.6-0.1,2.4-0.4v-1.9c0-0.5-0.1-0.7-0.6-0.7l-1-0.2
		v-1.6h5.2L761,19.5L761,19.5z M776.8,12l-0.9,0.1c-0.6,0.1-0.7,0.3-1,0.8l-3.8,7v2.2c0,0.5,0.1,0.7,0.6,0.7l1,0.2v1.6H767V23l1-0.2
		c0.5-0.1,0.6-0.3,0.6-0.7v-2.4l-3.7-6.8c-0.3-0.6-0.5-0.8-1-0.8L763,12v-1.6h5.8v1.5l-0.7,0.1c-0.4,0.1-0.6,0.1-0.6,0.4
		c0,0.1,0.1,0.3,0.2,0.5l2.4,4.6l2.3-4.6c0.1-0.2,0.1-0.3,0.1-0.4c0-0.2-0.2-0.3-0.7-0.4l-0.7-0.1v-1.6h5.6V12H776.8z"/>
	<path d="M739,12.3c-1.1,0-1.9,0.2-2.5,0.7c-0.7,0.7-1.1,3-1.1,4.7c0,3.2,1.4,5.1,4.1,5.1c1.1,0,1.9-0.2,2.5-0.7
		c0.7-0.7,1.1-3,1.1-4.7C743,14.2,741.6,12.3,739,12.3z"/>
</g>
<polygon points="407.7,397.2 407.5,397.2 401.4,417.4 413.8,417.4 "/>
<polygon points="752.7,397.3 752.5,397.3 746.4,417.5 758.8,417.5 "/>
<path d="M251.4,391.1c-9.6,0-16.1,8-16.1,17.2c0,9.4,6.5,17.5,16.3,17.5c9.5,0,15.9-8.3,15.9-17.3
	C267.4,399.4,261,391.1,251.4,391.1z"/>
<path d="M532,392.2h-6.5v32.5h6.5c10.3,0,14.4-6.6,14.4-16.2C546.4,399.1,542.1,392.2,532,392.2z"/>
<path d="M115.6,337.8V476h760.8V337.8H115.6z M195.1,439.1c-11.9,0-21.3-6.1-21.3-18.7v-1.9h15c0,3.8,1.8,8,6.1,8
	c3.1,0,5.7-2.5,5.7-5.7c0-3.8-3.2-5.1-6.3-6.5c-1.8-0.8-3.5-1.5-5.3-2.2c-7.6-3.2-14.4-7.6-14.4-16.9c0-11,10.6-17.4,20.6-17.4
	c5.7,0,12.2,2.2,15.9,6.7c3,3.7,3.7,7,3.9,11.6h-14.8c-0.5-3.3-1.6-5.7-5.4-5.7c-2.6,0-5.2,1.8-5.2,4.6c0,0.9,0.1,1.8,0.6,2.5
	c1.4,2.4,9.2,5.4,11.6,6.5c7.8,3.6,13.8,7.6,13.8,16.9C215.6,433.3,206.7,439.1,195.1,439.1z M251.2,439.1c-16.7,0-31-12.9-31-29.9
	c0-4.4,0.7-8.5,2.3-12.6c0.9-2.3,2.3-4.6,3.8-6.6c6.1-8,14.9-12.1,24.9-12.1c17.2,0,31.2,13.2,31.2,30.6
	C282.5,425.9,268.5,439.1,251.2,439.1z M319.1,425.8c6.6,0,11.6-4.1,14.2-10h15.8c-3.4,13.9-15.5,23.2-29.8,23.2
	c-17.1,0-31.1-13.4-31.1-30.7s13.8-30.5,30.9-30.5c10.7,0,20.1,4.9,26,13.9c1.9,2.9,3.4,6.2,4,9.6h-15.8
	c-2.3-6.1-7.6-10.3-14.3-10.3c-9.6,0-15.8,8.1-15.8,17.2C303.3,417.4,309.5,425.8,319.1,425.8z M372,438h-15.1v-59H372V438z
	 M420.6,438l-2.9-8.5h-20.5l-3.1,8.5H378l23.7-59h11.9l23.4,59H420.6z M475.9,438h-32.5v-59h15.1v45.7h17.4V438z M531.1,438h-20.6
	v-59H530c10.7,0,19.4,1.8,26.1,11c3.8,5.3,5.4,11.8,5.4,18.3C561.4,427.7,550.4,438,531.1,438z M583.8,438h-15.1v-59h15.1V438z
	 M624.9,439.1c-17.4,0-31.3-13.5-31.3-30.9c0-17.7,14.3-30.4,31.6-30.4c12.7,0,25.9,8.3,29.5,20.9h-16.9c-2.7-4.9-7.4-7.6-13-7.6
	c-9.6,0-16.1,7.8-16.1,17.1c0,9.6,6.1,17.7,16.2,17.7c6.5,0,12.3-2.9,14.1-9.5h-17.6v-12h35c0.1,1,0.1,2.1,0.1,3.1
	C656.3,425.6,642.9,439.1,624.9,439.1z M679.2,438h-15.1v-59h15.1V438z M713.6,438h-15.1v-45.7h-11.6v-13.2h38.2v13.2h-11.6
	L713.6,438L713.6,438z M765.7,438l-2.9-8.5h-20.5l-3.1,8.5H723l23.7-59h11.9l23.4,59H765.7z M819.4,438h-32.5v-59H802v45.7h17.4V438
	z"/>
<polygon points="408.1,658.2 407.9,658.2 401.9,678.4 414.2,678.4 408.2,658.2 "/>
<polygon points="753.1,658.3 752.9,658.3 746.9,678.5 759.2,678.5 753.2,658.3 "/>
<path d="M251.8,652.1c-9.6,0-16.1,8-16.1,17.2c0,9.4,6.5,17.5,16.3,17.5c9.5,0,15.9-8.3,15.9-17.3
	C267.9,660.4,261.5,652.1,251.8,652.1z"/>
<path d="M532.5,653.2H526v32.5h6.5c10.3,0,14.4-6.6,14.4-16.2C546.8,660.1,542.5,653.2,532.5,653.2z"/>
<path d="M116,598.8V737h981.7V598.8H116z"/>
<path d="M85.6,819.3v212H298v-212H85.6z"/>
<g>
	<path class="st0" d="M130.7,853.1c-0.4-2.7-1.1-7.9-7.4-7.9c-3.6,0-7.1,2.5-7.1,6.3c0,4.8,2.2,5.8,16.7,12.3
		c15.1,6.8,18.9,13.7,18.9,23.1c0,11.9-6.8,24.9-28.2,24.9c-23.4,0-29.1-15.3-29.1-25.6v-2.6H115c0,9.4,5.8,11,8.4,11
		c4.9,0,7.9-4,7.9-7.7c0-5.3-3.4-6.7-15.8-11.9c-5.7-2.3-19.8-8-19.8-23.1S110.4,828,124,828c8,0,16.6,2.9,21.8,9.2
		c4.8,5.9,5.1,11.3,5.3,15.9H130.7L130.7,853.1z"/>
	<path class="st0" d="M160.5,829.5h26.7c9.1,0,25.2,0,35.7,15.1c5.6,7.6,7.4,16.3,7.4,25.1c0,22-10.9,40.6-41.6,40.6h-28.2V829.5z
		 M181.1,892.2h8.9c15.4,0,19.8-10.7,19.8-22.2c0-4.6-1-10.4-3.9-14.9c-2.4-3.6-6.5-7.4-15.7-7.4h-8.9v44.5H181.1z"/>
	<path class="st0" d="M137,1021.7h-20.7v-63.4h-13.2V941H137V1021.7z"/>
	<path class="st0" d="M195.1,965.3l0.2,0.2c1-0.4,2.4-0.4,3.9-0.4c11.8,0,25.4,9.1,25.4,27.4c0,18.4-14.3,30.8-31.3,30.8
		c-10.1,0-19.5-3.7-25-10.9c-5.1-5.8-6.9-14.1-6.9-20.3c0-8.2,3.4-15.4,7.4-21.6L189,941h23.9L195.1,965.3z M192.7,1005.1
		c6.1,0,11.3-4.5,11.3-10.9c0-5.2-3.9-11-11.3-11c-6.5,0-10.9,5-10.9,10.7C181.8,1001.4,187.7,1005.1,192.7,1005.1z"/>
</g>
<path d="M86,1082.3v212h212v-212H86z"/>
<path class="st0" d="M119.8,1104.3c-0.4-2.5-1-7.3-6.9-7.3c-3.4,0-6.6,2.3-6.6,5.9c0,4.5,2,5.4,15.6,11.5
	c14,6.3,17.6,12.8,17.6,21.6c0,11-6.3,23.1-26.2,23.1c-21.8,0-27.1-14.2-27.1-23.9v-2.4h19.1c0,8.7,5.4,10.3,7.8,10.3
	c4.6,0,7.3-3.8,7.3-7.2c0-5-3.2-6.2-14.7-11.1c-5.3-2.1-18.4-7.4-18.4-21.6c0-14.1,13.7-22.2,26.3-22.2c7.4,0,15.5,2.7,20.3,8.5
	c4.5,5.5,4.8,10.6,5,14.8L119.8,1104.3L119.8,1104.3z"/>
<path class="st0" d="M233,1082.3h24.9c8.4,0,23.5,0,33.2,14c5.2,7.1,6.9,15.1,6.9,23.4c0,20.5-10.2,37.8-38.7,37.8H233V1082.3z
	 M252.2,1140.7h8.2c14.3,0,18.4-10,18.4-20.6c0-4.3-0.9-9.7-3.7-13.9c-2.2-3.4-6.1-6.9-14.6-6.9h-8.3L252.2,1140.7L252.2,1140.7z"/>
<path class="st0" d="M139,1293.8h-19.2v-59h-12.3v-16.2H139V1293.8z"/>
<path class="st0" d="M270.5,1241.3l0.2,0.2c0.9-0.4,2.2-0.4,3.7-0.4c11,0,23.7,8.4,23.7,25.5c0,17.2-13.3,28.7-29.2,28.7
	c-9.5,0-18.2-3.5-23.3-10.2c-4.8-5.4-6.4-13.1-6.4-18.9c0-7.6,3.2-14.3,6.9-20.1l18.7-27.5h22.3L270.5,1241.3z M268.3,1278.4
	c5.7,0,10.6-4.2,10.6-10.2c0-4.9-3.7-10.3-10.6-10.3c-6.1,0-10.2,4.7-10.2,10C258.1,1274.9,263.6,1278.4,268.3,1278.4z"/>
<path d="M86.1,1867.2v213h212v-213H86.1z"/>
<g>
	<path class="st0" d="M144.7,1914c-0.4-2.5-1-7.3-6.9-7.3c-3.4,0-6.6,2.3-6.6,5.9c0,4.5,2,5.4,15.6,11.5c14,6.3,17.6,12.8,17.6,21.6
		c0,11-6.3,23.1-26.2,23.1c-21.9-0.1-27.2-14.3-27.2-24v-2.4h19.1c0,8.7,5.4,10.3,7.8,10.3c4.6,0,7.3-3.8,7.3-7.2
		c0-5-3.2-6.2-14.7-11.1c-5.3-2.1-18.4-7.4-18.4-21.6c0-14.1,13.7-22.2,26.3-22.2c7.4,0,15.5,2.7,20.3,8.5c4.5,5.5,4.8,10.6,5,14.8
		L144.7,1914L144.7,1914z"/>
	<path class="st0" d="M173.4,1892h24.9c8.4,0,23.5,0,33.2,14c5.2,7.1,6.9,15.1,6.9,23.4c0,20.5-10.2,37.8-38.7,37.8h-26.3V1892z
		 M192.6,1950.4h8.2c14.3,0,18.4-10,18.4-20.6c0-4.3-0.9-9.7-3.7-13.9c-2.2-3.4-6.1-6.9-14.6-6.9h-8.3V1950.4z"/>
	<path class="st0" d="M204.9,2056.4h-19.2v-59.1h-12.3v-16.2h31.5V2056.4z"/>
	<path class="st0" d="M245.6,2003.9l0.2,0.2c0.9-0.4,2.2-0.4,3.7-0.4c11,0,23.7,8.4,23.7,25.5c0,17.2-13.3,28.7-29.2,28.7
		c-9.5,0-18.2-3.5-23.3-10.2c-4.8-5.4-6.4-13.1-6.4-18.9c0-7.6,3.2-14.3,6.9-20.1l18.7-27.5h22.3L245.6,2003.9z M243.4,2041
		c5.7,0,10.6-4.2,10.6-10.2c0-4.9-3.7-10.3-10.6-10.3c-6.1,0-10.2,4.7-10.2,10C233.2,2037.5,238.7,2041,243.4,2041z"/>
</g>
<path d="M104.5,2147.7v175h175v-175H104.5z"/>
<g>
	<path class="st0" d="M140.4,2171.8c-0.4-2.8-1.1-8-7.5-8c-3.7,0-7.2,2.6-7.2,6.4c0,4.9,2.2,5.9,17,12.5c15.3,6.9,19.2,14,19.2,23.5
		c0,12-6.9,25.2-28.6,25.2c-23.7,0-29.6-15.5-29.6-26.1v-2.7h20.7c0,9.5,5.9,11.2,8.5,11.2c5,0,8-4.1,8-7.9c0-5.4-3.4-6.8-16.1-12.1
		c-5.8-2.3-20.1-8.1-20.1-23.5c0-15.4,15-24.2,28.7-24.2c8.1,0,16.9,3,22.2,9.3c4.9,6,5.2,11.5,5.4,16.2h-20.6V2171.8z"/>
	<path class="st0" d="M171.7,2147.8h27.2c9.2,0,25.6,0,36.3,15.3c5.7,7.8,7.5,16.5,7.5,25.5c0,22.4-11.1,41.3-42.3,41.3h-28.7
		V2147.8z M192.6,2211.5h9c15.6,0,20.1-10.9,20.1-22.5c0-4.7-1-10.5-4-15.2c-2.4-3.7-6.7-7.5-16-7.5h-9.1V2211.5z"/>
	<path class="st0" d="M206,2323h-21v-65.5h-13.3v-17.6H206V2323z"/>
	<path class="st0" d="M250.5,2265l0.2,0.2c1-0.4,2.4-0.4,4-0.4c12,0,25.8,9.2,25.8,27.8c0,18.7-14.5,31.3-31.8,31.3
		c-10.3,0-19.9-3.8-25.4-11.1c-5.2-5.9-7-14.3-7-20.6c0-8.3,3.4-15.6,7.5-22l20.4-30h24.3L250.5,2265z M248.1,2305.5
		c6.2,0,11.5-4.5,11.5-11.1c0-5.3-4-11.2-11.5-11.2c-6.7,0-11.1,5.1-11.1,10.9C237,2301.7,243,2305.5,248.1,2305.5z"/>
</g>
<path d="M86.1,1343.3v212h212v-212H86.1z"/>
<g>
	<path class="st0" d="M116.8,1429.9c-0.3-2.2-0.9-6.2-5.9-6.2c-2.8,0-5.6,2-5.6,5c0,3.8,1.7,4.6,13.2,9.7
		c11.9,5.3,14.9,10.9,14.9,18.3c0,9.3-5.3,19.6-22.2,19.6c-18.4,0-23-12.1-23-20.3v-2.1h16.2c0,7.4,4.6,8.7,6.6,8.7
		c3.9,0,6.2-3.2,6.2-6.1c0-4.2-2.7-5.3-12.5-9.4c-4.5-1.8-15.6-6.3-15.6-18.3s11.6-18.8,22.3-18.8c6.3,0,13.1,2.3,17.2,7.2
		c3.8,4.7,4.1,9,4.2,12.6L116.8,1429.9L116.8,1429.9z"/>
	<path class="st0" d="M140.4,1411.3h21.1c7.2,0,19.9,0,28.2,11.9c4.4,6,5.9,12.8,5.9,19.8c0,17.4-8.6,32.1-32.8,32.1h-22.4V1411.3z
		 M156.7,1460.8h7c12.2,0,15.6-8.4,15.6-17.5c0-3.6-0.8-8.2-3.1-11.8c-1.9-2.8-5.2-5.9-12.4-5.9h-7.1
		C156.7,1425.6,156.7,1460.8,156.7,1460.8z"/>
	<path class="st0" d="M121.8,1555.1h-16.3V1505H95v-13.7h26.8V1555.1z"/>
	<path class="st0" d="M167.7,1510.5l0.2,0.2c0.8-0.3,1.9-0.3,3.1-0.3c9.3,0,20.1,7.2,20.1,21.6c0,14.6-11.3,24.3-24.7,24.3
		c-8,0-15.4-2.9-19.7-8.6c-4.1-4.6-5.4-11.1-5.4-16c0-6.5,2.7-12.2,5.9-17.1l15.9-23.3H182L167.7,1510.5z M165.8,1542
		c4.8,0,9-3.5,9-8.6c0-4.1-3.1-8.7-9-8.7c-5.2,0-8.6,4-8.6,8.4C157.2,1539,161.8,1542,165.8,1542z"/>
</g>
<path d="M86.1,1605.3v212h212v-212H86.1z"/>
<g>
	<path class="st0" d="M126,1639.9c-0.3-2.2-0.9-6.2-5.9-6.2c-2.8,0-5.6,2-5.6,5c0,3.8,1.7,4.6,13.2,9.7
		c11.9,5.3,14.9,10.9,14.9,18.3c0,9.3-5.3,19.6-22.2,19.6c-18.4,0-23-12.1-23-20.3v-2.1h16.2c0,7.4,4.6,8.7,6.6,8.7
		c3.9,0,6.2-3.2,6.2-6.1c0-4.2-2.7-5.3-12.5-9.4c-4.5-1.8-15.6-6.3-15.6-18.3s11.6-18.8,22.3-18.8c6.3,0,13.1,2.3,17.2,7.2
		c3.8,4.7,4.1,9,4.2,12.6h-16V1639.9z"/>
	<path class="st0" d="M149.5,1621.3h21.1c7.2,0,19.9,0,28.2,11.9c4.4,6,5.9,12.8,5.9,19.8c0,17.4-8.6,32.1-32.8,32.1h-22.4V1621.3z
		 M165.8,1670.8h7c12.2,0,15.6-8.4,15.6-17.5c0-3.6-0.8-8.2-3.1-11.8c-1.9-2.8-5.2-5.9-12.4-5.9h-7.1
		C165.8,1635.6,165.8,1670.8,165.8,1670.8z"/>
	<path class="st0" d="M130.9,1765.1h-16.3V1715h-10.4v-13.7h26.7C130.9,1701.3,130.9,1765.1,130.9,1765.1z"/>
	<path class="st0" d="M176.9,1720.5l0.2,0.2c0.8-0.3,1.9-0.3,3.1-0.3c9.3,0,20.1,7.2,20.1,21.6c0,14.6-11.3,24.3-24.7,24.3
		c-8,0-15.4-2.9-19.7-8.6c-4.1-4.6-5.4-11.1-5.4-16c0-6.5,2.7-12.2,5.9-17.1l15.9-23.3h18.9L176.9,1720.5z M175,1752
		c4.8,0,9-3.5,9-8.6c0-4.1-3.1-8.7-9-8.7c-5.2,0-8.6,4-8.6,8.4C166.3,1749,171,1752,175,1752z"/>
</g>
<g>
	<path class="st0" d="M200.7,657.2c-0.3-2-0.8-5.7-5.4-5.7c-2.6,0-5.2,1.8-5.2,4.6c0,3.5,1.6,4.2,12.2,9c11,4.9,13.8,10,13.8,16.9
		c0,8.6-4.9,18.1-20.6,18.1c-17.1,0-21.3-11.2-21.3-18.7v-1.9h15c0,6.9,4.2,8.1,6.1,8.1c3.6,0,5.7-3,5.7-5.7c0-3.9-2.5-4.9-11.6-8.7
		c-4.1-1.7-14.4-5.8-14.4-16.9c0-11.1,10.9-17.5,20.8-17.5c5.8,0,12.1,2.2,15.9,6.7c3.5,4.3,3.7,8.3,3.9,11.6h-14.9V657.2z"/>
	<path class="st0" d="M252,638.8c18.2,0,31.2,14.2,31.2,30.6c0,16.4-12.9,30.6-31.3,30.6c-18.6,0-31-14.8-31-29.9
		c0-3.9,0.6-8.3,2.3-12.6C226.3,649.9,235.5,638.8,252,638.8z M252.2,686.8c10.7,0,15.9-9.7,15.9-17.3c0-7.7-5.2-17.5-16-17.5
		c-10.4,0-16.1,8.9-16.1,17.2C235.9,678.4,242.1,686.8,252.2,686.8z"/>
	<path class="st0" d="M350,676.9c-3.4,14-15.5,23.2-29.8,23.2c-18.5,0-31.1-14.8-31.1-30.7c-0.1-15.1,11.6-30.6,30.9-30.6
		c18.5,0,28.4,14.3,30,23.5h-15.8c-1.7-4.4-6.1-10.3-14.3-10.3c-10.1,0-15.8,8.8-15.8,17.2c0,8.9,6.1,17.5,15.9,17.5
		c9.4,0,13.2-7.9,14.2-10H350V676.9z"/>
	<path class="st0" d="M357.9,640H373v59h-15.1V640z"/>
	<path class="st0" d="M398.5,690.4l-3.1,8.5h-16.2l23.7-59h11.9l23.4,59h-16.3l-2.9-8.5H398.5z M402.7,678.5H415l-6-20.2h-0.1h-0.2
		L402.7,678.5z"/>
	<path class="st0" d="M444.8,640h15.1v45.8h17.5V699h-32.5v-59H444.8z"/>
	<path class="st0" d="M507.4,640H527c6.6,0,18.4,0,26.1,11c4.1,5.6,5.4,11.9,5.4,18.3c0,16.1-8,29.7-30.4,29.7h-20.6v-59H507.4z
		 M522.5,685.7h6.5c11.2,0,14.4-7.8,14.4-16.2c0-3.3-0.7-7.6-2.9-10.9c-1.8-2.6-4.8-5.4-11.5-5.4h-6.5V685.7z"/>
	<path class="st0" d="M567.5,640h15.1v59h-15.1V640z"/>
	<path class="st0" d="M653.7,665.4c0.1,1,0.1,1.9,0.1,3.1c0,19.8-15.1,31.7-31.5,31.7c-17.9,0-31.3-14-31.3-30.9
		c0-17.6,14.2-30.4,31.6-30.4c14.1,0,26.2,9.5,29.5,20.9h-16.9c-2.3-4.1-6.6-7.7-13-7.7c-7.4,0-16.1,5.5-16.1,17.1
		c0,12.4,8.8,17.7,16.2,17.7c7.5,0,12.5-3.7,14.1-9.5h-17.6v-12C618.8,665.4,653.7,665.4,653.7,665.4z"/>
	<path class="st0" d="M661.7,640h15.1v59h-15.1V640z"/>
	<path class="st0" d="M694.7,653.2h-11.6V640h38.3v13.2h-11.6V699h-15.1L694.7,653.2L694.7,653.2z"/>
	<path class="st0" d="M740.2,690.4l-3.1,8.5h-16.2l23.7-59h11.9l23.4,59h-16.3l-2.9-8.5H740.2z M744.4,678.5h12.4l-6.1-20.2h-0.1
		h-0.2L744.4,678.5z"/>
	<path class="st0" d="M786.6,640h15.1v45.8h17.5V699h-32.5L786.6,640L786.6,640z"/>
	<path class="st0" d="M890.3,686.3V699h-41.6v-11.8c7.4-4.9,12.4-8.1,18-14.4c1.8-2.1,8.1-9.1,8.1-15.1c0-2.4-1.4-5.7-5.6-5.7
		c-5.9,0-6.5,5.9-6.8,9.3H848c0.2-3.8,0.3-8.7,3.5-13.6c5-7.8,13.9-9,18.2-9c13.2,0,20.1,8.8,20.1,17.1c0,12.5-10.3,22.1-19.6,30.3
		h20.1V686.3z"/>
	<path class="st0" d="M896.7,661.2c0-17.1,13.8-22.4,22.2-22.4c7.6,0,21.8,4.9,21.8,22.4v16.4c0,16.4-12.5,22.4-21.8,22.4
		c-8.7,0-22.2-5.7-22.2-22.4V661.2z M911.7,678.1c0,3.5,1.1,8.8,6.9,8.8c6.9,0,6.9-7,6.9-8.8v-17.3c0-1.8,0-8.8-6.9-8.8
		c-6,0-6.9,5.6-6.9,8.8V678.1z"/>
	<path class="st0" d="M970.9,699h-15.1v-46.4h-9.6V640h24.7L970.9,699L970.9,699z"/>
	<path class="st0" d="M1004,657.7l0.2,0.2c0.7-0.3,1.8-0.3,2.9-0.3c8.6,0,18.6,6.6,18.6,20c0,13.5-10.4,22.5-22.9,22.5
		c-7.4,0-14.3-2.7-18.3-8c-3.7-4.2-5-10.3-5-14.8c0-6,2.5-11.2,5.4-15.8l14.7-21.5h17.4L1004,657.7z M1002.2,686.8
		c4.5,0,8.3-3.3,8.3-8c0-3.8-2.9-8.1-8.3-8.1c-4.8,0-8,3.7-8,7.8C994.3,684.1,998.6,686.8,1002.2,686.8z"/>
</g>
</svg>
