<?xml version="1.0" encoding="utf-8"?>
<!-- Generator: Adobe Illustrator 19.1.0, SVG Export Plug-In . SVG Version: 6.00 Build 0)  -->
<svg version="1.1" id="Layer_1" xmlns="http://www.w3.org/2000/svg" xmlns:xlink="http://www.w3.org/1999/xlink" x="0px" y="0px"
	 width="592px" height="592px" viewBox="-78 372 592 592" style="enable-background:new -78 372 592 592;" xml:space="preserve">
<g>
	<path d="M352.4,798.5c-16.9,0-28.3,13-28.3,27.6c0,19.7,15.2,29,28.3,29c15.7,0,29.3-11.6,29.3-28.3
		C381.7,813.4,371.5,798.5,352.4,798.5z"/>
	<path d="M-78.9,372l-4.2,592h598l4.2-592H-78.9z M61.3,655.7c-60.4,0-75-39.3-75-66.1V583h52.8c0,24.1,15,28.5,21.6,28.5
		c12.7,0,20.2-10.5,20.2-19.9c0-13.8-8.8-17.1-40.7-30.7c-14.7-5.8-50.9-20.5-50.9-59.7c0-39,37.9-61.4,72.8-61.4
		c20.5,0,42.9,7.4,56.2,23.5c12.4,15.2,13.3,29.3,13.8,40.9H79.3l0,0c-1.1-6.9-2.8-20.2-19.1-20.2c-9.4,0-18.3,6.4-18.3,16.4
		c0,12.4,5.5,15,43.2,31.8c38.8,17.4,48.7,35.4,48.7,59.7C133.8,622.2,116.4,655.7,61.3,655.7z M158.5,443.2h68.9
		c23.3,0,65,0,91.9,38.8c14.4,19.7,19.1,41.8,19.1,64.7c0,56.7-28.3,104.6-107.1,104.6h-72.8L158.5,443.2L158.5,443.2z M245.9,898.1
		h-53.1V734.6h-34v-44.8h87.1V898.1z M354.1,902c-26.3,0-50.4-9.7-64.5-28.3c-13.3-15-17.7-36.2-17.7-52.3c0-21,8.8-39.5,19.1-55.6
		l51.8-76.1h61.7l-45.9,62.8l0.5,0.5c2.5-1.1,6.1-1.1,10.2-1.1c30.4,0,65.6,23.3,65.6,70.6C434.9,870.2,398.1,902,354.1,902z"/>
	<path d="M285.2,547.8c0-11.9-2.5-26.9-10.2-38.5c-6.1-9.4-16.9-19.1-40.4-19.1h-23v114.6h22.7C273.9,604.8,285.2,577.2,285.2,547.8
		z"/>
</g>
</svg>
