<?xml version="1.0" encoding="utf-8"?>
<!-- Generator: Adobe Illustrator 19.1.0, SVG Export Plug-In . SVG Version: 6.00 Build 0)  -->
<svg version="1.1" id="Layer_1" xmlns="http://www.w3.org/2000/svg" xmlns:xlink="http://www.w3.org/1999/xlink" x="0px" y="0px"
	 width="592px" height="592px" viewBox="329 372 592 592" style="enable-background:new 329 372 592 592;" xml:space="preserve">
<g>
	<path d="M799.2,838c-22,0-36.8,16.9-36.8,36c0,25.6,19.8,37.8,36.8,37.8c20.5,0,38.2-15.1,38.2-36.8
		C837.4,857.4,824.1,838,799.2,838z"/>
	<path d="M237.5,282.5l-5.5,771h778.8l5.5-771H237.5z M420.1,652c-78.6,0-97.7-51.2-97.7-86.1v-8.6h68.8c0,31.4,19.5,37.1,28.1,37.1
		c16.6,0,26.3-13.7,26.3-25.9c0-18-11.5-22.3-53-40c-19.1-7.6-66.3-26.7-66.3-77.8c0-50.8,49.4-80,94.8-80
		c26.7,0,55.9,9.7,73.2,30.6c16.2,19.8,17.3,38.2,18,53.3h-68.8v0c-1.4-9-3.6-26.3-24.9-26.3c-12.3,0-23.8,8.3-23.8,21.3
		c0,16.2,7.2,19.5,56.2,41.4c50.5,22.7,63.4,46.1,63.4,77.8C514.5,608.4,491.8,652,420.1,652z M546.6,375.2h89.7
		c30.3,0,84.7,0,119.7,50.5c18.7,25.6,24.9,54.4,24.9,84.3c0,73.9-36.8,136.2-139.5,136.2h-94.8V375.2z M660.5,967.7h-69.2v-213
		h-44.3v-58.4h113.5V967.7z M801.4,972.8c-34.2,0-65.6-12.6-84-36.8c-17.3-19.5-23.1-47.2-23.1-68.1c0-27.4,11.5-51.5,24.9-72.4
		l67.4-99.1H867l-59.8,81.8l0.7,0.7c3.2-1.4,7.9-1.4,13.3-1.4c39.6,0,85.4,30.3,85.4,91.9C906.6,931.3,858.7,972.8,801.4,972.8z"/>
	<path d="M711.7,511.5c0-15.5-3.2-35-13.3-50.1c-7.9-12.3-22-24.9-52.6-24.9h-29.9v149.2h29.6C696.9,585.7,711.7,549.7,711.7,511.5z
		"/>
</g>
</svg>
