<?xml version="1.0" encoding="utf-8"?>
<!-- Generator: Adobe Illustrator 19.1.0, SVG Export Plug-In . SVG Version: 6.00 Build 0)  -->
<svg version="1.1" id="Layer_1" xmlns="http://www.w3.org/2000/svg" xmlns:xlink="http://www.w3.org/1999/xlink" x="0px" y="0px"
	 width="926px" height="228.7px" viewBox="-245 553.3 926 228.7" style="enable-background:new -245 553.3 926 228.7;"
	 xml:space="preserve">
<g>
	<path d="M425.9,671.2c-12.5,0-20.9,9.6-20.9,20.5c0,14.4,11.3,21.5,20.9,21.5c11.7,0,21.7-8.6,21.7-20.9
		C447.6,682.3,440.1,671.2,425.9,671.2z"/>
	<path d="M145.2,625.1h-17.1v85.2H145c29.4,0,37.8-20.5,37.8-42.4c0-8.8-1.9-19.8-7.5-28.6C170.7,632.4,162.8,625.1,145.2,625.1z"/>
	<path d="M-245,553.3V782h926V553.3H-245z M4.7,747.8c-44.7,0-55.7-29.2-55.7-49.1v-5h39.3c0,18,11.1,21.1,16.1,21.1
		c9.4,0,15-7.7,15-14.8c0-10.2-6.5-12.7-30.3-22.8c-10.9-4.4-37.8-15.2-37.8-44.3c0-29,28.2-45.5,54.1-45.5
		c15.2,0,31.7,5.6,41.8,17.5c9.2,11.3,9.8,21.7,10.2,30.5h-39c-0.8-5.2-2.1-15-14.2-15c-6.9,0-13.6,4.8-13.6,12.1
		c0,9.2,4.2,11.1,31.9,23.6c28.8,12.9,36.1,26.3,36.1,44.3C58.6,723,45.6,747.8,4.7,747.8z M142.7,744.8H88.6V590.4h51.2
		c17.3,0,48.2,0,68.3,28.8c10.6,14.6,14.2,31.1,14.2,48C222.3,709.4,201.4,744.8,142.7,744.8z M335.9,744.8h-39.5V623.6h-25.3v-33.2
		h64.7L335.9,744.8L335.9,744.8z M427.1,747.8c-19.4,0-37.4-7.1-47.8-20.9c-9.8-11.1-13.2-26.9-13.2-38.8c0-15.7,6.5-29.4,14.2-41.3
		l38.4-56.4h45.7l-34,46.6l0.4,0.4c1.9-0.8,4.6-0.8,7.5-0.8c22.6,0,48.7,17.3,48.7,52.4C487,724.3,459.7,747.8,427.1,747.8z"/>
</g>
</svg>
