<?xml version="1.0" encoding="utf-8"?>
<!-- Generator: Adobe Illustrator 19.1.0, SVG Export Plug-In . SVG Version: 6.00 Build 0)  -->
<svg version="1.1" id="Layer_1" xmlns="http://www.w3.org/2000/svg" xmlns:xlink="http://www.w3.org/1999/xlink" x="0px" y="0px"
	 width="637.1px" height="234.6px" viewBox="0 0 637.1 234.6" enable-background="new 0 0 637.1 234.6" xml:space="preserve">
<rect x="-244.7" y="-693.9" fill="#FFFFFF" width="696" height="90"/>
<polygon points="14.8,-662.8 14.6,-662.8 8.6,-642.7 20.9,-642.7 14.9,-662.8 "/>
<polygon points="359.8,-662.7 359.7,-662.7 353.6,-642.6 366,-642.6 359.9,-662.7 "/>
<path d="M-141.4-668.9c-9.6,0-16.1,8-16.1,17.2c0,9.4,6.5,17.5,16.3,17.5c9.5,0,15.9-8.3,15.9-17.3
	C-125.4-660.6-131.8-668.9-141.4-668.9z"/>
<path d="M139.2-667.8h-6.5v32.5h6.5c10.3,0,14.4-6.6,14.4-16.2C153.5-660.9,149.2-667.8,139.2-667.8z"/>
<path d="M-277.3-722.2V-584h760.8v-138.2H-277.3z M-197.8-621c-11.9,0-21.3-6.1-21.3-18.7v-1.9h15c0,3.8,1.8,8,6.1,8
	c3.1,0,5.7-2.5,5.7-5.7c0-3.8-3.2-5.1-6.3-6.5c-1.8-0.8-3.5-1.5-5.3-2.2c-7.6-3.2-14.4-7.6-14.4-16.9c0-11,10.6-17.4,20.6-17.4
	c5.7,0,12.2,2.2,15.9,6.7c3,3.7,3.7,7,3.9,11.6h-14.9c-0.5-3.3-1.6-5.7-5.4-5.7c-2.6,0-5.2,1.8-5.2,4.6c0,0.9,0.1,1.8,0.6,2.5
	c1.4,2.4,9.2,5.4,11.6,6.5c7.8,3.6,13.8,7.6,13.8,16.9C-177.2-626.7-186.1-621-197.8-621z M-141.6-621c-16.7,0-31-12.9-31-29.9
	c0-4.4,0.7-8.5,2.3-12.6c0.9-2.3,2.3-4.6,3.8-6.6c6.1-8,14.9-12.1,24.9-12.1c17.2,0,31.2,13.2,31.2,30.6
	C-110.4-634.1-124.3-621-141.6-621z M-73.7-634.2c6.6,0,11.6-4.1,14.2-10h15.8c-3.4,13.9-15.5,23.2-29.8,23.2
	c-17.1,0-31.1-13.4-31.1-30.7c0-17.3,13.8-30.5,30.9-30.5c10.7,0,20.1,4.9,26,13.9c1.9,2.9,3.4,6.2,4,9.6h-15.8
	c-2.3-6.1-7.6-10.3-14.3-10.3c-9.6,0-15.8,8.1-15.8,17.2S-83.4-634.2-73.7-634.2z M-20.9-622.1h-15.1v-59h15.1V-622.1z M27.8-622.1
	l-2.9-8.5H4.4l-3.1,8.5h-16.2l23.7-59h11.9l23.4,59H27.8z M83.1-622.1H50.6v-59h15.1v45.7h17.4V-622.1z M138.2-622.1h-20.6v-59h19.5
	c10.7,0,19.4,1.8,26.1,11c3.8,5.3,5.4,11.8,5.4,18.3C168.6-632.4,157.5-622.1,138.2-622.1z M191-622.1h-15.1v-59H191V-622.1z
	 M232-620.9c-17.4,0-31.3-13.5-31.3-30.9c0-17.7,14.3-30.4,31.6-30.4c12.7,0,25.9,8.3,29.5,20.9h-16.9c-2.7-4.9-7.4-7.6-13-7.6
	c-9.6,0-16.1,7.8-16.1,17.1c0,9.6,6.1,17.7,16.2,17.7c6.5,0,12.3-2.9,14.1-9.5h-17.6v-12h35c0.1,1,0.1,2.1,0.1,3.1
	C263.5-634.4,250.1-620.9,232-620.9z M286.4-622.1h-15.1v-59h15.1V-622.1z M320.8-622.1h-15.1v-45.7h-11.6V-681h38.2v13.2h-11.6
	V-622.1z M372.8-622.1l-2.9-8.5h-20.5l-3.1,8.5h-16.2l23.7-59h11.9l23.4,59H372.8z M426.5-622.1H394v-59h15.1v45.7h17.4V-622.1z"/>
<rect x="-194.7" y="-791.9" fill="#FFFFFF" width="108" height="28"/>
<g>
	<path d="M-132.3-784.3h-1.2v4.8h1.1c0.6,0,1.4,0,1.8-0.4c0.5-0.4,0.7-1.1,0.7-2.4C-129.9-783.9-131.1-784.3-132.3-784.3z"/>
	<path d="M-147.2-784.4c-1.1,0-1.9,0.2-2.5,0.7c-0.7,0.7-1.1,3-1.1,4.7c0,3.2,1.4,5.1,4.1,5.1c1.1,0,1.9-0.2,2.5-0.7
		c0.7-0.7,1.1-3,1.1-4.7C-143.1-782.5-144.5-784.4-147.2-784.4z"/>
	<path d="M-202.2-799.1v39.1h44.9l16.5,8.2l16.5-8.2h44.9v-39.1H-202.2z M-174.4-777.5h-1.1v2.9c0,0.5,0.1,0.7,0.6,0.7l1.3,0.2v1.6
		h-5.9v-1.6l0.9-0.2c0.5-0.1,0.6-0.3,0.6-0.7v-9.2c0-0.5-0.1-0.6-0.6-0.7l-0.9-0.2v-1.6h5.4c2.9,0,4.9,0.7,4.9,3.7
		C-169.2-779.4-171.8-777.5-174.4-777.5z M-166.9-772.1v-1.6l0.9-0.2c0.5-0.1,0.6-0.3,0.6-0.7v-9.3c0-0.5-0.1-0.7-0.6-0.8l-0.9-0.1
		v-1.5h10.4l-0.1,3.9h-1.7l-0.1-1.3c-0.1-0.5-0.3-0.6-0.7-0.6h-3.7v3.7h4.1v2h-4.1v4.3h3.7c0.5,0,0.7-0.1,0.7-0.6l0.1-1.4h1.7l0.1,4
		H-166.9z M-147.4-771.9c-4.4,0-6.1-3-6.1-7.3c0-3.7,1.9-7.3,7-7.3c4.4,0,6.1,3,6.1,7.3C-140.4-775.5-142.3-771.9-147.4-771.9z
		 M-132.4-777.5h-1.1v2.9c0,0.5,0.1,0.7,0.6,0.7l1.3,0.2v1.6h-5.9v-1.6l0.9-0.2c0.5-0.1,0.6-0.3,0.6-0.7v-9.2c0-0.5-0.1-0.6-0.6-0.7
		l-0.9-0.2v-1.6h5.4c2.9,0,4.9,0.7,4.9,3.7C-127.2-779.4-129.8-777.5-132.4-777.5z M-124.9-772.1v-1.6l0.9-0.2
		c0.5-0.1,0.6-0.3,0.6-0.7v-9.2c0-0.5-0.1-0.6-0.6-0.7l-0.9-0.2v-1.6h5.7v1.6l-1.1,0.2c-0.5,0.1-0.6,0.3-0.6,0.7v9.6h3
		c0.5,0,0.7-0.1,0.7-0.6l0.1-1.4h1.7l0.1,4H-124.9z M-112.8-772.1v-1.6l0.9-0.2c0.5-0.1,0.6-0.3,0.6-0.7v-9.3c0-0.5-0.1-0.7-0.6-0.8
		l-0.9-0.1v-1.5h10.4l-0.1,3.9h-1.7l-0.1-1.3c-0.1-0.5-0.3-0.6-0.7-0.6h-3.7v3.7h4.1v2h-4.1v4.3h3.7c0.5,0,0.7-0.1,0.7-0.6l0.1-1.4
		h1.7l0.1,4H-112.8z"/>
	<path d="M-174.3-784.3h-1.2v4.8h1.1c0.6,0,1.4,0,1.8-0.4c0.5-0.4,0.7-1.1,0.7-2.4C-171.9-783.9-173.1-784.3-174.3-784.3z"/>
</g>
<path d="M-39.4-770.4v-7.1h-6.5v-4.1h6.5v-7h4.3v7h6.7v4.1h-6.7v7.1H-39.4z"/>
<path d="M168.1-770.4v-7.1h-6.5v-4.1h6.5v-7h4.3v7h6.7v4.1h-6.7v7.1H168.1z"/>
<rect x="15.3" y="-791.9" fill="#FFFFFF" width="108" height="28"/>
<g>
	<path d="M5.3-799.1v39.1h44.9l16.5,8.2l16.5-8.2H128v-39.1H5.3z M33.1-772h-6.2v-1.6l0.9-0.2c0.5-0.1,0.6-0.3,0.6-0.8v-9.2
		c0-0.5-0.1-0.7-0.6-0.8l-0.9-0.1v-1.5h6.2c4.6,0,6.4,2.6,6.4,6.9C39.5-775.2,37.6-772,33.1-772z M42.4-772v-1.6l0.9-0.2
		c0.5-0.1,0.6-0.3,0.6-0.7v-9.3c0-0.5-0.1-0.7-0.6-0.8l-0.9-0.1v-1.5h10.4l-0.1,3.9h-1.7l-0.1-1.3c-0.1-0.5-0.3-0.6-0.7-0.6h-3.7
		v3.7h4.1v2h-4.1v4.3h3.7c0.5,0,0.7-0.1,0.7-0.6L51-776h1.7l0.1,4H42.4z M60.3-771.8c-2,0-3-0.4-4.4-0.9l0.2-3.4h2l0.3,1.8
		c0.6,0.4,1.2,0.6,2.4,0.6c1.3,0,2.4-0.6,2.4-1.9c0-1-0.4-1.5-2-2.1l-2.4-0.9c-1.6-0.6-2.7-1.9-2.7-4c0-2.2,1.6-3.7,4.8-3.7
		c1.5,0,2.9,0.2,4.3,0.5l-0.3,3.2h-1.9l-0.3-1.6c-0.7-0.3-1.4-0.4-2.1-0.4c-1.2,0-1.9,0.5-1.9,1.7c0,1,0.5,1.7,1.8,2.2l1.7,0.6
		c1.9,0.7,3.6,1.5,3.6,4.1C65.7-773.6,63.8-771.8,60.3-771.8z M74.1-784.6l-0.9,0.2c-0.5,0.1-0.6,0.3-0.6,0.7v9.2
		c0,0.5,0.1,0.6,0.6,0.7l0.9,0.2v1.6h-5.5v-1.6l0.9-0.2c0.5-0.1,0.6-0.3,0.6-0.7v-9.2c0-0.5-0.1-0.6-0.6-0.7l-0.9-0.2v-1.6h5.5
		V-784.6z M89.5-777.1l-0.7,0.1c-0.5,0.1-0.5,0.2-0.5,0.7v3.2c-1.1,0.5-2.9,1.2-5.2,1.2c-4.4,0-6.2-2.6-6.2-7.1c0-4.1,2-7.4,6.7-7.4
		c1.3,0,2.8,0.1,4.8,1.1l-0.3,3.4h-1.9l-0.4-2c-0.9-0.3-1.5-0.5-2.8-0.5c-1.2,0-1.8,0.3-2.3,0.7c-0.7,0.6-1.1,3.2-1.1,4.6
		c0,2.9,1.1,5.2,3.8,5.2c0.9,0,1.6-0.1,2.4-0.4v-1.9c0-0.5-0.1-0.7-0.6-0.7l-1-0.2v-1.6h5.2V-777.1z M106.7-784.6l-0.9,0.1
		c-0.5,0.1-0.6,0.3-0.6,0.8v11.7h-2.6l-6-9.7v7.2c0,0.5,0.1,0.7,0.6,0.7l0.9,0.2v1.6h-5.5v-1.6l0.9-0.2c0.5-0.1,0.6-0.3,0.6-0.7
		v-9.2c0-0.5-0.1-0.7-0.6-0.8l-0.9-0.1v-1.6h4.1l6,9.7v-7.2c0-0.5-0.1-0.7-0.6-0.8l-0.9-0.1v-1.6h5.5V-784.6z"/>
	<path d="M32.9-784.2h-2v10.1h2c2.7,0,3.9-1.5,3.9-5.3C36.8-783.1,35.5-784.2,32.9-784.2z"/>
</g>
<rect x="223.3" y="-791.9" fill="#FFFFFF" width="173" height="28"/>
<g>
	<path d="M317.9-773.9c1.1,0,1.9-0.2,2.5-0.7c0.7-0.7,1.1-3,1.1-4.7c0-3.2-1.4-5.1-4.1-5.1c-1.1,0-1.9,0.2-2.5,0.7
		c-0.7,0.7-1.1,3-1.1,4.7C313.8-775.8,315.2-773.9,317.9-773.9z"/>
	<path d="M405.6-799.1H212.8v39.1h79.9l16.5,8.2l16.5-8.2h79.9V-799.1z M318.1-786.4c4.4,0,6.1,3,6.1,7.3c0,3.7-1.9,7.3-7,7.3
		c-4.4,0-6.1-3-6.1-7.3C311.1-782.9,313-786.4,318.1-786.4z M294.3-773.6l0.9-0.2c0.5-0.1,0.6-0.3,0.6-0.7v-9.2
		c0-0.5-0.1-0.7-0.6-0.8l-0.9-0.1v-1.6h4.1l6,9.7v-7.2c0-0.5-0.1-0.7-0.6-0.8l-0.9-0.1v-1.6h5.5v1.6l-0.9,0.1
		c-0.5,0.1-0.6,0.3-0.6,0.8v11.7h-2.6l-6-9.7v7.2c0,0.5,0.1,0.7,0.6,0.7l0.9,0.2v1.6h-5.5V-773.6z M247.3-782.3h-1.7l-0.1-1.3
		c-0.1-0.5-0.3-0.6-0.7-0.6h-2v9.7c0,0.5,0.1,0.7,0.6,0.7l1,0.2v1.6h-5.7v-1.6l1-0.2c0.5-0.1,0.6-0.3,0.6-0.7v-9.7h-2
		c-0.5,0-0.7,0.1-0.7,0.6l-0.1,1.3h-1.7l-0.1-3.9h11.9L247.3-782.3z M249.7-772v-1.6l0.9-0.2c0.5-0.1,0.6-0.3,0.6-0.7v-9.3
		c0-0.5-0.1-0.7-0.6-0.8l-0.9-0.1v-1.5h10.4l-0.1,3.9h-1.7l-0.1-1.3c-0.1-0.5-0.3-0.6-0.7-0.6h-3.7v3.7h4.1v2h-4.1v4.3h3.7
		c0.5,0,0.7-0.1,0.7-0.6l0.1-1.4h1.7l0.1,4H249.7z M269.4-771.8c-4.3,0-6.2-2.6-6.2-7.1c0-4.1,2-7.4,6.7-7.4c1.3,0,2.6,0.1,4.6,1.1
		l-0.3,3.4h-1.9l-0.4-2.1c-0.8-0.3-1.4-0.4-2.6-0.4c-1.2,0-1.8,0.3-2.3,0.7c-0.7,0.6-1.1,3.2-1.1,4.6c0,3.1,1.3,5.1,3.9,5.1
		c1.8,0,3.8-0.6,4.3-0.8l0.5,1.7C274.1-772.9,271.8-771.8,269.4-771.8z M281.6-778.5v3.9c0,0.5,0.1,0.7,0.6,0.7l1,0.2v1.6h-5.6v-1.6
		l0.9-0.2c0.5-0.1,0.6-0.3,0.6-0.7v-9.2c0-0.5-0.1-0.6-0.6-0.7l-0.9-0.2v-1.6h5.6v1.6l-1,0.2c-0.5,0.1-0.6,0.3-0.6,0.7v3.3h5.7v-3.3
		c0-0.5-0.1-0.7-0.6-0.7l-1-0.2v-1.6h5.6v1.6l-0.9,0.2c-0.5,0.1-0.6,0.3-0.6,0.7v9.2c0,0.5,0.1,0.6,0.6,0.7l0.9,0.2v1.6h-5.6v-1.6
		l1-0.2c0.5-0.1,0.6-0.3,0.6-0.7v-3.9H281.6z M327-772v-1.6l0.9-0.2c0.5-0.1,0.6-0.3,0.6-0.7v-9.2c0-0.5-0.1-0.6-0.6-0.7l-0.9-0.2
		v-1.6h5.7v1.6l-1.1,0.2c-0.5,0.1-0.6,0.3-0.6,0.7v9.6h3c0.5,0,0.7-0.1,0.7-0.6l0.1-1.4h1.7l0.1,4H327z M345-771.8
		c-4.4,0-6.1-3-6.1-7.3c0-3.7,1.9-7.3,7-7.3c4.4,0,6.1,3,6.1,7.3C352-775.4,350.1-771.8,345-771.8z M367.3-777.1l-0.7,0.1
		c-0.5,0.1-0.5,0.2-0.5,0.7v3.2c-1.1,0.5-2.9,1.2-5.2,1.2c-4.4,0-6.2-2.6-6.2-7.1c0-4.1,2-7.4,6.7-7.4c1.3,0,2.8,0.1,4.8,1.1
		l-0.3,3.4H364l-0.4-2c-0.9-0.3-1.5-0.5-2.8-0.5c-1.2,0-1.8,0.3-2.3,0.7c-0.7,0.6-1.1,3.2-1.1,4.6c0,2.9,1.1,5.2,3.8,5.2
		c0.9,0,1.6-0.1,2.4-0.4v-1.9c0-0.5-0.1-0.7-0.6-0.7l-1-0.2v-1.6h5.2V-777.1z M383-784.6l-0.9,0.1c-0.6,0.1-0.7,0.3-1,0.8l-3.8,7
		v2.2c0,0.5,0.1,0.7,0.6,0.7l1,0.2v1.6h-5.7v-1.6l1-0.2c0.5-0.1,0.6-0.3,0.6-0.7v-2.4l-3.7-6.8c-0.3-0.6-0.5-0.8-1-0.8l-0.9-0.1
		v-1.6h5.8v1.5l-0.7,0.1c-0.4,0.1-0.6,0.1-0.6,0.4c0,0.1,0.1,0.3,0.2,0.5l2.4,4.6l2.3-4.6c0.1-0.2,0.1-0.3,0.1-0.4
		c0-0.2-0.2-0.3-0.7-0.4l-0.7-0.1v-1.6h5.6V-784.6z"/>
	<path d="M345.2-784.3c-1.1,0-1.9,0.2-2.5,0.7c-0.7,0.7-1.1,3-1.1,4.7c0,3.2,1.4,5.1,4.1,5.1c1.1,0,1.9-0.2,2.5-0.7
		c0.7-0.7,1.1-3,1.1-4.7C349.3-782.4,347.9-784.3,345.2-784.3z"/>
</g>
<rect x="-244.7" y="-430.9" fill="#FFFFFF" width="696" height="90"/>
<polygon points="13.9,-399.4 13.8,-399.4 7.7,-379.2 20.1,-379.2 14,-399.4 "/>
<polygon points="358.9,-399.3 358.8,-399.3 352.7,-379.1 365.1,-379.1 359,-399.3 "/>
<path d="M-142.3-405.5c-9.6,0-16.1,8-16.1,17.2c0,9.4,6.5,17.5,16.3,17.5c9.5,0,15.9-8.3,15.9-17.3
	C-126.3-397.2-132.7-405.5-142.3-405.5z"/>
<path d="M138.3-404.4h-6.5v32.5h6.5c10.3,0,14.4-6.6,14.4-16.2C152.6-397.5,148.3-404.4,138.3-404.4z"/>
<path d="M-278.2-458.8v138.2h760.8v-138.2H-278.2z M-198.7-357.6c-11.9,0-21.3-6.1-21.3-18.7v-1.9h15c0,3.8,1.8,8,6.1,8
	c3.1,0,5.7-2.5,5.7-5.7c0-3.8-3.2-5.1-6.3-6.5c-1.8-0.8-3.5-1.5-5.3-2.2c-7.6-3.2-14.4-7.6-14.4-16.9c0-11,10.6-17.4,20.6-17.4
	c5.7,0,12.2,2.2,15.9,6.7c3,3.7,3.7,7,3.9,11.6h-14.9c-0.5-3.3-1.6-5.7-5.4-5.7c-2.6,0-5.2,1.8-5.2,4.6c0,0.9,0.1,1.8,0.6,2.5
	c1.4,2.4,9.2,5.4,11.6,6.5c7.8,3.6,13.8,7.6,13.8,16.9C-178.1-363.3-187-357.6-198.7-357.6z M-142.5-357.6c-16.7,0-31-12.9-31-29.9
	c0-4.4,0.7-8.5,2.3-12.6c0.9-2.3,2.3-4.6,3.8-6.6c6.1-8,14.9-12.1,24.9-12.1c17.2,0,31.2,13.2,31.2,30.6
	C-111.3-370.7-125.2-357.6-142.5-357.6z M-74.6-370.8c6.6,0,11.6-4.1,14.2-10h15.8c-3.4,13.9-15.5,23.2-29.8,23.2
	c-17.1,0-31.1-13.4-31.1-30.7s13.8-30.5,30.9-30.5c10.7,0,20.1,4.9,26,13.9c1.9,2.9,3.4,6.2,4,9.6h-15.8
	c-2.3-6.1-7.6-10.3-14.3-10.3c-9.6,0-15.8,8.1-15.8,17.2C-90.5-379.2-84.2-370.8-74.6-370.8z M-21.8-358.7h-15.1v-59h15.1V-358.7z
	 M26.9-358.7l-2.9-8.5H3.6l-3.1,8.5h-16.2l23.7-59h11.9l23.4,59H26.9z M82.2-358.7H49.7v-59h15.1v45.7h17.4V-358.7z M137.3-358.7
	h-20.6v-59h19.5c10.7,0,19.4,1.8,26.1,11c3.8,5.3,5.4,11.8,5.4,18.3C167.7-368.9,156.6-358.7,137.3-358.7z M190.1-358.7H175v-59
	h15.1V-358.7z M231.1-357.5c-17.4,0-31.3-13.5-31.3-30.9c0-17.7,14.3-30.4,31.6-30.4c12.7,0,25.9,8.3,29.5,20.9H244
	c-2.7-4.9-7.4-7.6-13-7.6c-9.6,0-16.1,7.8-16.1,17.1c0,9.6,6.1,17.7,16.2,17.7c6.5,0,12.3-2.9,14.1-9.5h-17.6v-12h35
	c0.1,1,0.1,2.1,0.1,3.1C262.6-371,249.2-357.5,231.1-357.5z M285.5-358.7h-15.1v-59h15.1V-358.7z M319.9-358.7h-15.1v-45.7h-11.6
	v-13.2h38.2v13.2h-11.6V-358.7z M371.9-358.7l-2.9-8.5h-20.5l-3.1,8.5h-16.2l23.7-59h11.9l23.4,59H371.9z M425.6-358.7h-32.5v-59
	h15.1v45.7h17.4V-358.7z"/>
<polygon points="15.1,-136.6 14.9,-136.6 8.9,-116.4 21.2,-116.4 15.2,-136.6 "/>
<polygon points="360.1,-136.5 359.9,-136.5 353.9,-116.3 366.2,-116.3 360.2,-136.5 "/>
<path d="M-141.2-142.7c-9.6,0-16.1,8-16.1,17.2c0,9.4,6.5,17.5,16.3,17.5c9.5,0,15.9-8.3,15.9-17.3
	C-125.1-134.4-131.5-142.7-141.2-142.7z"/>
<path d="M139.5-141.6h-6.5v32.5h6.5c10.3,0,14.4-6.6,14.4-16.2C153.8-134.7,149.5-141.6,139.5-141.6z"/>
<path d="M-277-196v138.2h981.7V-196H-277z"/>
<path d="M-308.1,22.6v212h212.4v-212H-308.1z"/>
<g>
	<path fill="#FFFFFF" d="M-263,56.5c-0.4-2.7-1.1-7.9-7.4-7.9c-3.6,0-7.1,2.5-7.1,6.3c0,4.8,2.2,5.8,16.7,12.3
		c15.1,6.8,18.9,13.7,18.9,23.1c0,11.8-6.8,24.8-28.2,24.8c-23.4,0-29.1-15.3-29.1-25.6v-2.6h20.5c0,9.4,5.8,11,8.4,11
		c4.9,0,7.9-4,7.9-7.7c0-5.3-3.4-6.7-15.8-11.9c-5.7-2.3-19.8-8-19.8-23.1s14.7-23.8,28.3-23.8c8,0,16.6,2.9,21.8,9.2
		c4.8,5.9,5.1,11.3,5.3,15.9H-263z"/>
	<path fill="#FFFFFF" d="M-233.2,32.9h26.7c9.1,0,25.2,0,35.7,15.1c5.6,7.6,7.4,16.3,7.4,25.1c0,22-10.9,40.6-41.6,40.6h-28.3V32.9z
		 M-212.6,95.6h8.8c15.4,0,19.8-10.7,19.8-22.2c0-4.6-1-10.4-3.9-14.9c-2.4-3.6-6.5-7.4-15.7-7.4h-8.9V95.6z"/>
	<path fill="#FFFFFF" d="M-256.8,225.1h-20.6v-63.4h-13.2v-17.3h33.8V225.1z"/>
	<path fill="#FFFFFF" d="M-198.6,168.7l0.2,0.2c1-0.4,2.4-0.4,3.9-0.4c11.8,0,25.4,9.1,25.4,27.4c0,18.4-14.3,30.8-31.3,30.8
		c-10.1,0-19.5-3.7-25-10.9c-5.1-5.8-6.9-14.1-6.9-20.3c0-8.2,3.4-15.4,7.4-21.6l20.1-29.5h23.9L-198.6,168.7z M-201,208.5
		c6.1,0,11.3-4.5,11.3-10.9c0-5.2-3.9-11-11.3-11c-6.5,0-10.9,5-10.9,10.7C-211.9,204.8-206,208.5-201,208.5z"/>
</g>
<path d="M-307.7,285.6v212h212v-212H-307.7z"/>
<path fill="#FFFFFF" d="M-273.9,307.6c-0.4-2.5-1-7.3-6.9-7.3c-3.4,0-6.6,2.3-6.6,5.9c0,4.5,2,5.4,15.6,11.5
	c14,6.3,17.6,12.8,17.6,21.6c0,11-6.3,23.1-26.2,23.1c-21.8,0-27.1-14.2-27.1-23.9V336h19.1c0,8.7,5.4,10.3,7.8,10.3
	c4.6,0,7.3-3.8,7.3-7.2c0-5-3.2-6.2-14.7-11.1c-5.3-2.1-18.4-7.4-18.4-21.6c0-14.1,13.7-22.2,26.3-22.2c7.4,0,15.5,2.7,20.3,8.5
	c4.5,5.5,4.8,10.6,5,14.8H-273.9z"/>
<path fill="#FFFFFF" d="M-160.8,285.7h24.9c8.4,0,23.5,0,33.2,14c5.2,7.1,6.9,15.1,6.9,23.4c0,20.5-10.2,37.8-38.7,37.8h-26.3V285.7
	z M-141.5,344h8.2c14.3,0,18.4-10,18.4-20.6c0-4.3-0.9-9.7-3.7-13.9c-2.2-3.4-6.1-6.9-14.6-6.9h-8.3V344z"/>
<path fill="#FFFFFF" d="M-254.7,497.2h-19.2v-59.1h-12.3V422h31.5V497.2z"/>
<path fill="#FFFFFF" d="M-123.2,444.6l0.2,0.2c0.9-0.4,2.2-0.4,3.7-0.4c11,0,23.7,8.4,23.7,25.5c0,17.2-13.3,28.7-29.2,28.7
	c-9.5,0-18.2-3.5-23.3-10.2c-4.8-5.4-6.4-13.1-6.4-18.9c0-7.6,3.2-14.3,6.9-20.1l18.7-27.5h22.3L-123.2,444.6z M-125.5,481.7
	c5.7,0,10.6-4.2,10.6-10.2c0-4.9-3.7-10.3-10.6-10.3c-6.1,0-10.2,4.7-10.2,10C-135.6,478.3-130.2,481.7-125.5,481.7z"/>
<path d="M-307.7,1070.6v213h212v-213H-307.7z"/>
<g>
	<path fill="#FFFFFF" d="M-249,1117.4c-0.4-2.5-1-7.3-6.9-7.3c-3.4,0-6.6,2.3-6.6,5.9c0,4.5,2,5.4,15.6,11.5
		c14,6.3,17.6,12.8,17.6,21.6c0,11-6.3,23.1-26.2,23.1c-21.8,0-27.1-14.2-27.1-23.9v-2.4h19.1c0,8.7,5.4,10.3,7.8,10.3
		c4.6,0,7.3-3.8,7.3-7.2c0-5-3.2-6.2-14.7-11.1c-5.3-2.1-18.4-7.4-18.4-21.6c0-14.1,13.7-22.2,26.3-22.2c7.4,0,15.5,2.7,20.3,8.5
		c4.5,5.5,4.8,10.6,5,14.8H-249z"/>
	<path fill="#FFFFFF" d="M-220.4,1095.4h24.9c8.4,0,23.5,0,33.2,14c5.2,7.1,6.9,15.1,6.9,23.4c0,20.5-10.2,37.8-38.7,37.8h-26.3
		V1095.4z M-201.2,1153.8h8.2c14.3,0,18.4-10,18.4-20.6c0-4.3-0.9-9.7-3.7-13.9c-2.2-3.4-6.1-6.9-14.6-6.9h-8.3V1153.8z"/>
	<path fill="#FFFFFF" d="M-188.8,1259.8h-19.2v-59.1h-12.3v-16.2h31.5V1259.8z"/>
	<path fill="#FFFFFF" d="M-148.1,1207.2l0.2,0.2c0.9-0.4,2.2-0.4,3.7-0.4c11,0,23.7,8.4,23.7,25.5c0,17.2-13.3,28.7-29.2,28.7
		c-9.5,0-18.2-3.5-23.3-10.2c-4.8-5.4-6.4-13.1-6.4-18.9c0-7.6,3.2-14.3,6.9-20.1l18.7-27.5h22.3L-148.1,1207.2z M-150.3,1244.3
		c5.7,0,10.6-4.2,10.6-10.2c0-4.9-3.7-10.3-10.6-10.3c-6.1,0-10.2,4.7-10.2,10C-160.5,1240.9-155,1244.3-150.3,1244.3z"/>
</g>
<path d="M-289.2,1351.1v175h175v-175H-289.2z"/>
<g>
	<path fill="#FFFFFF" d="M-253.3,1375.1c-0.4-2.8-1.1-8-7.5-8c-3.7,0-7.2,2.6-7.2,6.4c0,4.9,2.2,5.9,17,12.5
		c15.3,6.9,19.2,14,19.2,23.5c0,12-6.9,25.2-28.6,25.2c-23.7,0-29.6-15.5-29.6-26.1v-2.7h20.9c0,9.5,5.9,11.2,8.5,11.2
		c5,0,8-4.1,8-7.9c0-5.4-3.4-6.8-16.1-12.1c-5.8-2.3-20.1-8.1-20.1-23.5c0-15.4,15-24.2,28.7-24.2c8.1,0,16.9,3,22.2,9.3
		c4.9,6,5.2,11.5,5.4,16.2H-253.3z"/>
	<path fill="#FFFFFF" d="M-222.1,1351.2h27.2c9.2,0,25.6,0,36.3,15.3c5.7,7.8,7.5,16.5,7.5,25.5c0,22.4-11.1,41.3-42.3,41.3h-28.7
		V1351.2z M-201.1,1414.8h9c15.6,0,20.1-10.9,20.1-22.5c0-4.7-1-10.5-4-15.2c-2.4-3.7-6.7-7.5-16-7.5h-9.1V1414.8z"/>
	<path fill="#FFFFFF" d="M-187.7,1526.4h-21v-65.5h-13.4v-17.6h34.4V1526.4z"/>
	<path fill="#FFFFFF" d="M-143.2,1468.3l0.2,0.2c1-0.4,2.4-0.4,4-0.4c12,0,25.8,9.2,25.8,27.8c0,18.7-14.5,31.3-31.8,31.3
		c-10.3,0-19.9-3.8-25.4-11.1c-5.2-5.9-7-14.3-7-20.6c0-8.3,3.4-15.6,7.5-22l20.4-30h24.3L-143.2,1468.3z M-145.7,1508.8
		c6.2,0,11.5-4.5,11.5-11.1c0-5.3-4-11.2-11.5-11.2c-6.7,0-11.1,5.1-11.1,10.9C-156.8,1505.1-150.8,1508.8-145.7,1508.8z"/>
</g>
<path d="M-307.7,546.6v212h212v-212H-307.7z"/>
<g>
	<path fill="#FFFFFF" d="M-276.9,633.3c-0.3-2.2-0.9-6.2-5.9-6.2c-2.8,0-5.6,2-5.6,5c0,3.8,1.7,4.6,13.2,9.7
		c11.9,5.3,14.9,10.9,14.9,18.3c0,9.3-5.3,19.6-22.2,19.6c-18.4,0-23-12.1-23-20.3v-2.1h16.2c0,7.4,4.6,8.7,6.6,8.7
		c3.9,0,6.2-3.2,6.2-6.1c0-4.2-2.7-5.3-12.5-9.4c-4.5-1.8-15.6-6.3-15.6-18.3s11.6-18.8,22.3-18.8c6.3,0,13.1,2.3,17.2,7.2
		c3.8,4.7,4.1,9,4.2,12.6H-276.9z"/>
	<path fill="#FFFFFF" d="M-253.4,614.7h21.1c7.2,0,19.9,0,28.2,11.9c4.4,6,5.9,12.8,5.9,19.8c0,17.4-8.6,32.1-32.8,32.1h-22.3V614.7
		z M-237.1,664.1h7c12.2,0,15.6-8.4,15.6-17.5c0-3.6-0.8-8.2-3.1-11.8c-1.9-2.8-5.2-5.9-12.4-5.9h-7.1V664.1z"/>
	<path fill="#FFFFFF" d="M-272,758.5h-16.3v-50.1h-10.4v-13.7h26.7V758.5z"/>
	<path fill="#FFFFFF" d="M-226,713.9l0.2,0.2c0.8-0.3,1.9-0.3,3.1-0.3c9.3,0,20.1,7.2,20.1,21.6c0,14.6-11.3,24.3-24.7,24.3
		c-8,0-15.4-2.9-19.7-8.6c-4.1-4.6-5.4-11.1-5.4-16c0-6.5,2.7-12.2,5.9-17.1l15.9-23.3h18.9L-226,713.9z M-227.9,745.3
		c4.8,0,9-3.5,9-8.6c0-4.1-3.1-8.7-9-8.7c-5.2,0-8.6,4-8.6,8.4C-236.5,742.4-231.9,745.3-227.9,745.3z"/>
</g>
<path d="M-307.7,808.6v212h212v-212H-307.7z"/>
<g>
	<path fill="#FFFFFF" d="M-267.7,843.3c-0.3-2.2-0.9-6.2-5.9-6.2c-2.8,0-5.6,2-5.6,5c0,3.8,1.7,4.6,13.2,9.7
		c11.9,5.3,14.9,10.9,14.9,18.3c0,9.3-5.3,19.6-22.2,19.6c-18.4,0-23-12.1-23-20.3v-2.1h16.2c0,7.4,4.6,8.7,6.6,8.7
		c3.9,0,6.2-3.2,6.2-6.1c0-4.2-2.7-5.3-12.5-9.4c-4.5-1.8-15.6-6.3-15.6-18.3s11.6-18.8,22.3-18.8c6.3,0,13.1,2.3,17.2,7.2
		c3.8,4.7,4.1,9,4.2,12.6H-267.7z"/>
	<path fill="#FFFFFF" d="M-244.2,824.7h21.1c7.2,0,19.9,0,28.2,11.9c4.4,6,5.9,12.8,5.9,19.8c0,17.4-8.6,32.1-32.8,32.1h-22.3V824.7
		z M-227.9,874.1h7c12.2,0,15.6-8.4,15.6-17.5c0-3.6-0.8-8.2-3.1-11.8c-1.9-2.8-5.2-5.9-12.4-5.9h-7.1V874.1z"/>
	<path fill="#FFFFFF" d="M-262.8,968.4h-16.3v-50.1h-10.4v-13.7h26.7V968.4z"/>
	<path fill="#FFFFFF" d="M-216.9,923.9l0.2,0.2c0.8-0.3,1.9-0.3,3.1-0.3c9.3,0,20.1,7.2,20.1,21.6c0,14.6-11.3,24.3-24.7,24.3
		c-8,0-15.4-2.9-19.7-8.6c-4.1-4.6-5.4-11.1-5.4-16c0-6.5,2.7-12.2,5.9-17.1l15.9-23.3h18.9L-216.9,923.9z M-218.8,955.3
		c4.8,0,9-3.5,9-8.6c0-4.1-3.1-8.7-9-8.7c-5.2,0-8.6,4-8.6,8.4C-227.4,952.4-222.7,955.3-218.8,955.3z"/>
</g>
<g>
	<path fill="#FFFFFF" d="M-192.3-137.6c-0.3-2-0.8-5.7-5.4-5.7c-2.6,0-5.2,1.8-5.2,4.6c0,3.5,1.6,4.2,12.2,9
		c11,4.9,13.8,10,13.8,16.9c0,8.6-4.9,18.1-20.6,18.1c-17.1,0-21.3-11.2-21.3-18.7v-1.9h15c0,6.9,4.2,8.1,6.1,8.1
		c3.6,0,5.7-3,5.7-5.7c0-3.9-2.5-4.9-11.6-8.7c-4.1-1.7-14.4-5.8-14.4-16.9s10.8-17.4,20.6-17.4c5.8,0,12.1,2.2,15.9,6.7
		c3.5,4.3,3.7,8.3,3.9,11.6H-192.3z"/>
	<path fill="#FFFFFF" d="M-141-156c18.2,0,31.2,14.2,31.2,30.6s-12.9,30.6-31.3,30.6c-18.6,0-31-14.8-31-29.9
		c0-3.9,0.6-8.3,2.3-12.6C-166.7-144.9-157.5-156-141-156z M-140.8-108c10.7,0,15.9-9.7,15.9-17.3c0-7.7-5.2-17.5-16-17.5
		c-10.4,0-16.1,8.9-16.1,17.2C-157.1-116.4-150.9-108-140.8-108z"/>
	<path fill="#FFFFFF" d="M-43-117.9c-3.4,14-15.5,23.2-29.8,23.2c-18.5,0-31.1-14.8-31.1-30.7c0-15.1,11.6-30.5,30.9-30.5
		c18.5,0,28.4,14.3,30,23.5h-15.8c-1.7-4.4-6.1-10.3-14.3-10.3c-10.1,0-15.8,8.8-15.8,17.2c0,8.9,6.1,17.5,15.9,17.5
		c9.4,0,13.2-7.9,14.2-10H-43z"/>
	<path fill="#FFFFFF" d="M-35.1-154.8H-20v59h-15.1V-154.8z"/>
	<path fill="#FFFFFF" d="M5.5-104.4l-3.1,8.5h-16.2l23.7-59h11.9l23.4,59H28.9l-2.9-8.5H5.5z M9.7-116.3H22L16-136.5h-0.1h-0.2
		L9.7-116.3z"/>
	<path fill="#FFFFFF" d="M51.8-154.8h15.1v45.8h17.5v13.2H51.8V-154.8z"/>
	<path fill="#FFFFFF" d="M114.4-154.8H134c6.6,0,18.4,0,26.1,11c4.1,5.6,5.4,11.9,5.4,18.3c0,16.1-8,29.7-30.4,29.7h-20.6V-154.8z
		 M129.5-109.1h6.5c11.2,0,14.4-7.8,14.4-16.2c0-3.3-0.7-7.6-2.9-10.9c-1.8-2.6-4.8-5.4-11.5-5.4h-6.5V-109.1z"/>
	<path fill="#FFFFFF" d="M174.5-154.8h15.1v59h-15.1V-154.8z"/>
	<path fill="#FFFFFF" d="M260.7-129.4c0.1,1,0.1,1.9,0.1,3.1c0,19.8-15.1,31.7-31.5,31.7c-17.9,0-31.3-14-31.3-30.9
		c0-17.6,14.2-30.4,31.6-30.4c14.1,0,26.2,9.5,29.5,20.9h-16.9c-2.3-4.1-6.6-7.7-13-7.7c-7.4,0-16.1,5.5-16.1,17.1
		c0,12.4,8.8,17.7,16.2,17.7c7.5,0,12.5-3.7,14.1-9.5h-17.6v-12H260.7z"/>
	<path fill="#FFFFFF" d="M268.7-154.8h15.1v59h-15.1V-154.8z"/>
	<path fill="#FFFFFF" d="M301.7-141.6h-11.6v-13.2h38.3v13.2h-11.6v45.8h-15.1V-141.6z"/>
	<path fill="#FFFFFF" d="M347.2-104.4l-3.1,8.5h-16.2l23.7-59h11.9l23.4,59h-16.3l-2.9-8.5H347.2z M351.4-116.3h12.4l-6.1-20.2h-0.1
		h-0.2L351.4-116.3z"/>
	<path fill="#FFFFFF" d="M393.6-154.8h15.1v45.8h17.5v13.2h-32.5V-154.8z"/>
	<path fill="#FFFFFF" d="M497.3-108.5v12.7h-41.6v-11.7c7.4-4.9,12.4-8.1,18-14.4c1.8-2.1,8.1-9.1,8.1-15.1c0-2.4-1.4-5.7-5.6-5.7
		c-5.9,0-6.5,5.9-6.8,9.3h-14.4c0.2-3.8,0.3-8.7,3.5-13.6c5-7.8,13.9-9,18.2-9c13.2,0,20.1,8.8,20.1,17.1
		c0,12.5-10.3,22.1-19.6,30.3H497.3z"/>
	<path fill="#FFFFFF" d="M503.7-133.6c0-17.1,13.8-22.4,22.2-22.4c7.6,0,21.8,4.9,21.8,22.4v16.4c0,16.4-12.5,22.4-21.8,22.4
		c-8.7,0-22.2-5.7-22.2-22.4V-133.6z M518.7-116.7c0,3.5,1.1,8.8,6.9,8.8c6.9,0,6.9-7,6.9-8.8V-134c0-1.8,0-8.8-6.9-8.8
		c-6,0-6.9,5.6-6.9,8.8V-116.7z"/>
	<path fill="#FFFFFF" d="M577.9-95.8h-15.1v-46.3h-9.6v-12.7h24.7V-95.8z"/>
	<path fill="#FFFFFF" d="M611-137.1l0.2,0.2c0.7-0.3,1.8-0.3,2.9-0.3c8.6,0,18.6,6.6,18.6,20c0,13.5-10.4,22.5-22.9,22.5
		c-7.4,0-14.3-2.7-18.3-8c-3.7-4.2-5-10.3-5-14.8c0-6,2.5-11.2,5.4-15.8l14.7-21.5H624L611-137.1z M609.2-108c4.5,0,8.3-3.3,8.3-8
		c0-3.8-2.9-8.1-8.3-8.1c-4.8,0-8,3.7-8,7.8C601.3-110.7,605.6-108,609.2-108z"/>
</g>
<polygon points="292.1,59.4 291.9,59.4 285.9,79.6 298.2,79.6 292.2,59.4 "/>
<path d="M135.8,53.3c-9.6,0-16.1,8-16.1,17.2c0,9.4,6.5,17.5,16.3,17.5c9.5,0,15.9-8.3,15.9-17.3C151.9,61.6,145.5,53.3,135.8,53.3z
	"/>
<path d="M416.5,54.4h-6.5v32.5h6.5c10.3,0,14.4-6.6,14.4-16.2C430.8,61.3,426.5,54.4,416.5,54.4z"/>
<path d="M0,0v234.6h637.1V0H0z"/>
<g>
	<path fill="#FFFFFF" d="M84.7,58.4c-0.3-2-0.8-5.7-5.4-5.7c-2.6,0-5.2,1.8-5.2,4.6c0,3.5,1.6,4.2,12.2,9c11,4.9,13.8,10,13.8,16.9
		c0,8.6-4.9,18.1-20.6,18.1c-17.1,0-21.3-11.2-21.3-18.7v-1.9h15c0,6.9,4.2,8.1,6.1,8.1c3.6,0,5.7-3,5.7-5.7c0-3.9-2.5-4.9-11.6-8.7
		c-4.1-1.7-14.4-5.8-14.4-16.9S69.9,40,79.8,40c5.8,0,12.1,2.2,15.9,6.7c3.5,4.3,3.7,8.3,3.9,11.6H84.7z"/>
	<path fill="#FFFFFF" d="M136,40c18.2,0,31.2,14.2,31.2,30.6s-12.9,30.6-31.3,30.6c-18.6,0-31-14.8-31-29.9c0-3.9,0.6-8.3,2.3-12.6
		C110.3,51.1,119.5,40,136,40z M136.2,88c10.7,0,15.9-9.7,15.9-17.3c0-7.7-5.2-17.5-16-17.5c-10.4,0-16.1,8.9-16.1,17.2
		C119.9,79.6,126.1,88,136.2,88z"/>
	<path fill="#FFFFFF" d="M234,78.1c-3.4,14-15.5,23.2-29.8,23.2c-18.5,0-31.1-14.8-31.1-30.7C173,55.5,184.7,40,204,40
		c18.5,0,28.4,14.3,30,23.5h-15.8c-1.7-4.4-6.1-10.3-14.3-10.3c-10.1,0-15.8,8.8-15.8,17.2c0,8.9,6.1,17.5,15.9,17.5
		c9.4,0,13.2-7.9,14.2-10H234z"/>
	<path fill="#FFFFFF" d="M241.9,41.2H257v59h-15.1V41.2z"/>
	<path fill="#FFFFFF" d="M282.5,91.6l-3.1,8.5h-16.2l23.7-59h11.9l23.4,59h-16.3l-2.9-8.5H282.5z M286.7,79.7H299L293,59.5h-0.1
		h-0.2L286.7,79.7z"/>
	<path fill="#FFFFFF" d="M328.8,41.2h15.1v45.8h17.5v13.2h-32.5V41.2z"/>
	<path fill="#FFFFFF" d="M60.8,136.8h19.5c6.6,0,18.4,0,26.1,11c4.1,5.6,5.4,11.9,5.4,18.3c0,16.1-8,29.7-30.4,29.7H60.8V136.8z
		 M75.9,182.6h6.5c11.2,0,14.4-7.8,14.4-16.2c0-3.3-0.7-7.6-2.9-10.9c-1.8-2.6-4.8-5.4-11.5-5.4h-6.5V182.6z"/>
	<path fill="#FFFFFF" d="M120.9,136.8H136v59h-15.1V136.8z"/>
	<path fill="#FFFFFF" d="M207,162.3c0.1,1,0.1,1.9,0.1,3.1c0,19.8-15.1,31.7-31.5,31.7c-17.9,0-31.3-14-31.3-30.9
		c0-17.6,14.2-30.4,31.6-30.4c14.1,0,26.2,9.5,29.5,20.9h-16.9c-2.3-4.1-6.6-7.7-13-7.7c-7.4,0-16.1,5.5-16.1,17.1
		c0,12.4,8.8,17.7,16.2,17.7c7.5,0,12.5-3.7,14.1-9.5H172v-12H207z"/>
	<path fill="#FFFFFF" d="M215.1,136.8h15.1v59h-15.1V136.8z"/>
	<path fill="#FFFFFF" d="M248.1,150.1h-11.6v-13.2h38.3v13.2h-11.6v45.8h-15.1V150.1z"/>
	<path fill="#FFFFFF" d="M293.6,187.3l-3.1,8.5h-16.2l23.7-59h11.9l23.4,59H317l-2.9-8.5H293.6z M297.7,175.3h12.4l-6.1-20.2H304
		h-0.2L297.7,175.3z"/>
	<path fill="#FFFFFF" d="M339.9,136.8H355v45.8h17.5v13.2h-32.5V136.8z"/>
	<path fill="#FFFFFF" d="M443.6,183.2v12.7H402v-11.7c7.4-4.9,12.4-8.1,18-14.4c1.8-2.1,8.1-9.1,8.1-15.1c0-2.4-1.4-5.7-5.6-5.7
		c-5.9,0-6.5,5.9-6.8,9.3h-14.4c0.2-3.8,0.3-8.7,3.5-13.6c5-7.8,13.9-9,18.2-9c13.2,0,20.1,8.8,20.1,17.1
		c0,12.5-10.3,22.1-19.6,30.3H443.6z"/>
	<path fill="#FFFFFF" d="M450,158.1c0-17.1,13.8-22.4,22.2-22.4c7.6,0,21.8,4.9,21.8,22.4v16.4c0,16.4-12.5,22.4-21.8,22.4
		c-8.7,0-22.2-5.7-22.2-22.4V158.1z M465.1,174.9c0,3.5,1.1,8.8,6.9,8.8c6.9,0,6.9-7,6.9-8.8v-17.2c0-1.8,0-8.8-6.9-8.8
		c-6,0-6.9,5.6-6.9,8.8V174.9z"/>
	<path fill="#FFFFFF" d="M524.3,195.8h-15.1v-46.3h-9.6v-12.7h24.7V195.8z"/>
	<path fill="#FFFFFF" d="M557.3,154.6l0.2,0.2c0.7-0.3,1.8-0.3,2.9-0.3c8.6,0,18.6,6.6,18.6,20c0,13.5-10.4,22.5-22.9,22.5
		c-7.4,0-14.3-2.7-18.3-8c-3.7-4.2-5-10.3-5-14.8c0-6,2.5-11.2,5.4-15.8l14.7-21.5h17.5L557.3,154.6z M555.6,183.7
		c4.5,0,8.3-3.3,8.3-8c0-3.8-2.9-8.1-8.3-8.1c-4.8,0-8,3.7-8,7.8C547.6,181,551.9,183.7,555.6,183.7z"/>
</g>
<g>
	<path d="M833.3-138.5c-0.3-2-0.8-5.7-5.4-5.7c-2.6,0-5.2,1.8-5.2,4.6c0,3.5,1.6,4.2,12.2,9c11,4.9,13.8,10,13.8,16.9
		c0,8.6-4.9,18.1-20.6,18.1c-17.1,0-21.3-11.2-21.3-18.7v-1.9h15c0,6.9,4.2,8.1,6.1,8.1c3.6,0,5.7-3,5.7-5.7c0-3.9-2.5-4.9-11.6-8.7
		c-4.1-1.7-14.4-5.8-14.4-16.9s10.8-17.4,20.6-17.4c5.8,0,12.1,2.2,15.9,6.7c3.5,4.3,3.7,8.3,3.9,11.6H833.3z"/>
	<path d="M884.6-156.9c18.2,0,31.2,14.2,31.2,30.6s-12.9,30.6-31.3,30.6c-18.6,0-31-14.8-31-29.9c0-3.9,0.6-8.3,2.3-12.6
		C858.9-145.8,868.1-156.9,884.6-156.9z M884.8-108.9c10.7,0,15.9-9.7,15.9-17.3c0-7.7-5.2-17.5-16-17.5c-10.4,0-16.1,8.9-16.1,17.2
		C868.6-117.3,874.7-108.9,884.8-108.9z"/>
	<path d="M982.6-118.8c-3.4,14-15.5,23.2-29.8,23.2c-18.5,0-31.1-14.8-31.1-30.7c0-15.1,11.6-30.5,30.9-30.5
		c18.5,0,28.4,14.3,30,23.5h-15.8c-1.7-4.4-6.1-10.3-14.3-10.3c-10.1,0-15.8,8.8-15.8,17.2c0,8.9,6.1,17.5,15.9,17.5
		c9.4,0,13.2-7.9,14.2-10H982.6z"/>
	<path d="M990.6-155.8h15.1v59h-15.1V-155.8z"/>
	<path d="M1031.1-105.3l-3.1,8.5h-16.2l23.7-59h11.9l23.4,59h-16.3l-2.9-8.5H1031.1z M1035.3-117.2h12.4l-6.1-20.2h-0.1h-0.2
		L1035.3-117.2z"/>
	<path d="M1077.5-155.8h15.1v45.8h17.5v13.2h-32.5V-155.8z"/>
	<path d="M1140.1-155.8h19.5c6.6,0,18.4,0,26.1,11c4.1,5.6,5.4,11.9,5.4,18.3c0,16.1-8,29.7-30.4,29.7h-20.6V-155.8z M1155.1-110
		h6.5c11.2,0,14.4-7.8,14.4-16.2c0-3.3-0.7-7.6-2.9-10.9c-1.8-2.6-4.8-5.4-11.5-5.4h-6.5V-110z"/>
	<path d="M1200.2-155.8h15.1v59h-15.1V-155.8z"/>
	<path d="M1286.3-130.3c0.1,1,0.1,1.9,0.1,3.1c0,19.8-15.1,31.7-31.5,31.7c-17.9,0-31.3-14-31.3-30.9c0-17.6,14.2-30.4,31.6-30.4
		c14.1,0,26.2,9.5,29.5,20.9h-16.9c-2.3-4.1-6.6-7.7-13-7.7c-7.4,0-16.1,5.5-16.1,17.1c0,12.4,8.8,17.7,16.2,17.7
		c7.5,0,12.5-3.7,14.1-9.5h-17.6v-12H1286.3z"/>
	<path d="M1294.3-155.8h15.1v59h-15.1V-155.8z"/>
	<path d="M1327.3-142.5h-11.6v-13.2h38.3v13.2h-11.6v45.8h-15.1V-142.5z"/>
	<path d="M1372.9-105.3l-3.1,8.5h-16.2l23.7-59h11.9l23.4,59h-16.3l-2.9-8.5H1372.9z M1377-117.2h12.4l-6.1-20.2h-0.1h-0.2
		L1377-117.2z"/>
	<path d="M1419.2-155.8h15.1v45.8h17.5v13.2h-32.5V-155.8z"/>
	<path d="M1522.9-109.4v12.7h-41.6v-11.7c7.4-4.9,12.4-8.1,18-14.4c1.8-2.1,8.1-9.1,8.1-15.1c0-2.4-1.4-5.7-5.6-5.7
		c-5.9,0-6.5,5.9-6.8,9.3h-14.4c0.2-3.8,0.3-8.7,3.5-13.6c5-7.8,13.9-9,18.2-9c13.2,0,20.1,8.8,20.1,17.1
		c0,12.5-10.3,22.1-19.6,30.3H1522.9z"/>
	<path d="M1529.3-134.5c0-17.1,13.8-22.4,22.2-22.4c7.6,0,21.8,4.9,21.8,22.4v16.4c0,16.4-12.5,22.4-21.8,22.4
		c-8.7,0-22.2-5.7-22.2-22.4V-134.5z M1544.4-117.6c0,3.5,1.1,8.8,6.9,8.8c6.9,0,6.9-7,6.9-8.8v-17.2c0-1.8,0-8.8-6.9-8.8
		c-6,0-6.9,5.6-6.9,8.8V-117.6z"/>
	<path d="M1603.5-96.8h-15.1v-46.3h-9.6v-12.7h24.7V-96.8z"/>
	<path d="M1636.6-138l0.2,0.2c0.7-0.3,1.8-0.3,2.9-0.3c8.6,0,18.6,6.6,18.6,20c0,13.5-10.4,22.5-22.9,22.5c-7.4,0-14.3-2.7-18.3-8
		c-3.7-4.2-5-10.3-5-14.8c0-6,2.5-11.2,5.4-15.8l14.7-21.5h17.5L1636.6-138z M1634.9-108.9c4.5,0,8.3-3.3,8.3-8
		c0-3.8-2.9-8.1-8.3-8.1c-4.8,0-8,3.7-8,7.8C1626.9-111.6,1631.2-108.9,1634.9-108.9z"/>
</g>
<g>
</g>
<g>
</g>
<g>
</g>
<g>
</g>
<g>
</g>
<g>
</g>
<g>
</g>
<g>
</g>
<g>
</g>
<g>
</g>
<g>
</g>
<g>
</g>
<g>
</g>
<g>
</g>
<g>
</g>
</svg>
