<?xml version="1.0" encoding="utf-8"?>
<!-- Generator: Adobe Illustrator 19.1.0, SVG Export Plug-In . SVG Version: 6.00 Build 0)  -->
<svg version="1.1" id="Layer_1" xmlns="http://www.w3.org/2000/svg" xmlns:xlink="http://www.w3.org/1999/xlink" x="0px" y="0px"
	 width="981.7px" height="138.2px" viewBox="0 0 981.7 138.2" enable-background="new 0 0 981.7 138.2" xml:space="preserve">
<rect x="33.1" y="-496.1" fill="#FFFFFF" width="696" height="90"/>
<polygon points="292.5,-465 292.4,-465 286.3,-444.8 298.7,-444.8 292.6,-465 "/>
<polygon points="637.6,-464.9 637.4,-464.9 631.3,-444.7 643.7,-444.7 637.6,-464.9 "/>
<path d="M136.3-471.1c-9.6,0-16.1,8-16.1,17.2c0,9.4,6.5,17.5,16.3,17.5c9.5,0,15.9-8.3,15.9-17.3
	C152.3-462.8,145.9-471.1,136.3-471.1z"/>
<path d="M416.9-470h-6.5v32.5h6.5c10.3,0,14.4-6.6,14.4-16.2C431.3-463.1,427-470,416.9-470z"/>
<path d="M0.4-524.4v138.2h760.8v-138.2H0.4z M80-423.1c-11.9,0-21.3-6.1-21.3-18.7v-1.9h15c0,3.8,1.8,8,6.1,8c3.1,0,5.7-2.5,5.7-5.7
	c0-3.8-3.2-5.1-6.3-6.5c-1.8-0.8-3.5-1.5-5.3-2.2c-7.6-3.2-14.4-7.6-14.4-16.9c0-11,10.6-17.4,20.6-17.4c5.7,0,12.2,2.2,15.9,6.7
	c3,3.7,3.7,7,3.9,11.6H85.1c-0.5-3.3-1.6-5.7-5.4-5.7c-2.6,0-5.2,1.8-5.2,4.6c0,0.9,0.1,1.8,0.6,2.5c1.4,2.4,9.2,5.4,11.6,6.5
	c7.8,3.6,13.8,7.6,13.8,16.9C100.5-428.9,91.6-423.1,80-423.1z M136.1-423.1c-16.7,0-31-12.9-31-29.9c0-4.4,0.7-8.5,2.3-12.6
	c0.9-2.3,2.3-4.6,3.8-6.6c6.1-8,14.9-12.1,24.9-12.1c17.2,0,31.2,13.2,31.2,30.6C167.4-436.3,153.4-423.1,136.1-423.1z M204-436.4
	c6.6,0,11.6-4.1,14.2-10H234c-3.4,13.9-15.5,23.2-29.8,23.2c-17.1,0-31.1-13.4-31.1-30.7c0-17.3,13.8-30.5,30.9-30.5
	c10.7,0,20.1,4.9,26,13.9c1.9,2.9,3.4,6.2,4,9.6h-15.8c-2.3-6.1-7.6-10.3-14.3-10.3c-9.6,0-15.8,8.1-15.8,17.2
	C188.2-444.8,194.4-436.4,204-436.4z M256.8-424.3h-15.1v-59h15.1V-424.3z M305.5-424.3l-2.9-8.5h-20.5l-3.1,8.5h-16.2l23.7-59h11.9
	l23.4,59H305.5z M360.8-424.3h-32.5v-59h15.1v45.7h17.4V-424.3z M416-424.3h-20.6v-59h19.5c10.7,0,19.4,1.8,26.1,11
	c3.8,5.3,5.4,11.8,5.4,18.3C446.3-434.5,435.2-424.3,416-424.3z M468.7-424.3h-15.1v-59h15.1V-424.3z M509.7-423.1
	c-17.4,0-31.3-13.5-31.3-30.9c0-17.7,14.3-30.4,31.6-30.4c12.7,0,25.9,8.3,29.5,20.9h-16.9c-2.7-4.9-7.4-7.6-13-7.6
	c-9.6,0-16.1,7.8-16.1,17.1c0,9.6,6.1,17.7,16.2,17.7c6.5,0,12.3-2.9,14.1-9.5h-17.6v-12h35c0.1,1,0.1,2.1,0.1,3.1
	C541.2-436.6,527.8-423.1,509.7-423.1z M564.1-424.3H549v-59h15.1V-424.3z M598.5-424.3h-15.1V-470h-11.6v-13.2h38.2v13.2h-11.6
	V-424.3z M650.5-424.3l-2.9-8.5h-20.5l-3.1,8.5h-16.2l23.7-59h11.9l23.4,59H650.5z M704.2-424.3h-32.5v-59h15.1v45.7h17.4V-424.3z"
	/>
<rect x="83.1" y="-594.1" fill="#FFFFFF" width="108" height="28"/>
<g>
	<path d="M145.4-586.5h-1.2v4.8h1.1c0.6,0,1.4,0,1.8-0.4c0.5-0.4,0.7-1.1,0.7-2.4C147.8-586.1,146.7-586.5,145.4-586.5z"/>
	<path d="M130.6-586.6c-1.1,0-1.9,0.2-2.5,0.7c-0.7,0.7-1.1,3-1.1,4.7c0,3.2,1.4,5.1,4.1,5.1c1.1,0,1.9-0.2,2.5-0.7
		c0.7-0.7,1.1-3,1.1-4.7C134.6-584.7,133.2-586.6,130.6-586.6z"/>
	<path d="M75.5-601.3v39.1h44.9l16.5,8.2l16.5-8.2h44.9v-39.1H75.5z M103.4-579.7h-1.1v2.9c0,0.5,0.1,0.7,0.6,0.7l1.3,0.2v1.6h-5.9
		v-1.6l0.9-0.2c0.5-0.1,0.6-0.3,0.6-0.7v-9.2c0-0.5-0.1-0.6-0.6-0.7l-0.9-0.2v-1.6h5.4c2.9,0,4.9,0.7,4.9,3.7
		C108.5-581.6,105.9-579.7,103.4-579.7z M110.9-574.3v-1.6l0.9-0.2c0.5-0.1,0.6-0.3,0.6-0.7v-9.3c0-0.5-0.1-0.7-0.6-0.8l-0.9-0.1
		v-1.5h10.4l-0.1,3.9h-1.7l-0.1-1.3c-0.1-0.5-0.3-0.6-0.7-0.6h-3.7v3.7h4.1v2h-4.1v4.3h3.7c0.5,0,0.7-0.1,0.7-0.6l0.1-1.4h1.7l0.1,4
		H110.9z M130.4-574.1c-4.4,0-6.1-3-6.1-7.3c0-3.7,1.9-7.3,7-7.3c4.4,0,6.1,3,6.1,7.3C137.3-577.7,135.4-574.1,130.4-574.1z
		 M145.4-579.7h-1.1v2.9c0,0.5,0.1,0.7,0.6,0.7l1.3,0.2v1.6h-5.9v-1.6l0.9-0.2c0.5-0.1,0.6-0.3,0.6-0.7v-9.2c0-0.5-0.1-0.6-0.6-0.7
		l-0.9-0.2v-1.6h5.4c2.9,0,4.9,0.7,4.9,3.7C150.5-581.6,147.9-579.7,145.4-579.7z M152.8-574.3v-1.6l0.9-0.2
		c0.5-0.1,0.6-0.3,0.6-0.7v-9.2c0-0.5-0.1-0.6-0.6-0.7l-0.9-0.2v-1.6h5.7v1.6l-1.1,0.2c-0.5,0.1-0.6,0.3-0.6,0.7v9.6h3
		c0.5,0,0.7-0.1,0.7-0.6l0.1-1.4h1.7l0.1,4H152.8z M165-574.3v-1.6l0.9-0.2c0.5-0.1,0.6-0.3,0.6-0.7v-9.3c0-0.5-0.1-0.7-0.6-0.8
		L165-587v-1.5h10.4l-0.1,3.9h-1.7l-0.1-1.3c-0.1-0.5-0.3-0.6-0.7-0.6H169v3.7h4.1v2H169v4.3h3.7c0.5,0,0.7-0.1,0.7-0.6l0.1-1.4h1.7
		l0.1,4H165z"/>
	<path d="M103.4-586.5h-1.2v4.8h1.1c0.6,0,1.4,0,1.8-0.4c0.5-0.4,0.7-1.1,0.7-2.4C105.8-586.1,104.7-586.5,103.4-586.5z"/>
</g>
<path d="M238.4-572.6v-7.1h-6.5v-4.1h6.5v-7h4.3v7h6.7v4.1h-6.7v7.1H238.4z"/>
<path d="M445.9-572.6v-7.1h-6.5v-4.1h6.5v-7h4.3v7h6.7v4.1h-6.7v7.1H445.9z"/>
<rect x="293.1" y="-594.1" fill="#FFFFFF" width="108" height="28"/>
<g>
	<path d="M283-601.3v39.1h44.9l16.5,8.2l16.5-8.2h44.9v-39.1H283z M310.8-574.2h-6.2v-1.6l0.9-0.2c0.5-0.1,0.6-0.3,0.6-0.8v-9.2
		c0-0.5-0.1-0.7-0.6-0.8l-0.9-0.1v-1.5h6.2c4.6,0,6.4,2.6,6.4,6.9C317.2-577.4,315.3-574.2,310.8-574.2z M320.1-574.2v-1.6l0.9-0.2
		c0.5-0.1,0.6-0.3,0.6-0.7v-9.3c0-0.5-0.1-0.7-0.6-0.8l-0.9-0.1v-1.5h10.4l-0.1,3.9h-1.7l-0.1-1.3c-0.1-0.5-0.3-0.6-0.7-0.6h-3.7
		v3.7h4.1v2h-4.1v4.3h3.7c0.5,0,0.7-0.1,0.7-0.6l0.1-1.4h1.7l0.1,4H320.1z M338-574c-2,0-3-0.4-4.4-0.9l0.2-3.4h2l0.3,1.8
		c0.6,0.4,1.2,0.6,2.4,0.6c1.3,0,2.4-0.6,2.4-1.9c0-1-0.4-1.5-2-2.1l-2.4-0.9c-1.6-0.6-2.7-1.9-2.7-4c0-2.2,1.6-3.7,4.8-3.7
		c1.5,0,2.9,0.2,4.3,0.5l-0.3,3.2h-1.9l-0.3-1.6c-0.7-0.3-1.4-0.4-2.1-0.4c-1.2,0-1.9,0.5-1.9,1.7c0,1,0.5,1.7,1.8,2.2l1.7,0.6
		c1.9,0.7,3.6,1.5,3.6,4.1C343.4-575.8,341.5-574,338-574z M351.8-586.8l-0.9,0.2c-0.5,0.1-0.6,0.3-0.6,0.7v9.2
		c0,0.5,0.1,0.6,0.6,0.7l0.9,0.2v1.6h-5.5v-1.6l0.9-0.2c0.5-0.1,0.6-0.3,0.6-0.7v-9.2c0-0.5-0.1-0.6-0.6-0.7l-0.9-0.2v-1.6h5.5
		V-586.8z M367.3-579.3l-0.7,0.1c-0.5,0.1-0.5,0.2-0.5,0.7v3.2c-1.1,0.5-2.9,1.2-5.2,1.2c-4.4,0-6.2-2.6-6.2-7.1
		c0-4.1,2-7.4,6.7-7.4c1.3,0,2.8,0.1,4.8,1.1l-0.3,3.4H364l-0.4-2c-0.9-0.3-1.5-0.5-2.8-0.5c-1.2,0-1.8,0.3-2.3,0.7
		c-0.7,0.6-1.1,3.2-1.1,4.6c0,2.9,1.1,5.2,3.8,5.2c0.9,0,1.6-0.1,2.4-0.4v-1.9c0-0.5-0.1-0.7-0.6-0.7l-1-0.2v-1.6h5.2V-579.3z
		 M384.4-586.8l-0.9,0.1c-0.5,0.1-0.6,0.3-0.6,0.8v11.7h-2.6l-6-9.7v7.2c0,0.5,0.1,0.7,0.6,0.7l0.9,0.2v1.6h-5.5v-1.6l0.9-0.2
		c0.5-0.1,0.6-0.3,0.6-0.7v-9.2c0-0.5-0.1-0.7-0.6-0.8l-0.9-0.1v-1.6h4.1l6,9.7v-7.2c0-0.5-0.1-0.7-0.6-0.8l-0.9-0.1v-1.6h5.5
		V-586.8z"/>
	<path d="M310.6-586.4h-2v10.1h2c2.7,0,3.9-1.5,3.9-5.3C314.5-585.2,313.3-586.4,310.6-586.4z"/>
</g>
<rect x="501.1" y="-594.1" fill="#FFFFFF" width="173" height="28"/>
<g>
	<path d="M595.6-576.1c1.1,0,1.9-0.2,2.5-0.7c0.7-0.7,1.1-3,1.1-4.7c0-3.2-1.4-5.1-4.1-5.1c-1.1,0-1.9,0.2-2.5,0.7
		c-0.7,0.7-1.1,3-1.1,4.7C591.5-578,592.9-576.1,595.6-576.1z"/>
	<path d="M683.3-601.3H490.5v39.1h79.9l16.5,8.2l16.5-8.2h79.9V-601.3z M595.8-588.6c4.4,0,6.1,3,6.1,7.3c0,3.7-1.9,7.3-7,7.3
		c-4.4,0-6.1-3-6.1-7.3C588.8-585,590.8-588.6,595.8-588.6z M572.1-575.8l0.9-0.2c0.5-0.1,0.6-0.3,0.6-0.7v-9.2
		c0-0.5-0.1-0.7-0.6-0.8l-0.9-0.1v-1.6h4.1l6,9.7v-7.2c0-0.5-0.1-0.7-0.6-0.8l-0.9-0.1v-1.6h5.5v1.6l-0.9,0.1
		c-0.5,0.1-0.6,0.3-0.6,0.8v11.7h-2.6l-6-9.7v7.2c0,0.5,0.1,0.7,0.6,0.7l0.9,0.2v1.6h-5.5V-575.8z M525-584.5h-1.7l-0.1-1.3
		c-0.1-0.5-0.3-0.6-0.7-0.6h-2v9.7c0,0.5,0.1,0.7,0.6,0.7l1,0.2v1.6h-5.7v-1.6l1-0.2c0.5-0.1,0.6-0.3,0.6-0.7v-9.7h-2
		c-0.5,0-0.7,0.1-0.7,0.6l-0.1,1.3h-1.7l-0.1-3.9h11.9L525-584.5z M527.5-574.2v-1.6l0.9-0.2c0.5-0.1,0.6-0.3,0.6-0.7v-9.3
		c0-0.5-0.1-0.7-0.6-0.8l-0.9-0.1v-1.5h10.4l-0.1,3.9h-1.7l-0.1-1.3c-0.1-0.5-0.3-0.6-0.7-0.6h-3.7v3.7h4.1v2h-4.1v4.3h3.7
		c0.5,0,0.7-0.1,0.7-0.6l0.1-1.4h1.7l0.1,4H527.5z M547.1-574c-4.3,0-6.2-2.6-6.2-7.1c0-4.1,2-7.4,6.7-7.4c1.3,0,2.6,0.1,4.6,1.1
		l-0.3,3.4H550l-0.4-2.1c-0.8-0.3-1.4-0.4-2.6-0.4c-1.2,0-1.8,0.3-2.3,0.7c-0.7,0.6-1.1,3.2-1.1,4.6c0,3.1,1.3,5.1,3.9,5.1
		c1.8,0,3.8-0.6,4.3-0.8l0.5,1.7C551.8-575,549.5-574,547.1-574z M559.3-580.6v3.9c0,0.5,0.1,0.7,0.6,0.7l1,0.2v1.6h-5.6v-1.6
		l0.9-0.2c0.5-0.1,0.6-0.3,0.6-0.7v-9.2c0-0.5-0.1-0.6-0.6-0.7l-0.9-0.2v-1.6h5.6v1.6l-1,0.2c-0.5,0.1-0.6,0.3-0.6,0.7v3.3h5.7v-3.3
		c0-0.5-0.1-0.7-0.6-0.7l-1-0.2v-1.6h5.6v1.6l-0.9,0.2c-0.5,0.1-0.6,0.3-0.6,0.7v9.2c0,0.5,0.1,0.6,0.6,0.7l0.9,0.2v1.6h-5.6v-1.6
		l1-0.2c0.5-0.1,0.6-0.3,0.6-0.7v-3.9H559.3z M604.8-574.2v-1.6l0.9-0.2c0.5-0.1,0.6-0.3,0.6-0.7v-9.2c0-0.5-0.1-0.6-0.6-0.7
		l-0.9-0.2v-1.6h5.7v1.6l-1.1,0.2c-0.5,0.1-0.6,0.3-0.6,0.7v9.6h3c0.5,0,0.7-0.1,0.7-0.6l0.1-1.4h1.7l0.1,4H604.8z M622.8-574
		c-4.4,0-6.1-3-6.1-7.3c0-3.7,1.9-7.3,7-7.3c4.4,0,6.1,3,6.1,7.3C629.7-577.6,627.8-574,622.8-574z M645-579.3l-0.7,0.1
		c-0.5,0.1-0.5,0.2-0.5,0.7v3.2c-1.1,0.5-2.9,1.2-5.2,1.2c-4.4,0-6.2-2.6-6.2-7.1c0-4.1,2-7.4,6.7-7.4c1.3,0,2.8,0.1,4.8,1.1
		l-0.3,3.4h-1.9l-0.4-2c-0.9-0.3-1.5-0.5-2.8-0.5c-1.2,0-1.8,0.3-2.3,0.7c-0.7,0.6-1.1,3.2-1.1,4.6c0,2.9,1.1,5.2,3.8,5.2
		c0.9,0,1.6-0.1,2.4-0.4v-1.9c0-0.5-0.1-0.7-0.6-0.7l-1-0.2v-1.6h5.2V-579.3z M660.8-586.8l-0.9,0.1c-0.6,0.1-0.7,0.3-1,0.8l-3.8,7
		v2.2c0,0.5,0.1,0.7,0.6,0.7l1,0.2v1.6h-5.7v-1.6l1-0.2c0.5-0.1,0.6-0.3,0.6-0.7v-2.4l-3.7-6.8c-0.3-0.6-0.5-0.8-1-0.8l-0.9-0.1
		v-1.6h5.8v1.5l-0.7,0.1c-0.4,0.1-0.6,0.1-0.6,0.4c0,0.1,0.1,0.3,0.2,0.5l2.4,4.6l2.3-4.6c0.1-0.2,0.1-0.3,0.1-0.4
		c0-0.2-0.2-0.3-0.7-0.4l-0.7-0.1v-1.6h5.6V-586.8z"/>
	<path d="M623-586.5c-1.1,0-1.9,0.2-2.5,0.7c-0.7,0.7-1.1,3-1.1,4.7c0,3.2,1.4,5.1,4.1,5.1c1.1,0,1.9-0.2,2.5-0.7
		c0.7-0.7,1.1-3,1.1-4.7C627-584.6,625.6-586.5,623-586.5z"/>
</g>
<rect x="33.1" y="-233.1" fill="#FFFFFF" width="696" height="90"/>
<polygon points="291.7,-201.6 291.5,-201.6 285.4,-181.4 297.8,-181.4 291.7,-201.6 "/>
<polygon points="636.7,-201.5 636.5,-201.5 630.4,-181.3 642.8,-181.3 636.7,-201.5 "/>
<path d="M135.4-207.7c-9.6,0-16.1,8-16.1,17.2c0,9.4,6.5,17.5,16.3,17.5c9.5,0,15.9-8.3,15.9-17.3
	C151.4-199.4,145-207.7,135.4-207.7z"/>
<path d="M416-206.6h-6.5v32.5h6.5c10.3,0,14.4-6.6,14.4-16.2C430.4-199.7,426.1-206.6,416-206.6z"/>
<path d="M-0.4-261v138.2h760.8V-261H-0.4z M79.1-159.7c-11.9,0-21.3-6.1-21.3-18.7v-1.9h15c0,3.8,1.8,8,6.1,8c3.1,0,5.7-2.5,5.7-5.7
	c0-3.8-3.2-5.1-6.3-6.5c-1.8-0.8-3.5-1.5-5.3-2.2c-7.6-3.2-14.4-7.6-14.4-16.9c0-11,10.6-17.4,20.6-17.4c5.7,0,12.2,2.2,15.9,6.7
	c3,3.7,3.7,7,3.9,11.6H84.2c-0.5-3.3-1.6-5.7-5.4-5.7c-2.6,0-5.2,1.8-5.2,4.6c0,0.9,0.1,1.8,0.6,2.5c1.4,2.4,9.2,5.4,11.6,6.5
	c7.8,3.6,13.8,7.6,13.8,16.9C99.6-165.5,90.7-159.7,79.1-159.7z M135.2-159.7c-16.7,0-31-12.9-31-29.9c0-4.4,0.7-8.5,2.3-12.6
	c0.9-2.3,2.3-4.6,3.8-6.6c6.1-8,14.9-12.1,24.9-12.1c17.2,0,31.2,13.2,31.2,30.6C166.5-172.9,152.5-159.7,135.2-159.7z M203.1-173
	c6.6,0,11.6-4.1,14.2-10h15.8c-3.4,13.9-15.5,23.2-29.8,23.2c-17.1,0-31.1-13.4-31.1-30.7s13.8-30.5,30.9-30.5
	c10.7,0,20.1,4.9,26,13.9c1.9,2.9,3.4,6.2,4,9.6h-15.8c-2.3-6.1-7.6-10.3-14.3-10.3c-9.6,0-15.8,8.1-15.8,17.2
	C187.3-181.4,193.5-173,203.1-173z M256-160.8h-15.1v-59H256V-160.8z M304.6-160.8l-2.9-8.5h-20.5l-3.1,8.5H262l23.7-59h11.9
	l23.4,59H304.6z M359.9-160.8h-32.5v-59h15.1v45.7h17.4V-160.8z M415.1-160.8h-20.6v-59H414c10.7,0,19.4,1.8,26.1,11
	c3.8,5.3,5.4,11.8,5.4,18.3C445.4-171.1,434.4-160.8,415.1-160.8z M467.8-160.8h-15.1v-59h15.1V-160.8z M508.9-159.7
	c-17.4,0-31.3-13.5-31.3-30.9c0-17.7,14.3-30.4,31.6-30.4c12.7,0,25.9,8.3,29.5,20.9h-16.9c-2.7-4.9-7.4-7.6-13-7.6
	c-9.6,0-16.1,7.8-16.1,17.1c0,9.6,6.1,17.7,16.2,17.7c6.5,0,12.3-2.9,14.1-9.5h-17.6v-12h35c0.1,1,0.1,2.1,0.1,3.1
	C540.3-173.2,526.9-159.7,508.9-159.7z M563.2-160.8h-15.1v-59h15.1V-160.8z M597.6-160.8h-15.1v-45.7h-11.6v-13.2h38.2v13.2h-11.6
	V-160.8z M649.7-160.8l-2.9-8.5h-20.5l-3.1,8.5H607l23.7-59h11.9l23.4,59H649.7z M703.4-160.8h-32.5v-59h15.1v45.7h17.4V-160.8z"/>
<polygon points="292.1,59.4 291.9,59.4 285.9,79.6 298.2,79.6 292.2,59.4 "/>
<polygon points="637.1,59.5 636.9,59.5 630.9,79.7 643.2,79.7 637.2,59.5 "/>
<path d="M135.8,53.3c-9.6,0-16.1,8-16.1,17.2c0,9.4,6.5,17.5,16.3,17.5c9.5,0,15.9-8.3,15.9-17.3C151.9,61.6,145.5,53.3,135.8,53.3z
	"/>
<path d="M416.5,54.4h-6.5v32.5h6.5c10.3,0,14.4-6.6,14.4-16.2C430.8,61.3,426.5,54.4,416.5,54.4z"/>
<path d="M0,0v138.2h981.7V0H0z"/>
<path d="M-30.4,220.5v212H182v-212H-30.4z"/>
<g>
	<path fill="#FFFFFF" d="M14.7,254.3c-0.4-2.7-1.1-7.9-7.4-7.9c-3.6,0-7.1,2.5-7.1,6.3c0,4.8,2.2,5.8,16.7,12.3
		c15.1,6.8,18.9,13.7,18.9,23.1C35.8,300,29,313,7.6,313c-23.4,0-29.1-15.3-29.1-25.6v-2.6H-1c0,9.4,5.8,11,8.4,11
		c4.9,0,7.9-4,7.9-7.7c0-5.3-3.4-6.7-15.8-11.9c-5.7-2.3-19.8-8-19.8-23.1S-5.6,229.2,8,229.2c8,0,16.6,2.9,21.8,9.2
		c4.8,5.9,5.1,11.3,5.3,15.9H14.7z"/>
	<path fill="#FFFFFF" d="M44.5,230.7h26.7c9.1,0,25.2,0,35.7,15.1c5.6,7.6,7.4,16.3,7.4,25.1c0,22-10.9,40.6-41.6,40.6H44.5V230.7z
		 M65.1,293.4H74c15.4,0,19.8-10.7,19.8-22.2c0-4.6-1-10.4-3.9-14.9c-2.4-3.6-6.5-7.4-15.7-7.4h-8.9V293.4z"/>
	<path fill="#FFFFFF" d="M21,422.9H0.3v-63.4h-13.2v-17.3H21V422.9z"/>
	<path fill="#FFFFFF" d="M79.1,366.5l0.2,0.2c1-0.4,2.4-0.4,3.9-0.4c11.8,0,25.4,9.1,25.4,27.4c0,18.4-14.3,30.8-31.3,30.8
		c-10.1,0-19.5-3.7-25-10.9c-5.1-5.8-6.9-14.1-6.9-20.3c0-8.2,3.4-15.4,7.4-21.6L73,342.2h23.9L79.1,366.5z M76.7,406.3
		c6.1,0,11.3-4.5,11.3-10.9c0-5.2-3.9-11-11.3-11c-6.5,0-10.9,5-10.9,10.7C65.8,402.6,71.7,406.3,76.7,406.3z"/>
</g>
<path d="M-30,483.5v212h212v-212H-30z"/>
<path fill="#FFFFFF" d="M3.8,505.5c-0.4-2.5-1-7.3-6.9-7.3c-3.4,0-6.6,2.3-6.6,5.9c0,4.5,2,5.4,15.6,11.5
	c14,6.3,17.6,12.8,17.6,21.6c0,11-6.3,23.1-26.2,23.1c-21.8,0-27.1-14.2-27.1-23.9v-2.4h19.1c0,8.7,5.4,10.3,7.8,10.3
	c4.6,0,7.3-3.8,7.3-7.2c0-5-3.2-6.2-14.7-11.1c-5.3-2.1-18.4-7.4-18.4-21.6c0-14.1,13.7-22.2,26.3-22.2c7.4,0,15.5,2.7,20.3,8.5
	c4.5,5.5,4.8,10.6,5,14.8H3.8z"/>
<path fill="#FFFFFF" d="M117,483.5h24.9c8.4,0,23.5,0,33.2,14c5.2,7.1,6.9,15.1,6.9,23.4c0,20.5-10.2,37.8-38.7,37.8H117V483.5z
	 M136.2,541.9h8.2c14.3,0,18.4-10,18.4-20.6c0-4.3-0.9-9.7-3.7-13.9c-2.2-3.4-6.1-6.9-14.6-6.9h-8.3V541.9z"/>
<path fill="#FFFFFF" d="M23,695H3.8V636H-8.5v-16.2H23V695z"/>
<path fill="#FFFFFF" d="M154.5,642.5l0.2,0.2c0.9-0.4,2.2-0.4,3.7-0.4c11,0,23.7,8.4,23.7,25.5c0,17.2-13.3,28.7-29.2,28.7
	c-9.5,0-18.2-3.5-23.3-10.2c-4.8-5.4-6.4-13.1-6.4-18.9c0-7.6,3.2-14.3,6.9-20.1l18.7-27.5h22.3L154.5,642.5z M152.3,679.6
	c5.7,0,10.6-4.2,10.6-10.2c0-4.9-3.7-10.3-10.6-10.3c-6.1,0-10.2,4.7-10.2,10C142.1,676.1,147.6,679.6,152.3,679.6z"/>
<path d="M-29.9,1268.4v213h212v-213H-29.9z"/>
<g>
	<path fill="#FFFFFF" d="M28.7,1315.2c-0.4-2.5-1-7.3-6.9-7.3c-3.4,0-6.6,2.3-6.6,5.9c0,4.5,2,5.4,15.6,11.5
		c14,6.3,17.6,12.8,17.6,21.6c0,11-6.3,23.1-26.2,23.1C0.3,1369.9-5,1355.7-5,1346v-2.4h19.1c0,8.7,5.4,10.3,7.8,10.3
		c4.6,0,7.3-3.8,7.3-7.2c0-5-3.2-6.2-14.7-11.1c-5.3-2.1-18.4-7.4-18.4-21.6c0-14.1,13.7-22.2,26.3-22.2c7.4,0,15.5,2.7,20.3,8.5
		c4.5,5.5,4.8,10.6,5,14.8H28.7z"/>
	<path fill="#FFFFFF" d="M57.4,1293.2h24.9c8.4,0,23.5,0,33.2,14c5.2,7.1,6.9,15.1,6.9,23.4c0,20.5-10.2,37.8-38.7,37.8H57.4V1293.2
		z M76.6,1351.6h8.2c14.3,0,18.4-10,18.4-20.6c0-4.3-0.9-9.7-3.7-13.9c-2.2-3.4-6.1-6.9-14.6-6.9h-8.3V1351.6z"/>
	<path fill="#FFFFFF" d="M88.9,1457.6H69.7v-59.1H57.4v-16.2h31.5V1457.6z"/>
	<path fill="#FFFFFF" d="M129.6,1405.1l0.2,0.2c0.9-0.4,2.2-0.4,3.7-0.4c11,0,23.7,8.4,23.7,25.5c0,17.2-13.3,28.7-29.2,28.7
		c-9.5,0-18.2-3.5-23.3-10.2c-4.8-5.4-6.4-13.1-6.4-18.9c0-7.6,3.2-14.3,6.9-20.1l18.7-27.5h22.3L129.6,1405.1z M127.4,1442.2
		c5.7,0,10.6-4.2,10.6-10.2c0-4.9-3.7-10.3-10.6-10.3c-6.1,0-10.2,4.7-10.2,10C117.2,1438.7,122.7,1442.2,127.4,1442.2z"/>
</g>
<path d="M-11.5,1548.9v175h175v-175H-11.5z"/>
<g>
	<path fill="#FFFFFF" d="M24.4,1573c-0.4-2.8-1.1-8-7.5-8c-3.7,0-7.2,2.6-7.2,6.4c0,4.9,2.2,5.9,17,12.5c15.3,6.9,19.2,14,19.2,23.5
		c0,12-6.9,25.2-28.6,25.2c-23.7,0-29.6-15.5-29.6-26.1v-2.7H8.4c0,9.5,5.9,11.2,8.5,11.2c5,0,8-4.1,8-7.9c0-5.4-3.4-6.8-16.1-12.1
		c-5.8-2.3-20.1-8.1-20.1-23.5c0-15.4,15-24.2,28.7-24.2c8.1,0,16.9,3,22.2,9.3c4.9,6,5.2,11.5,5.4,16.2H24.4z"/>
	<path fill="#FFFFFF" d="M55.7,1549h27.2c9.2,0,25.6,0,36.3,15.3c5.7,7.8,7.5,16.5,7.5,25.5c0,22.4-11.1,41.3-42.3,41.3H55.7V1549z
		 M76.6,1612.7h9c15.6,0,20.1-10.9,20.1-22.5c0-4.7-1-10.5-4-15.2c-2.4-3.7-6.7-7.5-16-7.5h-9.1V1612.7z"/>
	<path fill="#FFFFFF" d="M90,1724.2h-21v-65.5H55.7v-17.6H90V1724.2z"/>
	<path fill="#FFFFFF" d="M134.5,1666.2l0.2,0.2c1-0.4,2.4-0.4,4-0.4c12,0,25.8,9.2,25.8,27.8c0,18.7-14.5,31.3-31.8,31.3
		c-10.3,0-19.9-3.8-25.4-11.1c-5.2-5.9-7-14.3-7-20.6c0-8.3,3.4-15.6,7.5-22l20.4-30h24.3L134.5,1666.2z M132.1,1706.7
		c6.2,0,11.5-4.5,11.5-11.1c0-5.3-4-11.2-11.5-11.2c-6.7,0-11.1,5.1-11.1,10.9C121,1702.9,127,1706.7,132.1,1706.7z"/>
</g>
<path d="M-29.9,744.5v212h212v-212H-29.9z"/>
<g>
	<path fill="#FFFFFF" d="M0.8,831.1c-0.3-2.2-0.9-6.2-5.9-6.2c-2.8,0-5.6,2-5.6,5c0,3.8,1.7,4.6,13.2,9.7
		c11.9,5.3,14.9,10.9,14.9,18.3c0,9.3-5.3,19.6-22.2,19.6c-18.4,0-23-12.1-23-20.3v-2.1h16.2c0,7.4,4.6,8.7,6.6,8.7
		c3.9,0,6.2-3.2,6.2-6.1c0-4.2-2.7-5.3-12.5-9.4c-4.5-1.8-15.6-6.3-15.6-18.3s11.6-18.8,22.3-18.8c6.3,0,13.1,2.3,17.2,7.2
		c3.8,4.7,4.1,9,4.2,12.6H0.8z"/>
	<path fill="#FFFFFF" d="M24.4,812.5h21.1c7.2,0,19.9,0,28.2,11.9c4.4,6,5.9,12.8,5.9,19.8c0,17.4-8.6,32.1-32.8,32.1H24.4V812.5z
		 M40.7,862h7c12.2,0,15.6-8.4,15.6-17.5c0-3.6-0.8-8.2-3.1-11.8c-1.9-2.8-5.2-5.9-12.4-5.9h-7.1V862z"/>
	<path fill="#FFFFFF" d="M5.8,956.3h-16.3v-50.1H-21v-13.7H5.8V956.3z"/>
	<path fill="#FFFFFF" d="M51.7,911.7l0.2,0.2c0.8-0.3,1.9-0.3,3.1-0.3c9.3,0,20.1,7.2,20.1,21.6c0,14.6-11.3,24.3-24.7,24.3
		c-8,0-15.4-2.9-19.7-8.6c-4.1-4.6-5.4-11.1-5.4-16c0-6.5,2.7-12.2,5.9-17.1l15.9-23.3h18.9L51.7,911.7z M49.8,943.2
		c4.8,0,9-3.5,9-8.6c0-4.1-3.1-8.7-9-8.7c-5.2,0-8.6,4-8.6,8.4C41.2,940.2,45.8,943.2,49.8,943.2z"/>
</g>
<path d="M-29.9,1006.5v212h212v-212H-29.9z"/>
<g>
	<path fill="#FFFFFF" d="M10,1041.1c-0.3-2.2-0.9-6.2-5.9-6.2c-2.8,0-5.6,2-5.6,5c0,3.8,1.7,4.6,13.2,9.7
		c11.9,5.3,14.9,10.9,14.9,18.3c0,9.3-5.3,19.6-22.2,19.6c-18.4,0-23-12.1-23-20.3v-2.1h16.2c0,7.4,4.6,8.7,6.6,8.7
		c3.9,0,6.2-3.2,6.2-6.1c0-4.2-2.7-5.3-12.5-9.4c-4.5-1.8-15.6-6.3-15.6-18.3s11.6-18.8,22.3-18.8c6.3,0,13.1,2.3,17.2,7.2
		c3.8,4.7,4.1,9,4.2,12.6H10z"/>
	<path fill="#FFFFFF" d="M33.5,1022.5h21.1c7.2,0,19.9,0,28.2,11.9c4.4,6,5.9,12.8,5.9,19.8c0,17.4-8.6,32.1-32.8,32.1H33.5V1022.5z
		 M49.8,1072h7c12.2,0,15.6-8.4,15.6-17.5c0-3.6-0.8-8.2-3.1-11.8c-1.9-2.8-5.2-5.9-12.4-5.9h-7.1V1072z"/>
	<path fill="#FFFFFF" d="M14.9,1166.3H-1.4v-50.1h-10.4v-13.7h26.7V1166.3z"/>
	<path fill="#FFFFFF" d="M60.9,1121.7l0.2,0.2c0.8-0.3,1.9-0.3,3.1-0.3c9.3,0,20.1,7.2,20.1,21.6c0,14.6-11.3,24.3-24.7,24.3
		c-8,0-15.4-2.9-19.7-8.6c-4.1-4.6-5.4-11.1-5.4-16c0-6.5,2.7-12.2,5.9-17.1l15.9-23.3h18.9L60.9,1121.7z M59,1153.2
		c4.8,0,9-3.5,9-8.6c0-4.1-3.1-8.7-9-8.7c-5.2,0-8.6,4-8.6,8.4C50.3,1150.2,55,1153.2,59,1153.2z"/>
</g>
<g>
	<path fill="#FFFFFF" d="M84.7,58.4c-0.3-2-0.8-5.7-5.4-5.7c-2.6,0-5.2,1.8-5.2,4.6c0,3.5,1.6,4.2,12.2,9c11,4.9,13.8,10,13.8,16.9
		c0,8.6-4.9,18.1-20.6,18.1c-17.1,0-21.3-11.2-21.3-18.7v-1.9h15c0,6.9,4.2,8.1,6.1,8.1c3.6,0,5.7-3,5.7-5.7c0-3.9-2.5-4.9-11.6-8.7
		c-4.1-1.7-14.4-5.8-14.4-16.9S69.9,40,79.8,40c5.8,0,12.1,2.2,15.9,6.7c3.5,4.3,3.7,8.3,3.9,11.6H84.7z"/>
	<path fill="#FFFFFF" d="M136,40c18.2,0,31.2,14.2,31.2,30.6s-12.9,30.6-31.3,30.6c-18.6,0-31-14.8-31-29.9c0-3.9,0.6-8.3,2.3-12.6
		C110.3,51.1,119.5,40,136,40z M136.2,88c10.7,0,15.9-9.7,15.9-17.3c0-7.7-5.2-17.5-16-17.5c-10.4,0-16.1,8.9-16.1,17.2
		C119.9,79.6,126.1,88,136.2,88z"/>
	<path fill="#FFFFFF" d="M234,78.1c-3.4,14-15.5,23.2-29.8,23.2c-18.5,0-31.1-14.8-31.1-30.7C173,55.5,184.7,40,204,40
		c18.5,0,28.4,14.3,30,23.5h-15.8c-1.7-4.4-6.1-10.3-14.3-10.3c-10.1,0-15.8,8.8-15.8,17.2c0,8.9,6.1,17.5,15.9,17.5
		c9.4,0,13.2-7.9,14.2-10H234z"/>
	<path fill="#FFFFFF" d="M241.9,41.2H257v59h-15.1V41.2z"/>
	<path fill="#FFFFFF" d="M282.5,91.6l-3.1,8.5h-16.2l23.7-59h11.9l23.4,59h-16.3l-2.9-8.5H282.5z M286.7,79.7H299L293,59.5h-0.1
		h-0.2L286.7,79.7z"/>
	<path fill="#FFFFFF" d="M328.8,41.2h15.1v45.8h17.5v13.2h-32.5V41.2z"/>
	<path fill="#FFFFFF" d="M391.4,41.2H411c6.6,0,18.4,0,26.1,11c4.1,5.6,5.4,11.9,5.4,18.3c0,16.1-8,29.7-30.4,29.7h-20.6V41.2z
		 M406.5,86.9h6.5c11.2,0,14.4-7.8,14.4-16.2c0-3.3-0.7-7.6-2.9-10.9c-1.8-2.6-4.8-5.4-11.5-5.4h-6.5V86.9z"/>
	<path fill="#FFFFFF" d="M451.5,41.2h15.1v59h-15.1V41.2z"/>
	<path fill="#FFFFFF" d="M537.7,66.6c0.1,1,0.1,1.9,0.1,3.1c0,19.8-15.1,31.7-31.5,31.7c-17.9,0-31.3-14-31.3-30.9
		c0-17.6,14.2-30.4,31.6-30.4c14.1,0,26.2,9.5,29.5,20.9h-16.9c-2.3-4.1-6.6-7.7-13-7.7c-7.4,0-16.1,5.5-16.1,17.1
		c0,12.4,8.8,17.7,16.2,17.7c7.5,0,12.5-3.7,14.1-9.5h-17.6v-12H537.7z"/>
	<path fill="#FFFFFF" d="M545.7,41.2h15.1v59h-15.1V41.2z"/>
	<path fill="#FFFFFF" d="M578.7,54.4h-11.6V41.2h38.3v13.2h-11.6v45.8h-15.1V54.4z"/>
	<path fill="#FFFFFF" d="M624.2,91.6l-3.1,8.5h-16.2l23.7-59h11.9l23.4,59h-16.3l-2.9-8.5H624.2z M628.4,79.7h12.4l-6.1-20.2h-0.1
		h-0.2L628.4,79.7z"/>
	<path fill="#FFFFFF" d="M670.6,41.2h15.1v45.8h17.5v13.2h-32.5V41.2z"/>
	<path fill="#FFFFFF" d="M774.3,87.5v12.7h-41.6V88.4c7.4-4.9,12.4-8.1,18-14.4c1.8-2.1,8.1-9.1,8.1-15.1c0-2.4-1.4-5.7-5.6-5.7
		c-5.9,0-6.5,5.9-6.8,9.3h-14.4c0.2-3.8,0.3-8.7,3.5-13.6c5-7.8,13.9-9,18.2-9c13.2,0,20.1,8.8,20.1,17.1
		c0,12.5-10.3,22.1-19.6,30.3H774.3z"/>
	<path fill="#FFFFFF" d="M780.7,62.4c0-17.1,13.8-22.4,22.2-22.4c7.6,0,21.8,4.9,21.8,22.4v16.4c0,16.4-12.5,22.4-21.8,22.4
		c-8.7,0-22.2-5.7-22.2-22.4V62.4z M795.7,79.3c0,3.5,1.1,8.8,6.9,8.8c6.9,0,6.9-7,6.9-8.8V62c0-1.8,0-8.8-6.9-8.8
		c-6,0-6.9,5.6-6.9,8.8V79.3z"/>
	<path fill="#FFFFFF" d="M854.9,100.2h-15.1V53.8h-9.6V41.2h24.7V100.2z"/>
	<path fill="#FFFFFF" d="M888,58.9l0.2,0.2c0.7-0.3,1.8-0.3,2.9-0.3c8.6,0,18.6,6.6,18.6,20c0,13.5-10.4,22.5-22.9,22.5
		c-7.4,0-14.3-2.7-18.3-8c-3.7-4.2-5-10.3-5-14.8c0-6,2.5-11.2,5.4-15.8l14.7-21.5H901L888,58.9z M886.2,88c4.5,0,8.3-3.3,8.3-8
		c0-3.8-2.9-8.1-8.3-8.1c-4.8,0-8,3.7-8,7.8C878.3,85.3,882.6,88,886.2,88z"/>
</g>
<g>
</g>
<g>
</g>
<g>
</g>
<g>
</g>
<g>
</g>
<g>
</g>
<g>
</g>
<g>
</g>
<g>
</g>
<g>
</g>
<g>
</g>
<g>
</g>
<g>
</g>
<g>
</g>
<g>
</g>
</svg>
